<svg width="470" height="437" viewBox="0 0 470 437" fill="none" xmlns="http://www.w3.org/2000/svg">
    <g clip-path="url(#clip0_629_54585)">
        <path d="M400.505 232.508L457.774 303.149H469.437L443.456 222.55L400.505 232.508Z" stroke="#231F20" stroke-width="0.243393" stroke-miterlimit="10"/>
        <path d="M469.437 134.245H457.774L400.505 204.885L443.456 214.852L469.437 134.245Z" stroke="#231F20" stroke-width="0.243393" stroke-miterlimit="10"/>
        <path d="M274.547 0.846771L261.011 0.41124C250.17 0.41124 244.149 13.6113 244.149 13.6113C201.76 93.9422 182.01 131.348 172.403 149.414C157.658 145.478 148.639 144.481 139.973 144.481C130.107 144.481 130.039 148.216 130.039 148.216V165.018C130.039 165.018 130.107 168.754 139.973 168.754C147.747 168.735 155.493 167.841 163.066 166.09L161.898 168.184L161.966 168.393C161.126 169.842 155.626 179.098 150.596 184.709C136.715 186.443 121.424 193.881 121.424 193.881L184.193 207.089L259.348 197.666C259.348 197.666 258.298 193.06 249.901 188.872C246.693 187.272 233.896 186.1 218.512 185.321V171.233C223.374 171.233 227.287 170.32 227.287 169.231C227.287 168.142 223.374 167.246 218.512 167.229V156.215L222.375 143.074H223.525C228.471 143.074 232.477 142.178 232.477 141.072C232.477 139.966 228.48 139.062 223.542 139.062L231.52 111.891C232.152 111.925 232.807 111.942 233.485 111.942C238.422 111.942 242.428 111.045 242.428 109.94C242.428 108.834 238.422 107.93 233.485 107.93H232.645L236.306 95.4582H236.541V95.1232H236.39L248.868 52.5916H249.364V52.2482H248.969L258.894 18.4105C260.876 12.6648 262.321 7.98283 274.664 2.49678C275.806 2.01099 275.781 0.846771 274.547 0.846771Z" stroke="#231F20" stroke-width="0.243393" stroke-miterlimit="10"/>
        <path d="M274.715 434.496C262.371 428.985 260.927 424.311 258.945 418.582L249.019 384.744H249.414V384.401H248.919L236.44 341.853H236.591V341.509H236.356L232.687 329.038H233.527C238.464 329.038 242.47 328.142 242.47 327.028C242.47 325.914 238.464 325.026 233.527 325.026C232.849 325.026 232.194 325.043 231.562 325.076L223.584 297.905C228.522 297.905 232.519 297.001 232.519 295.895C232.519 294.79 228.513 293.894 223.567 293.894H222.417L218.554 280.744V269.763C223.416 269.763 227.329 268.859 227.329 267.761C227.329 266.664 223.416 265.776 218.554 265.76V251.672C233.938 250.893 246.735 249.72 249.943 248.121C258.34 243.933 259.39 239.326 259.39 239.326L184.235 229.903L121.424 243.104C121.424 243.104 136.715 250.541 150.596 252.275C155.634 257.887 161.126 267.142 161.966 268.582L161.898 268.8L163.066 270.886C155.492 269.141 147.746 268.25 139.973 268.23C130.107 268.23 130.039 271.966 130.039 271.966V288.751C130.039 288.751 130.107 292.495 139.973 292.495C148.639 292.495 157.658 291.498 172.403 287.561C182.01 305.628 201.793 343.033 244.149 423.364C244.149 423.364 250.17 436.581 261.011 436.581L274.547 436.146C275.781 436.146 275.806 434.981 274.715 434.496Z" stroke="#231F20" stroke-width="0.243393" stroke-miterlimit="10"/>
        <path d="M261.011 436.875C250.095 436.875 243.948 423.625 243.881 423.474C201.181 342.557 181.859 305.947 172.253 287.88C159.212 291.356 149.858 292.772 139.974 292.772C129.897 292.772 129.746 288.911 129.746 288.743V271.958C129.746 271.791 129.931 267.929 139.974 267.929C147.625 267.959 155.25 268.822 162.714 270.501L161.815 268.893C161.572 268.474 155.71 258.448 150.454 252.535C139.537 251.145 127.714 246.245 123.138 244.21H76.2225C56.573 244.21 37.4441 241.102 22.3544 235.457C9.23792 230.541 0.714758 224.2 0.126953 218.815C0.714758 213.412 9.22953 207.022 22.3544 202.114C37.4693 196.468 56.573 193.361 76.2225 193.361H121.794C124.355 192.155 138.001 185.99 150.454 184.399C155.87 178.318 161.773 168.125 161.832 168.025L162.714 166.433C155.251 168.119 147.626 168.984 139.974 169.013C129.897 169.013 129.746 165.152 129.746 164.993V148.233C129.746 148.065 129.931 144.204 139.974 144.204C149.858 144.204 159.212 145.62 172.253 149.087C181.876 131.004 201.19 94.4026 243.889 13.4853C243.948 13.3597 250.103 0.0842743 261.011 0.0842743L274.556 0.519809C274.821 0.482762 275.091 0.541869 275.316 0.686367C275.541 0.830866 275.706 1.05115 275.782 1.30712C275.808 1.61518 275.729 1.92285 275.558 2.18097C275.388 2.43909 275.135 2.63274 274.842 2.73098C262.8 8.13328 261.238 12.6059 259.315 18.2595L259.223 18.5275L249.364 52.139H249.532V52.7169H249.188L236.701 95.2736V95.6003H236.617L233.082 107.653H233.527C237.239 107.653 242.764 108.264 242.764 109.956C242.764 111.648 237.239 112.251 233.527 112.251C232.94 112.251 232.36 112.251 231.781 112.209L223.98 138.794C228.262 138.794 232.814 139.564 232.814 141.089C232.814 142.764 227.288 143.383 223.577 143.383H222.645L218.857 156.29V166.953C223.106 167.003 227.632 167.74 227.632 169.247C227.632 170.755 223.106 171.484 218.857 171.542V185.044C231.109 185.672 246.417 186.794 250.087 188.629C252.664 189.85 255.015 191.498 257.039 193.503L338.266 193.554C340.978 193.629 364.431 194.299 375.81 195.756C384.434 196.862 396.803 199.442 403.428 200.891L457.682 133.969H469.892L444.524 212.65C453.047 215.531 457.38 217.525 457.758 218.748V218.815C457.363 220.079 453.056 222.064 444.574 224.937L469.841 303.409H457.632L403.537 236.688C396.819 238.154 384.442 240.75 375.759 241.864C364.272 243.339 340.886 244 338.257 244.067L256.334 244.117C254.451 245.826 252.33 247.254 250.036 248.356C246.367 250.181 231.059 251.312 218.807 251.94V265.467C223.056 265.517 227.582 266.254 227.582 267.762C227.582 269.27 223.056 270.007 218.807 270.057V280.795L222.611 293.618H223.543C227.263 293.618 232.78 294.229 232.78 295.913C232.78 297.437 228.229 298.166 223.946 298.208L231.747 324.792C232.327 324.792 232.906 324.792 233.494 324.792C237.205 324.792 242.731 325.403 242.731 327.087C242.731 328.77 237.197 329.373 233.527 329.373H233.116L236.651 341.426L236.71 341.543V341.778L249.188 384.309H249.532V384.887H249.364L259.231 418.524L259.315 418.775C261.263 424.429 262.792 428.901 274.842 434.27C275.136 434.367 275.389 434.56 275.56 434.819C275.731 435.077 275.809 435.386 275.782 435.694C275.703 435.95 275.536 436.169 275.31 436.313C275.083 436.457 274.814 436.517 274.548 436.481L261.02 436.917L261.011 436.875ZM331.632 242.158C332.631 242.158 356.068 241.814 372.778 239.955C382.498 238.871 392.099 236.908 401.463 234.092L400.237 232.576L400.632 232.216L400.707 232.308L401.992 232.015V205.355L400.707 205.062H400.565L400.203 204.769L401.278 203.437C391.953 200.662 382.399 198.722 372.728 197.641C356.496 195.84 334.143 195.48 331.649 195.447L258.643 195.539C259.075 196.161 259.404 196.848 259.617 197.574L259.693 197.892L184.185 207.357L128.646 195.689L85.4426 195.731C58.4455 195.731 48.3269 198.361 46.8994 198.78V218.789V238.799C48.3269 239.218 58.4623 241.848 85.4426 241.848H125.648L184.169 229.544L259.693 239.017L259.617 239.335C259.316 240.306 258.835 241.213 258.198 242.007L331.632 242.158Z" fill="white"/>
        <path d="M261.01 0.209559L274.555 0.645094C275.26 0.645094 275.588 1.00525 275.655 1.34027C275.68 1.61792 275.61 1.89578 275.458 2.12955C275.306 2.36332 275.08 2.53954 274.815 2.63012C262.723 8.01567 261.178 12.5134 259.222 18.1921L259.138 18.4601L249.221 52.2392H249.439V52.5826H249.12L236.608 95.2231V95.4576H236.549L232.938 107.753H233.526C237.943 107.753 242.646 108.515 242.646 109.931C242.646 111.346 237.943 112.108 233.526 112.108C232.916 112.108 232.303 112.092 231.687 112.058L223.811 138.86C228.16 138.86 232.686 139.648 232.686 141.038C232.686 142.428 227.992 143.216 223.567 143.216H222.543L218.73 156.206V167.053C223.047 167.095 227.505 167.89 227.505 169.23C227.505 170.57 223.047 171.366 218.73 171.4V185.144C234.131 185.923 246.794 187.112 250.018 188.721C252.604 189.938 254.96 191.593 256.98 193.612H338.256C338.449 193.612 363.742 194.274 375.783 195.815C384.516 196.937 397.121 199.584 403.494 200.966L457.732 134.078H469.714L469.639 134.296L444.296 212.717C451.585 215.171 457.152 217.449 457.564 218.764V218.814V218.865C457.152 220.18 451.618 222.441 444.363 224.895L469.647 303.316H457.732L457.681 303.249L403.628 236.579C397.339 237.961 384.592 240.641 375.783 241.772C363.683 243.313 338.407 243.941 338.214 243.941L256.291 243.992C254.405 245.707 252.278 247.137 249.976 248.238C246.752 249.846 234.089 251.035 218.688 251.814V265.559C223.005 265.559 227.463 266.355 227.463 267.728C227.463 269.102 223.005 269.864 218.688 269.906V280.794L222.501 293.785H223.525C227.951 293.785 232.645 294.547 232.645 295.962C232.645 297.378 228.118 298.115 223.769 298.14L231.645 324.942C232.261 324.909 232.874 324.892 233.484 324.892C237.901 324.892 242.604 325.654 242.604 327.07C242.604 328.485 237.901 329.247 233.484 329.247H232.905L236.516 341.543H236.574V341.786L249.086 384.426H249.405V384.77H249.187L259.104 418.557L259.196 418.808C261.145 424.495 262.69 428.985 274.782 434.379C275.046 434.469 275.272 434.645 275.424 434.879C275.577 435.113 275.646 435.391 275.621 435.668C275.554 436.003 275.227 436.364 274.513 436.364L260.985 436.799C250.161 436.799 244.031 423.616 243.972 423.482C201.676 343.344 181.925 305.921 172.285 287.796C159.228 291.272 149.831 292.696 139.948 292.696C130.064 292.696 129.871 288.952 129.871 288.793V271.958C129.871 271.79 130.056 268.046 139.948 268.046C147.702 268.075 155.429 268.957 162.99 270.676L161.965 268.834C161.621 268.256 155.819 258.322 150.553 252.426C139.637 251.035 127.705 246.094 123.229 244.092H76.2634C56.6307 244.092 37.5187 240.985 22.4373 235.348C9.3209 230.482 0.831334 224.141 0.24353 218.814C0.831334 213.471 9.32091 207.13 22.3954 202.239C37.5103 196.602 56.5888 193.495 76.2214 193.495H121.793C124.388 192.28 138.058 186.099 150.511 184.524C155.902 178.485 161.864 168.209 161.932 168.091L162.948 166.274C155.41 167.995 147.705 168.879 139.973 168.912C130.047 168.912 129.896 165.16 129.896 165.001V148.233C129.896 148.073 130.081 144.33 139.973 144.33C149.865 144.33 159.287 145.753 172.311 149.229C181.951 131.113 201.701 93.6819 243.998 13.5436C244.056 13.418 250.186 0.234685 261.01 0.234685V0.209559ZM184.184 207.264L128.712 195.605C107.971 195.605 92.0586 195.605 85.4835 195.605C57.9407 195.605 47.9816 198.336 46.8144 198.688V218.789V238.891C47.9816 239.243 57.9407 241.965 85.4835 241.965H125.689L184.184 229.703L259.558 239.176L259.516 239.36C259.195 240.392 258.672 241.352 257.979 242.182L331.631 242.275C331.807 242.275 355.748 241.973 372.777 240.08C382.562 238.988 392.228 237.012 401.655 234.175L400.387 232.617L400.656 232.4L400.706 232.467L402.15 232.132V205.262L400.706 204.927L400.656 204.994L400.387 204.777L401.47 203.403C392.094 200.592 382.482 198.63 372.752 197.54C355.747 195.647 331.815 195.346 331.606 195.346L258.407 195.438C258.887 196.099 259.253 196.835 259.49 197.616L259.532 197.808H259.348L184.159 207.239L184.184 207.264ZM260.993 -0.0249583C250.002 -0.0249583 243.821 13.284 243.762 13.3761C201.155 94.2096 181.833 130.82 172.227 148.953C159.228 145.494 149.873 144.087 140.007 144.087C129.846 144.087 129.661 148.065 129.653 148.233V165.034C129.653 165.21 129.854 169.222 140.007 169.222C147.577 169.198 155.123 168.355 162.511 166.709L161.755 168.058C161.697 168.158 155.743 178.402 150.419 184.39C138.042 185.973 124.497 192.071 121.768 193.344C99.1626 193.344 82.2086 193.344 76.255 193.344C56.5971 193.344 37.4515 196.451 22.345 202.096C9.17815 207.021 0.629796 213.454 0.0419922 218.848V218.898C0.629796 224.3 9.17815 230.716 22.345 235.649C37.4599 241.295 56.5971 244.41 76.255 244.41H123.17C127.721 246.395 139.478 251.253 150.394 252.652C155.634 258.515 161.47 268.566 161.722 268.959L162.486 270.333C155.098 268.683 147.552 267.841 139.981 267.82C129.821 267.82 129.636 271.799 129.628 271.966V288.776C129.628 288.952 129.829 292.922 139.981 292.922C149.848 292.922 159.194 291.515 172.201 288.056C181.825 306.164 201.155 342.782 243.788 423.566C243.846 423.691 250.035 436.967 261.019 436.967L274.563 436.54C274.857 436.577 275.154 436.507 275.4 436.345C275.647 436.182 275.827 435.936 275.907 435.652C275.94 435.317 275.858 434.98 275.675 434.698C275.492 434.415 275.219 434.202 274.899 434.094C262.9 428.742 261.371 424.294 259.44 418.666L259.348 418.406L249.531 384.904H249.666V384.066H249.288L236.835 341.627V341.183H236.717L233.257 329.381H233.509C236.742 329.381 242.872 328.879 242.872 326.961C242.872 325.043 236.742 324.54 233.509 324.54C232.98 324.54 232.418 324.54 231.83 324.582L224.105 298.241C227.514 298.19 232.896 297.638 232.896 295.828C232.896 294.019 226.775 293.408 223.534 293.408H222.694L218.949 280.618V270.174C222.308 270.124 227.724 269.562 227.724 267.762C227.724 265.961 222.316 265.408 218.949 265.349V252.082C231.183 251.454 246.433 250.324 250.102 248.489C252.393 247.386 254.514 245.962 256.4 244.26L338.231 244.218H338.281C340.91 244.151 364.313 243.489 375.792 242.015C384.441 240.909 396.785 238.321 403.502 236.855L457.446 303.408L457.505 303.475L457.572 303.568H470.008L469.899 303.249L444.707 225.054C455.943 221.243 457.58 219.744 457.832 218.948V218.898V218.823V218.747V218.697C457.589 217.859 455.943 216.394 444.64 212.566L469.832 134.379L469.899 134.153L470.008 133.843H457.572L457.505 133.927L403.326 200.748C396.667 199.299 384.374 196.728 375.775 195.63C364.388 194.165 340.935 193.495 338.298 193.428H331.068L257.038 193.369C255.012 191.368 252.661 189.723 250.086 188.503C246.416 186.669 231.167 185.538 218.932 184.91V171.643C222.291 171.584 227.707 171.031 227.707 169.23C227.707 167.43 222.299 166.868 218.932 166.818V156.273L222.677 143.492H223.517C226.758 143.492 232.88 142.989 232.88 141.08C232.88 139.17 227.497 138.718 224.088 138.668L231.813 112.326C232.384 112.326 232.947 112.326 233.493 112.326C236.726 112.326 242.855 111.824 242.855 109.914C242.855 108.004 236.726 107.493 233.493 107.493H233.241L236.7 95.6921H236.818V95.2482L249.271 52.8087H249.649V51.9711H249.515L259.331 18.4685L259.423 18.2172C261.355 12.5888 262.883 8.16644 274.882 2.78926C275.202 2.68119 275.476 2.46842 275.659 2.18555C275.842 1.90269 275.923 1.5664 275.89 1.23139C275.807 0.94922 275.627 0.705408 275.381 0.542973C275.135 0.380539 274.84 0.309918 274.547 0.34357L261.01 -0.0835876L260.993 -0.0249583ZM258.852 195.664L331.606 195.563C334.125 195.605 356.503 195.957 372.71 197.766C382.306 198.838 391.787 200.758 401.042 203.504L400.152 204.601L400.001 204.785L400.194 204.936L400.463 205.154L400.647 205.304L400.757 205.17L401.873 205.43V231.914L400.757 232.165L400.647 232.031L400.463 232.182L400.194 232.4L400.001 232.55L400.152 232.743L401.202 234.033C391.896 236.804 382.361 238.739 372.71 239.812C356.008 241.671 332.596 241.998 331.614 242.015H322.058L258.432 241.931C259.011 241.178 259.449 240.326 259.725 239.418V239.234L259.784 238.975H259.524L184.176 229.527H184.067L125.572 241.822C106.325 241.822 91.6387 241.822 85.3912 241.822C58.9148 241.822 48.6786 239.31 46.9656 238.807L47.1083 218.814V198.897C48.7878 198.411 59.0491 195.873 85.5339 195.873C92.1089 195.873 108.005 195.873 128.738 195.873L184.159 207.524H184.268L259.448 198.101H259.642H259.902L259.843 197.842V197.657C259.661 196.99 259.378 196.355 259.003 195.773L258.852 195.664Z" fill="#231F20"/>
        <path d="M443.456 222.55L469.437 303.149H457.774L400.505 232.508" fill="#58595B"/>
        <path d="M443.456 222.55L469.437 303.149H457.774L400.505 232.508" stroke="white" stroke-width="0.344107"/>
        <path d="M443.456 214.852L469.437 134.245H457.774L400.505 204.885" fill="#58595B"/>
        <path d="M443.456 214.852L469.437 134.245H457.774L400.505 204.885" stroke="white" stroke-width="0.344107"/>
        <path d="M433.019 211.159L432.7 211.033L454.869 155.243H462.342V155.586H455.104L433.019 211.159Z" fill="white"/>
        <path d="M462.342 282.151H454.869L454.827 282.042L432.7 226.361L433.019 226.235L455.104 281.807H462.342V282.151Z" fill="white"/>
        <path d="M121.424 193.897C121.424 193.897 138.638 185.521 153.123 184.474C167.608 183.427 241.504 184.683 249.901 188.871C258.298 193.059 259.348 197.666 259.348 197.666L184.193 207.088L121.424 193.897Z" fill="#58595B" stroke="white" stroke-width="0.344107"/>
        <path d="M172.638 163.778C157.75 167.764 148.689 168.803 139.973 168.803C130.106 168.803 130.039 165.067 130.039 165.067V148.232C130.039 148.232 130.106 144.497 139.973 144.497C148.689 144.497 157.75 145.502 172.638 149.522V163.778Z" fill="#58595B" stroke="white" stroke-width="0.344107"/>
        <path d="M185.335 156.935C185.335 157.823 184.981 158.675 184.351 159.304C183.721 159.932 182.867 160.285 181.976 160.285H140.166C139.276 160.285 138.421 159.932 137.791 159.304C137.161 158.675 136.808 157.823 136.808 156.935C136.808 156.046 137.161 155.194 137.791 154.566C138.421 153.937 139.276 153.584 140.166 153.584H181.976C182.867 153.584 183.721 153.937 184.351 154.566C184.981 155.194 185.335 156.046 185.335 156.935Z" fill="#58595B" stroke="white" stroke-width="0.344107"/>
        <path d="M242.428 109.931C242.428 108.817 238.422 107.92 233.485 107.92C228.547 107.92 224.533 108.817 224.533 109.931C224.533 111.045 228.539 111.932 233.485 111.932C238.431 111.932 242.428 111.061 242.428 109.931Z" fill="#58595B" stroke="white" stroke-width="0.344107"/>
        <path d="M232.477 141.088C232.477 139.974 228.472 139.078 223.526 139.078C218.58 139.078 214.583 139.974 214.583 141.088C214.583 142.202 218.588 143.09 223.526 143.09C228.464 143.09 232.477 142.194 232.477 141.088Z" fill="#58595B" stroke="white" stroke-width="0.344107"/>
        <path d="M227.287 169.23C227.287 168.125 223.282 167.22 218.344 167.22C213.407 167.22 209.401 168.125 209.401 169.23C209.401 170.336 213.407 171.232 218.344 171.232C223.282 171.232 227.287 170.336 227.287 169.23Z" fill="#58595B" stroke="white" stroke-width="0.344107"/>
        <path d="M274.547 0.846771L261.011 0.41124C250.17 0.41124 244.149 13.6113 244.149 13.6113C164.804 163.954 164.796 163.963 162.083 168.201C162.083 168.201 153.837 182.439 147.875 187.389C141.434 192.691 130.384 194.459 130.384 194.459H218.554V156.215L258.945 18.4273C260.927 12.6816 262.371 7.99959 274.715 2.51353C275.807 2.01099 275.781 0.846771 274.547 0.846771Z" fill="#58595B" stroke="white" stroke-width="0.344107"/>
        <path d="M147.572 194.575L147.304 194.357L163.955 174.297L161.89 168.2L169.388 154.782L169.682 154.95L162.268 168.233L164.342 174.373L147.572 194.575Z" fill="white"/>
        <path d="M212.374 194.525L212.147 155.159L203.607 153.166L203.675 152.981L224.987 94.7957L232.066 95.0051V94.9046L236.558 95.1391V95.4741L232.292 95.3485L212.534 154.908L212.45 155.243L212.685 194.474L212.374 194.525ZM204.061 152.965L212.231 154.874L231.956 95.4071L225.239 95.2061L204.069 152.998L204.061 152.965Z" fill="white"/>
        <path d="M217.547 139.58L209.578 137.369L209.67 137.034L217.639 139.254L217.547 139.58Z" fill="white"/>
        <path d="M222.308 125.049L214.969 123.047L215.061 122.712L222.4 124.722L222.308 125.049Z" fill="white"/>
        <path d="M227.245 110.224L220.191 108.331L220.275 107.996L227.329 109.897L227.245 110.224Z" fill="white"/>
        <path d="M205.497 194.483H205.152V162.957H212.324V163.3H205.497V194.483Z" fill="white"/>
        <path d="M218.479 156.391L212.29 155.26L212.349 154.916L218.546 156.055L218.479 156.391Z" fill="white"/>
        <path d="M172.53 156.65L169.297 154.933L172.253 149.799L172.555 149.966L169.776 154.791L172.513 156.248L176.401 153.727L244.368 24.7836L239.489 22.5975L239.632 22.2876L244.847 24.6244L244.763 24.7836L176.661 153.961L172.53 156.65Z" fill="white"/>
        <path d="M193.136 122.402L188.266 119.713L188.434 119.412L193.304 122.1L193.136 122.402Z" fill="white"/>
        <path d="M231.108 93.464L230.78 93.3635L243.317 52.2641H249.414V52.6075H243.569L231.108 93.464Z" fill="white"/>
        <path d="M121.424 243.103C121.424 243.103 138.638 251.479 153.123 252.526C167.608 253.573 241.504 252.317 249.901 248.129C258.298 243.941 259.348 239.334 259.348 239.334L184.193 229.912L121.424 243.103Z" fill="#58595B" stroke="white" stroke-width="0.344107"/>
        <path d="M172.638 273.256C157.75 269.269 148.689 268.23 139.973 268.23C130.106 268.23 130.039 271.966 130.039 271.966V288.751C130.039 288.751 130.106 292.495 139.973 292.495C148.689 292.495 157.75 291.49 172.638 287.469V273.256Z" fill="#58595B" stroke="white" stroke-width="0.344107"/>
        <path d="M185.335 280.049C185.335 279.16 184.981 278.308 184.351 277.68C183.721 277.051 182.867 276.698 181.976 276.698H140.166C139.276 276.698 138.421 277.051 137.791 277.68C137.161 278.308 136.808 279.16 136.808 280.049C136.808 280.937 137.161 281.789 137.791 282.418C138.421 283.046 139.276 283.399 140.166 283.399H181.976C182.867 283.399 183.721 283.046 184.351 282.418C184.981 281.789 185.335 280.937 185.335 280.049Z" fill="#58595B" stroke="white" stroke-width="0.344107"/>
        <path d="M242.428 327.036C242.428 328.15 238.422 329.046 233.485 329.046C228.547 329.046 224.533 328.15 224.533 327.036C224.533 325.922 228.539 325.034 233.485 325.034C238.431 325.034 242.428 325.93 242.428 327.036Z" fill="#58595B" stroke="white" stroke-width="0.344107"/>
        <path d="M232.477 295.87C232.477 296.984 228.472 297.88 223.526 297.88C218.58 297.88 214.583 296.984 214.583 295.87C214.583 294.756 218.588 293.868 223.526 293.868C228.464 293.868 232.477 294.798 232.477 295.87Z" fill="#58595B" stroke="white" stroke-width="0.344107"/>
        <path d="M227.287 267.761C227.287 268.867 223.282 269.772 218.344 269.772C213.407 269.772 209.401 268.867 209.401 267.761C209.401 266.656 213.407 265.76 218.344 265.76C223.282 265.76 227.287 266.656 227.287 267.761Z" fill="#58595B" stroke="white" stroke-width="0.344107"/>
        <path d="M274.547 436.146L261.011 436.581C250.17 436.581 244.149 423.364 244.149 423.364C164.804 273.013 164.796 273.013 162.083 268.775C162.083 268.775 153.837 254.536 147.875 249.586C141.434 244.276 130.384 242.509 130.384 242.509H218.554V280.794L258.987 418.59C260.969 424.336 262.413 429.01 274.757 434.504C275.807 434.981 275.781 436.146 274.547 436.146Z" fill="#58595B" stroke="white" stroke-width="0.344107"/>
        <path d="M169.388 282.218L161.89 268.792L163.955 262.703L147.304 242.634L147.572 242.417L164.342 262.627L162.268 268.758L169.682 282.05L169.388 282.218Z" fill="white"/>
        <path d="M224.987 342.188L203.607 283.818L212.156 281.824L212.374 242.509H212.718L212.534 281.74L212.618 282.075H212.534L232.292 341.618L236.558 341.492V341.836L232.066 342.07V341.97L224.987 342.179V342.188ZM204.061 284.069L225.23 341.861L231.948 341.668L212.215 282.201L204.052 284.111L204.061 284.069Z" fill="white"/>
        <path d="M209.67 299.957L209.578 299.631L217.547 297.42L217.639 297.746L209.67 299.957Z" fill="white"/>
        <path d="M215.061 314.28L214.969 313.953L222.308 311.943L222.4 312.278L215.061 314.28Z" fill="white"/>
        <path d="M220.275 329.004L220.191 328.669L227.245 326.768L227.329 327.103L220.275 329.004Z" fill="white"/>
        <path d="M212.324 274.043H205.152V242.517H205.497V273.7H212.324V274.043Z" fill="white"/>
        <path d="M212.349 282.076L212.29 281.741L218.479 280.61L218.546 280.945L212.349 282.076Z" fill="white"/>
        <path d="M239.632 414.712L239.489 414.402L244.368 412.208L176.401 283.273L172.513 280.752L169.776 282.201L172.555 287.025L172.253 287.201L169.297 282.067L172.53 280.35L176.686 283.072L244.847 412.376L239.632 414.712Z" fill="white"/>
        <path d="M188.434 317.58L188.266 317.278L193.136 314.59L193.304 314.891L188.434 317.58Z" fill="white"/>
        <path d="M249.414 384.728H243.317L243.284 384.61L230.78 343.628L231.108 343.528L243.569 384.384H249.414V384.728Z" fill="white"/>
        <path d="M59.3184 244.77L59.5535 241.16L69.8149 241.864L69.5881 245.474L59.3184 244.77Z" fill="white"/>
        <path d="M59.7042 241.278L69.7305 241.973L69.5206 245.323L59.4943 244.636L59.7042 241.286V241.278ZM59.4859 241.035V241.278L59.2676 244.628V244.862H59.5111L69.5374 245.558H69.7809V245.323L69.9908 241.973V241.73H69.7473L59.7042 241.043H59.4691L59.4859 241.035Z" fill="#231F20"/>
        <path d="M63.9446 254.042V249.402L62.5926 250.683L61.7109 249.762L64.5744 247.057L67.4126 249.787L66.5393 250.683L65.2126 249.419V254.042H63.9446Z" fill="white"/>
        <path d="M64.5751 247.224L67.2622 249.804L66.5569 250.524L65.1126 249.151V253.933H64.0797V249.134L62.6186 250.524L61.9048 249.779L64.5919 247.266L64.5751 247.224ZM64.5919 246.931L64.424 247.09L61.7369 249.603L61.5605 249.771L61.7285 249.946L62.4422 250.692L62.6102 250.868L62.7781 250.7L63.8362 249.695V254.176H65.3477V249.712L66.3889 250.7L66.5653 250.868L66.7332 250.692L67.4386 249.972L67.6065 249.796L67.4302 249.628L64.7431 247.048L64.5751 246.889L64.5919 246.931Z" fill="#231F20"/>
        <path d="M378.277 239.619L388.43 237.936L389.051 241.504L378.899 243.187L378.277 239.619Z" fill="white"/>
        <path d="M388.338 238.078L388.909 241.428L379 243.103L378.421 239.753L388.338 238.078ZM388.531 237.802H388.296L378.379 239.477L378.144 239.519V239.753L378.715 243.103V243.338H378.95L388.867 241.663L389.11 241.621V241.386L388.531 238.036V237.802Z" fill="#231F20"/>
        <path d="M383.038 250.139V245.499L381.686 246.772L380.805 245.851L383.668 243.154L386.506 245.876L385.633 246.772L384.306 245.507V250.139H383.038Z" fill="white"/>
        <path d="M383.669 243.313L386.339 245.876L385.634 246.596L384.19 245.223V250.013H383.157V245.214L381.696 246.596L380.982 245.851L383.669 243.338V243.313ZM383.669 243.003L383.501 243.162L380.814 245.675L380.638 245.842L380.806 246.018L381.519 246.764L381.679 246.94L381.855 246.772L382.913 245.775V250.256H384.425V245.784L385.466 246.772L385.642 246.94L385.81 246.772L386.516 246.043L386.684 245.876L386.507 245.7L383.837 243.103L383.669 242.944V243.003Z" fill="#231F20"/>
        <path d="M407.349 202.063C407.349 202.063 387.892 197.59 375.716 196.032C363.54 194.474 338.214 193.83 338.214 193.83C338.214 193.83 102.387 193.687 76.2215 193.687C32.7996 193.687 1.54515 208.596 0.419922 218.814C1.54515 229.032 32.7996 243.941 76.2215 243.941C102.387 243.941 338.214 243.799 338.214 243.799C338.214 243.799 363.54 243.162 375.716 241.596C387.892 240.03 407.349 235.565 407.349 235.565C407.349 235.565 456.22 222.684 457.421 218.814C456.22 214.936 407.349 202.063 407.349 202.063ZM402.31 234.142C392.684 237.115 382.795 239.16 372.777 240.247C355.563 242.165 331.631 242.45 331.631 242.45C331.631 242.45 115.126 242.165 85.4584 242.165C55.7911 242.165 46.6213 239.041 46.6213 239.041V218.814V198.587C46.6213 198.587 55.7827 195.463 85.4584 195.463C115.134 195.463 331.631 195.178 331.631 195.178C331.631 195.178 355.563 195.463 372.777 197.381C382.795 198.469 392.684 200.513 402.31 203.487V234.142Z" fill="#58595B"/>
        <path d="M407.349 202.063C407.349 202.063 387.892 197.59 375.716 196.032C363.54 194.474 338.214 193.83 338.214 193.83C338.214 193.83 102.387 193.687 76.2215 193.687C32.7996 193.687 1.54515 208.596 0.419922 218.814C1.54515 229.032 32.7996 243.941 76.2215 243.941C102.387 243.941 338.214 243.799 338.214 243.799C338.214 243.799 363.54 243.162 375.716 241.596C387.892 240.03 407.349 235.565 407.349 235.565C407.349 235.565 456.22 222.684 457.421 218.814C456.22 214.936 407.349 202.063 407.349 202.063ZM402.31 234.142C392.684 237.115 382.795 239.16 372.777 240.247C355.563 242.165 331.631 242.45 331.631 242.45C331.631 242.45 115.126 242.165 85.4584 242.165C55.7911 242.165 46.6213 239.041 46.6213 239.041V218.814V198.587C46.6213 198.587 55.7827 195.463 85.4584 195.463C115.134 195.463 331.631 195.178 331.631 195.178C331.631 195.178 355.563 195.463 372.777 197.381C382.795 198.469 392.684 200.513 402.31 203.487V234.142Z" stroke="white" stroke-width="0.344107"/>
        <path d="M41.331 198.813L34.6133 200.806V205.304C36.1471 204.878 37.6018 204.208 38.9211 203.319C41.8601 201.016 41.331 198.813 41.331 198.813Z" fill="black"/>
        <path d="M33.2534 201.225L24.7471 206.041L28.8449 207.926L33.4634 205.413L33.2534 201.225Z" fill="black"/>
        <path d="M23.9074 207.197L17.2988 218.186H22.5471L28.2152 208.973L23.9074 207.197Z" fill="black"/>
        <path d="M41.331 238.597L34.6133 236.612V232.106C36.1468 232.537 37.6012 233.21 38.9211 234.1C41.8601 236.403 41.331 238.597 41.331 238.597Z" fill="black"/>
        <path d="M33.2534 236.194L24.7471 231.378L28.8449 229.493L33.4634 232.006L33.2534 236.194Z" fill="black"/>
        <path d="M23.9074 230.23L17.2988 219.233H22.5471L28.2152 228.446L23.9074 230.23Z" fill="black"/>
        <path d="M443.6 215.682C443.6 215.682 433.867 216.159 429.324 216.159C425.965 216.159 414.705 215.321 402.353 214.894V223.747C414.705 223.303 425.991 222.491 429.324 222.491C433.909 222.491 443.6 222.96 443.6 222.96C444.343 221.891 444.742 220.622 444.742 219.321C444.742 218.02 444.343 216.75 443.6 215.682Z" fill="#58595B"/>
        <path d="M443.6 215.682C443.6 215.682 433.867 216.159 429.324 216.159C425.965 216.159 414.705 215.321 402.353 214.894V223.747C414.705 223.303 425.991 222.491 429.324 222.491C433.909 222.491 443.6 222.96 443.6 222.96C444.343 221.891 444.742 220.622 444.742 219.321C444.742 218.02 444.343 216.75 443.6 215.682V215.682Z" stroke="white" stroke-width="0.344107"/>
        <path d="M344.647 239.753H340.238V245.968H344.647V239.753Z" fill="#D1D3D4" stroke="white" stroke-width="0.419643"/>
        <path d="M338.072 239.753H333.663V245.968H338.072V239.753Z" fill="#D1D3D4" stroke="white" stroke-width="0.419643"/>
        <path d="M331.144 239.753H326.735V245.968H331.144V239.753Z" fill="#D1D3D4" stroke="white" stroke-width="0.419643"/>
        <path d="M324.284 239.753H319.875V245.968H324.284V239.753Z" fill="#D1D3D4" stroke="white" stroke-width="0.419643"/>
        <path d="M317.498 239.753H313.09V245.968H317.498V239.753Z" fill="#D1D3D4" stroke="white" stroke-width="0.419643"/>
        <path d="M310.428 239.753H306.02V245.968H310.428V239.753Z" fill="#D1D3D4" stroke="white" stroke-width="0.419643"/>
        <path d="M303.778 239.753H299.369V245.968H303.778V239.753Z" fill="#D1D3D4" stroke="white" stroke-width="0.419643"/>
        <path d="M296.993 239.753H292.584V245.968H296.993V239.753Z" fill="#D1D3D4" stroke="white" stroke-width="0.419643"/>
        <path d="M290.207 239.753H285.799V245.968H290.207V239.753Z" fill="#D1D3D4" stroke="white" stroke-width="0.419643"/>
        <path d="M283.28 239.753H278.871V245.968H283.28V239.753Z" fill="#D1D3D4" stroke="white" stroke-width="0.419643"/>
        <path d="M276.352 239.753H271.943V245.968H276.352V239.753Z" fill="#D1D3D4" stroke="white" stroke-width="0.419643"/>
        <path d="M269.769 239.753H265.36V245.968H269.769V239.753Z" fill="#D1D3D4" stroke="white" stroke-width="0.419643"/>
        <path d="M262.984 239.753H258.575V245.968H262.984V239.753Z" fill="#D1D3D4" stroke="white" stroke-width="0.419643"/>
        <path d="M255.99 239.753H251.581V245.968H255.99V239.753Z" fill="#D1D3D4" stroke="white" stroke-width="0.419643"/>
        <path d="M248.918 239.753H244.51V245.968H248.918V239.753Z" fill="#D1D3D4" stroke="white" stroke-width="0.419643"/>
        <path d="M242.343 239.753H237.935V245.968H242.343V239.753Z" fill="#D1D3D4" stroke="white" stroke-width="0.419643"/>
        <path d="M235.416 239.753H231.008V245.968H235.416V239.753Z" fill="#D1D3D4" stroke="white" stroke-width="0.419643"/>
        <path d="M228.555 239.753H224.146V245.968H228.555V239.753Z" fill="#D1D3D4" stroke="white" stroke-width="0.419643"/>
        <path d="M221.77 239.753H217.361V245.968H221.77V239.753Z" fill="#D1D3D4" stroke="white" stroke-width="0.419643"/>
        <path d="M214.7 239.753H210.291V245.968H214.7V239.753Z" fill="#D1D3D4" stroke="white" stroke-width="0.419643"/>
        <path d="M208.049 239.753H203.641V245.968H208.049V239.753Z" fill="#D1D3D4" stroke="white" stroke-width="0.419643"/>
        <path d="M201.264 239.753H196.855V245.968H201.264V239.753Z" fill="#D1D3D4" stroke="white" stroke-width="0.419643"/>
        <path d="M194.48 239.753H190.071V245.968H194.48V239.753Z" fill="#D1D3D4" stroke="white" stroke-width="0.419643"/>
        <path d="M187.552 239.753H183.144V245.968H187.552V239.753Z" fill="#D1D3D4" stroke="white" stroke-width="0.419643"/>
        <path d="M180.624 239.753H176.216V245.968H180.624V239.753Z" fill="#D1D3D4" stroke="white" stroke-width="0.419643"/>
        <path d="M174.04 239.753H169.632V245.968H174.04V239.753Z" fill="#D1D3D4" stroke="white" stroke-width="0.419643"/>
        <path d="M167.255 239.753H162.847V245.968H167.255V239.753Z" fill="#D1D3D4" stroke="white" stroke-width="0.419643"/>
        <path d="M160.261 239.753H155.853V245.968H160.261V239.753Z" fill="#D1D3D4" stroke="white" stroke-width="0.419643"/>
        <path d="M152.207 239.753H147.799V245.968H152.207V239.753Z" fill="#D1D3D4" stroke="white" stroke-width="0.419643"/>
        <path d="M145.633 239.753H141.225V245.968H145.633V239.753Z" fill="#D1D3D4" stroke="white" stroke-width="0.419643"/>
        <path d="M138.705 239.753H134.297V245.968H138.705V239.753Z" fill="#D1D3D4" stroke="white" stroke-width="0.419643"/>
        <path d="M131.844 239.753H127.436V245.968H131.844V239.753Z" fill="#D1D3D4" stroke="white" stroke-width="0.419643"/>
        <path d="M125.06 239.753H120.651V245.968H125.06V239.753Z" fill="#D1D3D4" stroke="white" stroke-width="0.419643"/>
        <path d="M117.99 239.753H113.581V245.968H117.99V239.753Z" fill="#D1D3D4" stroke="white" stroke-width="0.419643"/>
        <path d="M111.347 239.753H106.938V245.968H111.347V239.753Z" fill="#D1D3D4" stroke="white" stroke-width="0.419643"/>
        <path d="M104.554 239.753H100.146V245.968H104.554V239.753Z" fill="#D1D3D4" stroke="white" stroke-width="0.419643"/>
        <path d="M97.7689 239.753H93.3604V245.968H97.7689V239.753Z" fill="#D1D3D4" stroke="white" stroke-width="0.419643"/>
        <path d="M90.8411 239.753H86.4326V245.968H90.8411V239.753Z" fill="#D1D3D4" stroke="white" stroke-width="0.419643"/>
        <path d="M83.9134 239.753H79.5049V245.968H83.9134V239.753Z" fill="#D1D3D4" stroke="white" stroke-width="0.419643"/>
        <path d="M344.647 191.459H340.238V197.674H344.647V191.459Z" fill="#D1D3D4" stroke="white" stroke-width="0.419643"/>
        <path d="M338.072 191.459H333.663V197.674H338.072V191.459Z" fill="#D1D3D4" stroke="white" stroke-width="0.419643"/>
        <path d="M331.144 191.459H326.735V197.674H331.144V191.459Z" fill="#D1D3D4" stroke="white" stroke-width="0.419643"/>
        <path d="M324.284 191.459H319.875V197.674H324.284V191.459Z" fill="#D1D3D4" stroke="white" stroke-width="0.419643"/>
        <path d="M317.498 191.459H313.09V197.674H317.498V191.459Z" fill="#D1D3D4" stroke="white" stroke-width="0.419643"/>
        <path d="M310.428 191.459H306.02V197.674H310.428V191.459Z" fill="#D1D3D4" stroke="white" stroke-width="0.419643"/>
        <path d="M303.778 191.459H299.369V197.674H303.778V191.459Z" fill="#D1D3D4" stroke="white" stroke-width="0.419643"/>
        <path d="M296.993 191.459H292.584V197.674H296.993V191.459Z" fill="#D1D3D4" stroke="white" stroke-width="0.419643"/>
        <path d="M290.207 191.459H285.799V197.674H290.207V191.459Z" fill="#D1D3D4" stroke="white" stroke-width="0.419643"/>
        <path d="M283.28 191.459H278.871V197.674H283.28V191.459Z" fill="#D1D3D4" stroke="white" stroke-width="0.419643"/>
        <path d="M276.352 191.459H271.943V197.674H276.352V191.459Z" fill="#D1D3D4" stroke="white" stroke-width="0.419643"/>
        <path d="M269.769 191.459H265.36V197.674H269.769V191.459Z" fill="#D1D3D4" stroke="white" stroke-width="0.419643"/>
        <path d="M262.984 191.459H258.575V197.674H262.984V191.459Z" fill="#D1D3D4" stroke="white" stroke-width="0.419643"/>
        <path d="M255.99 191.459H251.581V197.674H255.99V191.459Z" fill="#D1D3D4" stroke="white" stroke-width="0.419643"/>
        <path d="M248.918 191.459H244.51V197.674H248.918V191.459Z" fill="#D1D3D4" stroke="white" stroke-width="0.419643"/>
        <path d="M242.343 191.459H237.935V197.674H242.343V191.459Z" fill="#D1D3D4" stroke="white" stroke-width="0.419643"/>
        <path d="M235.416 191.459H231.008V197.674H235.416V191.459Z" fill="#D1D3D4" stroke="white" stroke-width="0.419643"/>
        <path d="M228.555 191.459H224.146V197.674H228.555V191.459Z" fill="#D1D3D4" stroke="white" stroke-width="0.419643"/>
        <path d="M221.77 191.459H217.361V197.674H221.77V191.459Z" fill="#D1D3D4" stroke="white" stroke-width="0.419643"/>
        <path d="M214.7 191.459H210.291V197.674H214.7V191.459Z" fill="#D1D3D4" stroke="white" stroke-width="0.419643"/>
        <path d="M208.049 191.459H203.641V197.674H208.049V191.459Z" fill="#D1D3D4" stroke="white" stroke-width="0.419643"/>
        <path d="M201.264 191.459H196.855V197.674H201.264V191.459Z" fill="#D1D3D4" stroke="white" stroke-width="0.419643"/>
        <path d="M194.48 191.459H190.071V197.674H194.48V191.459Z" fill="#D1D3D4" stroke="white" stroke-width="0.419643"/>
        <path d="M187.552 191.459H183.144V197.674H187.552V191.459Z" fill="#D1D3D4" stroke="white" stroke-width="0.419643"/>
        <path d="M180.624 191.459H176.216V197.674H180.624V191.459Z" fill="#D1D3D4" stroke="white" stroke-width="0.419643"/>
        <path d="M174.04 191.459H169.632V197.674H174.04V191.459Z" fill="#D1D3D4" stroke="white" stroke-width="0.419643"/>
        <path d="M167.255 191.459H162.847V197.674H167.255V191.459Z" fill="#D1D3D4" stroke="white" stroke-width="0.419643"/>
        <path d="M160.261 191.459H155.853V197.674H160.261V191.459Z" fill="#D1D3D4" stroke="white" stroke-width="0.419643"/>
        <path d="M152.207 191.459H147.799V197.674H152.207V191.459Z" fill="#D1D3D4" stroke="white" stroke-width="0.419643"/>
        <path d="M145.633 191.459H141.225V197.674H145.633V191.459Z" fill="#D1D3D4" stroke="white" stroke-width="0.419643"/>
        <path d="M138.705 191.459H134.297V197.674H138.705V191.459Z" fill="#D1D3D4" stroke="white" stroke-width="0.419643"/>
        <path d="M131.844 191.459H127.436V197.674H131.844V191.459Z" fill="#D1D3D4" stroke="white" stroke-width="0.419643"/>
        <path d="M125.06 191.459H120.651V197.674H125.06V191.459Z" fill="#D1D3D4" stroke="white" stroke-width="0.419643"/>
        <path d="M117.99 191.459H113.581V197.674H117.99V191.459Z" fill="#D1D3D4" stroke="white" stroke-width="0.419643"/>
        <path d="M111.347 191.459H106.938V197.674H111.347V191.459Z" fill="#D1D3D4" stroke="white" stroke-width="0.419643"/>
        <path d="M104.554 191.459H100.146V197.674H104.554V191.459Z" fill="#D1D3D4" stroke="white" stroke-width="0.419643"/>
        <path d="M97.7689 191.459H93.3604V197.674H97.7689V191.459Z" fill="#D1D3D4" stroke="white" stroke-width="0.419643"/>
        <path d="M90.8411 191.459H86.4326V197.674H90.8411V191.459Z" fill="#D1D3D4" stroke="white" stroke-width="0.419643"/>
        <path d="M83.9144 191.459H79.5059V197.674H83.9144V191.459Z" fill="#D1D3D4" stroke="white" stroke-width="0.419643"/>
        <path d="M402.31 234.25C392.883 237.075 383.217 239.038 373.432 240.113C356.419 242.006 331.967 242.308 331.79 242.316L125.824 242.065C106.561 242.065 91.8655 242.065 85.6096 242.065C58.0751 242.065 48.116 239.334 46.9824 238.991V218.889V198.788C48.1496 198.444 58.1087 195.714 85.6096 195.714H128.838L331.79 195.463C331.984 195.463 356.428 195.773 373.432 197.666C383.163 198.753 392.775 200.715 402.151 203.529L402.31 234.25Z" fill="#A2B669"/>
        <path d="M132.063 238.095L130.921 222.374L132.063 209.718L135.195 203.302L139.226 195.295L248.297 195.731H299.36L295.414 201.912L292.785 208.261L289.351 220.422L288.94 231.361L290.737 242.224H132.827L132.063 238.095Z" fill="#FFDE95"/>
        <path d="M138.387 213.42C138.387 214.375 138.387 215.673 139.596 216.05C140.805 216.427 146.692 211.862 156.39 209.408C166.089 206.954 170.951 207.859 170.951 207.859C170.951 207.859 173.974 208.805 174.587 207.683C175.2 206.56 175.805 202.272 175.805 202.272L166.19 198.361H151.167L142.115 203.579L138.387 213.42Z" fill="#DBC082" stroke="#231F20" stroke-width="0.29375"/>
        <path d="M152.007 210.572L148.556 201.158" stroke="#231F20" stroke-width="0.29375"/>
        <path d="M161.713 208.043L160.538 199.483" stroke="#231F20" stroke-width="0.29375"/>
        <path d="M140.628 196.133C140.628 196.133 136.085 199.483 133.793 206.887C132.593 210.801 131.75 214.816 131.274 218.881C131.248 219.096 131.277 219.314 131.357 219.514C131.438 219.715 131.568 219.892 131.735 220.03C131.902 220.168 132.101 220.261 132.314 220.302C132.527 220.343 132.747 220.329 132.953 220.263L137.437 218.797C137.653 218.723 137.845 218.592 137.993 218.418C138.14 218.244 138.239 218.034 138.277 217.809C138.747 215.296 140.351 207.281 141.686 206.184C145.767 202.758 161.084 198.788 166.878 199.651L167.096 199.692C169.616 200.446 173.907 205.12 175.687 207.172C175.808 207.311 175.958 207.422 176.126 207.498C176.294 207.574 176.476 207.613 176.661 207.613C176.845 207.613 177.028 207.574 177.196 207.498C177.364 207.422 177.513 207.311 177.635 207.172C178.794 205.84 180.423 201.703 180.423 195.446" fill="#DBC082"/>
        <path d="M140.628 196.133C140.628 196.133 136.085 199.483 133.793 206.887C132.593 210.801 131.75 214.816 131.274 218.881C131.248 219.096 131.277 219.314 131.357 219.514C131.438 219.715 131.568 219.892 131.735 220.03C131.902 220.168 132.101 220.261 132.314 220.302C132.527 220.343 132.747 220.329 132.953 220.263L137.437 218.797C137.653 218.723 137.845 218.592 137.993 218.418C138.14 218.244 138.239 218.034 138.277 217.809C138.747 215.296 140.351 207.281 141.686 206.184C145.767 202.758 161.084 198.788 166.878 199.651L167.096 199.692C169.616 200.446 173.907 205.12 175.687 207.172C175.808 207.311 175.958 207.422 176.126 207.498C176.294 207.574 176.476 207.613 176.661 207.613C176.845 207.613 177.028 207.574 177.196 207.498C177.364 207.422 177.513 207.311 177.635 207.172C178.794 205.84 180.423 201.703 180.423 195.446" stroke="#231F20" stroke-width="0.29375"/>
        <path d="M192.776 242.107C190.592 235.917 188.627 231.352 191.524 231.352C192.599 231.352 192.776 232.098 192.776 232.098C192.776 232.098 204.96 241.043 219.185 241.043C233.41 241.043 241.143 232.667 257.065 232.667C257.316 232.801 258.82 233.178 258.82 233.178L256.695 242.559H192.918L192.776 242.107Z" fill="#DBC082" stroke="#231F20" stroke-width="0.29375"/>
        <path d="M147.053 238.547C149.979 238.547 152.351 236.181 152.351 233.262C152.351 230.343 149.979 227.977 147.053 227.977C144.126 227.977 141.754 230.343 141.754 233.262C141.754 236.181 144.126 238.547 147.053 238.547Z" fill="#DBC082" stroke="#231F20" stroke-width="0.29375"/>
        <path d="M142.174 229.401C142.302 229.403 142.428 229.43 142.546 229.481C142.663 229.532 142.769 229.606 142.858 229.697C142.947 229.789 143.017 229.897 143.064 230.016C143.111 230.135 143.134 230.262 143.131 230.389V236.127C143.134 236.254 143.111 236.381 143.064 236.5C143.017 236.618 142.947 236.727 142.858 236.819C142.769 236.91 142.663 236.984 142.546 237.035C142.428 237.085 142.302 237.113 142.174 237.115C142.046 237.113 141.92 237.085 141.803 237.035C141.685 236.984 141.579 236.91 141.49 236.819C141.401 236.727 141.332 236.618 141.285 236.5C141.238 236.381 141.215 236.254 141.217 236.127V230.389C141.215 230.262 141.238 230.135 141.285 230.016C141.332 229.897 141.401 229.789 141.49 229.697C141.579 229.606 141.685 229.532 141.803 229.481C141.92 229.43 142.046 229.403 142.174 229.401Z" fill="#DBC082" stroke="#231F20" stroke-width="0.29375"/>
        <path d="M143.987 229.92C144.21 229.92 144.423 230.008 144.581 230.166C144.738 230.323 144.827 230.536 144.827 230.758V235.725C144.827 235.947 144.738 236.16 144.581 236.317C144.423 236.474 144.21 236.562 143.987 236.562C143.764 236.562 143.551 236.474 143.393 236.317C143.236 236.16 143.147 235.947 143.147 235.725V230.758C143.147 230.536 143.236 230.323 143.393 230.166C143.551 230.008 143.764 229.92 143.987 229.92Z" fill="#DBC082" stroke="#231F20" stroke-width="0.29375"/>
        <path d="M147.153 236.621C146.269 235.729 145.773 234.525 145.773 233.27C145.773 232.016 146.269 230.812 147.153 229.92" stroke="#231F20" stroke-width="0.29375"/>
        <path d="M143.962 229.92H151.116" stroke="#231F20" stroke-width="0.29375"/>
        <path d="M143.962 236.604H151.116" stroke="#231F20" stroke-width="0.29375"/>
        <path d="M175.905 235.097C176.906 232.354 175.488 229.322 172.738 228.323C169.988 227.325 166.948 228.739 165.947 231.482C164.946 234.225 166.364 237.258 169.114 238.256C171.864 239.254 174.904 237.84 175.905 235.097Z" fill="#DBC082" stroke="#231F20" stroke-width="0.29375"/>
        <path d="M175.796 237.115C175.668 237.113 175.542 237.085 175.425 237.035C175.307 236.984 175.201 236.91 175.112 236.819C175.024 236.727 174.954 236.618 174.907 236.5C174.86 236.381 174.837 236.254 174.839 236.127V230.389C174.837 230.262 174.86 230.135 174.907 230.016C174.954 229.897 175.024 229.789 175.112 229.697C175.201 229.606 175.307 229.532 175.425 229.481C175.542 229.43 175.668 229.403 175.796 229.401C175.924 229.403 176.05 229.43 176.168 229.481C176.285 229.532 176.391 229.606 176.48 229.697C176.569 229.789 176.639 229.897 176.686 230.016C176.733 230.135 176.756 230.262 176.754 230.389V236.127C176.756 236.254 176.733 236.381 176.686 236.5C176.639 236.618 176.569 236.727 176.48 236.819C176.391 236.91 176.285 236.984 176.168 237.035C176.05 237.085 175.924 237.113 175.796 237.115Z" fill="#DBC082" stroke="#231F20" stroke-width="0.29375"/>
        <path d="M173.982 236.596C173.76 236.596 173.546 236.507 173.389 236.35C173.231 236.193 173.143 235.98 173.143 235.758V230.791C173.143 230.569 173.231 230.356 173.389 230.199C173.546 230.042 173.76 229.954 173.982 229.954C174.205 229.954 174.419 230.042 174.576 230.199C174.734 230.356 174.822 230.569 174.822 230.791V235.758C174.822 235.98 174.734 236.193 174.576 236.35C174.419 236.507 174.205 236.596 173.982 236.596Z" fill="#DBC082" stroke="#231F20" stroke-width="0.29375"/>
        <path d="M170.816 229.895C171.704 230.785 172.202 231.99 172.202 233.245C172.202 234.501 171.704 235.706 170.816 236.596" stroke="#231F20" stroke-width="0.29375"/>
        <path d="M174.008 236.604H166.854" stroke="#231F20" stroke-width="0.29375"/>
        <path d="M174.008 229.92H166.854" stroke="#231F20" stroke-width="0.29375"/>
        <path d="M215.719 226.769C216.659 224.005 215.175 221.004 212.404 220.066C209.633 219.128 206.624 220.608 205.684 223.372C204.743 226.136 206.227 229.137 208.998 230.075C211.769 231.013 214.778 229.533 215.719 226.769Z" fill="#DBC082" stroke="#231F20" stroke-width="0.29375"/>
        <path d="M206.832 229.92C206.834 229.793 206.862 229.667 206.913 229.55C206.964 229.433 207.037 229.327 207.129 229.238C207.221 229.149 207.33 229.08 207.449 229.033C207.568 228.986 207.695 228.963 207.823 228.965H213.575C213.703 228.963 213.83 228.986 213.949 229.033C214.068 229.08 214.177 229.149 214.269 229.238C214.361 229.327 214.434 229.433 214.485 229.55C214.536 229.667 214.564 229.793 214.566 229.92C214.564 230.048 214.536 230.174 214.485 230.291C214.434 230.408 214.361 230.514 214.269 230.602C214.177 230.691 214.068 230.761 213.949 230.808C213.83 230.854 213.703 230.877 213.575 230.875H207.823C207.695 230.877 207.568 230.854 207.449 230.808C207.33 230.761 207.221 230.691 207.129 230.602C207.037 230.514 206.964 230.408 206.913 230.291C206.862 230.174 206.834 230.048 206.832 229.92Z" fill="#DBC082" stroke="#231F20" stroke-width="0.29375"/>
        <path d="M207.345 228.111C207.345 227.889 207.433 227.676 207.591 227.519C207.748 227.362 207.962 227.274 208.184 227.274H213.172C213.395 227.274 213.609 227.362 213.766 227.519C213.924 227.676 214.012 227.889 214.012 228.111C214.012 228.333 213.924 228.546 213.766 228.703C213.609 228.86 213.395 228.948 213.172 228.948H208.184C207.962 228.948 207.748 228.86 207.591 228.703C207.433 228.546 207.345 228.333 207.345 228.111Z" fill="#DBC082" stroke="#231F20" stroke-width="0.29375"/>
        <path d="M214.062 224.953C213.169 225.837 211.962 226.333 210.704 226.333C209.445 226.333 208.238 225.837 207.345 224.953" stroke="#231F20" stroke-width="0.29375"/>
        <path d="M207.345 228.136V221" stroke="#231F20" stroke-width="0.29375"/>
        <path d="M214.045 228.136V221" stroke="#231F20" stroke-width="0.29375"/>
        <path d="M230.589 227.933C231.529 225.17 230.045 222.168 227.274 221.23C224.503 220.292 221.494 221.772 220.554 224.536C219.613 227.3 221.097 230.301 223.868 231.239C226.639 232.177 229.648 230.697 230.589 227.933Z" fill="#DBC082" stroke="#231F20" stroke-width="0.29375"/>
        <path d="M221.695 231.093C221.7 230.834 221.806 230.588 221.992 230.408C222.178 230.227 222.427 230.127 222.686 230.13H228.438C228.697 230.127 228.947 230.227 229.132 230.408C229.318 230.588 229.425 230.834 229.429 231.093C229.425 231.351 229.318 231.597 229.132 231.778C228.947 231.958 228.697 232.058 228.438 232.056H222.686C222.427 232.058 222.178 231.958 221.992 231.778C221.806 231.597 221.7 231.351 221.695 231.093Z" fill="#DBC082" stroke="#231F20" stroke-width="0.29375"/>
        <path d="M222.216 229.275C222.216 229.053 222.304 228.84 222.462 228.683C222.619 228.526 222.833 228.438 223.056 228.438H228.035C228.258 228.438 228.471 228.526 228.629 228.683C228.786 228.84 228.875 229.053 228.875 229.275C228.875 229.497 228.786 229.71 228.629 229.867C228.471 230.024 228.258 230.112 228.035 230.112H223.056C222.833 230.112 222.619 230.024 222.462 229.867C222.304 229.71 222.216 229.497 222.216 229.275Z" fill="#DBC082" stroke="#231F20" stroke-width="0.29375"/>
        <path d="M228.934 226.118C228.041 227.004 226.834 227.501 225.575 227.501C224.316 227.501 223.108 227.004 222.216 226.118" stroke="#231F20" stroke-width="0.29375"/>
        <path d="M222.208 229.3V222.173" stroke="#231F20" stroke-width="0.29375"/>
        <path d="M228.908 229.3V222.173" stroke="#231F20" stroke-width="0.29375"/>
        <path d="M244.989 219.911C245.884 217.132 244.35 214.156 241.564 213.263C238.778 212.371 235.794 213.901 234.899 216.68C234.004 219.459 235.538 222.435 238.324 223.327C241.111 224.22 244.095 222.69 244.989 219.911Z" fill="#DBC082" stroke="#231F20" stroke-width="0.29375"/>
        <path d="M244.847 222.164C244.718 222.163 244.591 222.137 244.473 222.086C244.354 222.036 244.247 221.963 244.157 221.871C244.068 221.779 243.997 221.67 243.95 221.551C243.902 221.432 243.879 221.304 243.881 221.176V215.464C243.879 215.336 243.902 215.208 243.95 215.089C243.997 214.97 244.068 214.861 244.157 214.769C244.247 214.677 244.354 214.604 244.473 214.553C244.591 214.503 244.718 214.477 244.847 214.476C244.975 214.478 245.101 214.505 245.218 214.556C245.336 214.607 245.442 214.68 245.531 214.772C245.62 214.864 245.689 214.972 245.736 215.091C245.783 215.209 245.806 215.336 245.804 215.464V221.201C245.806 221.329 245.783 221.456 245.736 221.574C245.689 221.693 245.62 221.801 245.531 221.893C245.442 221.985 245.336 222.058 245.218 222.109C245.101 222.16 244.975 222.187 244.847 222.189V222.164Z" fill="#DBC082" stroke="#231F20" stroke-width="0.29375"/>
        <path d="M243.024 221.645C242.802 221.645 242.588 221.557 242.431 221.4C242.273 221.243 242.185 221.03 242.185 220.807V215.841C242.185 215.619 242.273 215.406 242.431 215.248C242.588 215.091 242.802 215.003 243.024 215.003C243.247 215.003 243.461 215.091 243.618 215.248C243.776 215.406 243.864 215.619 243.864 215.841V220.807C243.864 221.03 243.776 221.243 243.618 221.4C243.461 221.557 243.247 221.645 243.024 221.645Z" fill="#DBC082" stroke="#231F20" stroke-width="0.29375"/>
        <path d="M239.858 214.945C240.748 215.833 241.248 217.038 241.248 218.295C241.248 219.551 240.748 220.756 239.858 221.645" stroke="#231F20" stroke-width="0.29375"/>
        <path d="M243.05 221.653H235.896" stroke="#231F20" stroke-width="0.29375"/>
        <path d="M243.05 214.97H235.896" stroke="#231F20" stroke-width="0.29375"/>
        <path d="M196.21 207.641C196.493 207.568 196.794 207.607 197.049 207.75C197.598 207.96 198.198 208.001 198.771 207.867C199.872 207.745 200.983 207.731 202.088 207.825C202.236 207.835 202.382 207.876 202.514 207.944C202.646 208.013 202.763 208.108 202.857 208.223C202.95 208.339 203.019 208.473 203.059 208.616C203.099 208.759 203.108 208.909 203.087 209.056C202.88 210.572 202.767 212.1 202.751 213.63C202.813 215.487 203.05 217.335 203.456 219.149C203.491 219.3 203.492 219.456 203.46 219.608C203.428 219.759 203.363 219.902 203.271 220.026C203.178 220.15 203.06 220.253 202.924 220.327C202.788 220.401 202.637 220.445 202.482 220.456C201.232 220.642 199.968 220.723 198.704 220.699C197.075 220.439 194.765 218.571 194.765 218.571C194.765 218.571 194.211 211.301 194.228 209.023C194.23 208.791 194.307 208.567 194.448 208.382C194.589 208.198 194.785 208.064 195.009 208.001L196.21 207.641Z" fill="#DBC082" stroke="#231F20" stroke-width="0.29375"/>
        <path d="M204.271 204.575C204.107 205.122 203.995 205.683 203.935 206.251C203.915 206.42 203.931 206.592 203.983 206.755C204.036 206.917 204.123 207.066 204.238 207.192C204.354 207.318 204.496 207.417 204.654 207.483C204.812 207.549 204.982 207.58 205.153 207.574C210.355 207.433 215.56 207.657 220.73 208.244C227.96 209.174 234.879 210.639 236.114 210.899C236.247 210.924 236.383 210.924 236.517 210.899L242.344 210.154C242.563 210.126 242.77 210.039 242.943 209.901C243.115 209.764 243.246 209.582 243.322 209.375C243.397 209.168 243.414 208.945 243.371 208.729C243.327 208.513 243.225 208.313 243.075 208.152L238.658 201.753C237.899 201.509 237.121 201.327 236.332 201.208L223.82 198.202H223.602L209.562 197.439C209.356 197.424 209.15 197.464 208.965 197.557L204.767 199.625C204.557 199.733 204.384 199.898 204.266 200.102C204.148 200.305 204.092 200.538 204.103 200.773L204.313 204.173C204.328 204.309 204.314 204.446 204.271 204.575Z" fill="#DBC082" stroke="#231F20" stroke-width="0.29375"/>
        <path d="M195.596 219.216C195.265 217.545 195.118 215.843 195.16 214.14C195.192 212.309 195.492 210.492 196.05 208.747C197.094 208.248 198.211 207.918 199.358 207.767C200.656 207.572 201.967 207.477 203.28 207.482C203.69 206.051 204.203 204.651 204.816 203.294C205.393 202.152 206.068 201.062 206.832 200.036C212.303 199.615 217.804 199.809 223.231 200.614C232.578 201.945 238.548 202.959 244.611 209.408C248.44 208.747 255.2 207.063 255.2 207.063L248.877 195.756H194.06C194.06 195.756 193.976 195.387 193.379 197.222C192.516 199.843 191.798 202.511 191.23 205.212C190.919 207.164 190.457 209.894 190.709 211.418C190.961 212.943 191.616 215.707 193.228 217.189C193.977 217.911 194.768 218.587 195.596 219.216Z" fill="#DBC082" stroke="#231F20" stroke-width="0.29375"/>
        <path d="M215.355 207.607L215.54 199.902" stroke="#231F20" stroke-width="0.29375"/>
        <path d="M225.978 208.998L227.136 201.2" stroke="#231F20" stroke-width="0.29375"/>
        <path d="M204.087 209.86C204.165 209.478 204.367 209.132 204.661 208.875C204.955 208.617 205.326 208.464 205.716 208.437C210.365 208.116 215.034 208.22 219.664 208.747C224.896 209.42 230.085 210.391 235.207 211.653C235.605 211.751 235.958 211.982 236.206 212.308C236.453 212.635 236.581 213.036 236.567 213.445C236.536 214.866 236.378 216.282 236.097 217.675C235.82 218.931 235.476 220.104 235.257 220.925C235.144 221.283 234.921 221.596 234.62 221.821C234.318 222.047 233.954 222.172 233.578 222.181C231.134 222.181 225.584 222.181 219.764 221.662C214.881 221.202 210.04 220.379 205.279 219.199C204.912 219.109 204.583 218.905 204.34 218.616C204.097 218.327 203.952 217.968 203.927 217.591C203.843 216.41 203.751 214.626 203.801 213.144C203.805 212.043 203.901 210.945 204.087 209.86Z" fill="#DBC082" stroke="#231F20" stroke-width="0.29375"/>
        <path d="M206.538 211.117C211.063 210.934 215.595 211.035 220.108 211.418C225.574 212.047 233.694 213.814 233.694 213.814L232.687 219.534C232.687 219.534 225.037 219.585 219.302 218.931C213.566 218.278 206.513 216.837 206.513 216.837L206.538 211.117Z" fill="#DBC082" stroke="#231F20" stroke-width="0.29375"/>
        <path d="M158.355 221.637C160.985 221.637 163.116 219.511 163.116 216.888C163.116 214.265 160.985 212.139 158.355 212.139C155.725 212.139 153.594 214.265 153.594 216.888C153.594 219.511 155.725 221.637 158.355 221.637Z" fill="#DBC082" stroke="#231F20" stroke-width="0.29375"/>
        <path d="M158.356 219.702C159.914 219.702 161.177 218.442 161.177 216.888C161.177 215.333 159.914 214.073 158.356 214.073C156.797 214.073 155.534 215.333 155.534 216.888C155.534 218.442 156.797 219.702 158.356 219.702Z" fill="#DBC082" stroke="#231F20" stroke-width="0.29375"/>
        <path d="M159.833 216.888C160.65 216.888 161.311 216.228 161.311 215.414C161.311 214.599 160.65 213.939 159.833 213.939C159.017 213.939 158.355 214.599 158.355 215.414C158.355 216.228 159.017 216.888 159.833 216.888Z" fill="#DBC082" stroke="#231F20" stroke-width="0.29375"/>
        <path d="M258.82 230.54C258.611 234.703 257.898 238.826 256.695 242.819" stroke="#231F20" stroke-width="1.84643"/>
        <path d="M255.931 210.572C255.981 210.707 256.023 210.841 256.073 210.967" stroke="#231F20" stroke-width="0.839286"/>
        <path d="M256.342 211.77C258.221 217.544 259.073 223.602 258.861 229.669" stroke="#231F20" stroke-width="0.839286" stroke-dasharray="0.85 0.85"/>
        <path d="M258.845 230.088V230.507" stroke="#231F20" stroke-width="0.839286"/>
        <path d="M258.895 207.088C261.221 211.913 262.666 211.351 266.302 209.961C269.938 208.571 278.175 208.386 282.013 209.726C285.85 211.067 287.672 211.125 289.352 208.52C291.031 205.916 290.519 201.996 290.519 201.996L285.103 199.625L275.732 198.914L264.345 199.115L258.324 201.585L257.904 206.008L258.895 207.088Z" fill="#DBC082" stroke="#231F20" stroke-width="0.29375"/>
        <path d="M258.895 207.088L259.928 208.973C261.59 206.75 263.762 204.956 266.261 203.743C268.761 202.529 271.516 201.93 274.295 201.996C277.123 201.959 279.92 202.581 282.464 203.813C285.008 205.044 287.228 206.851 288.948 209.09C289.368 208.277 289.736 207.437 290.048 206.577C290.365 204.97 290.548 203.34 290.594 201.703L282.499 198.034H274.001L263.925 198.218L258.886 199.567L256.787 202.9L256.972 206.251L258.895 207.088Z" fill="#DBC082" stroke="#231F20" stroke-width="0.29375"/>
        <path d="M291.904 210.572C291.854 210.707 291.804 210.833 291.762 210.967" stroke="#231F20" stroke-width="0.839286"/>
        <path d="M291.51 211.712C290.742 214.065 290.141 216.469 289.713 218.906" stroke="#231F20" stroke-width="0.839286" stroke-dasharray="0.78 0.78"/>
        <path d="M289.654 219.283C289.654 219.426 289.604 219.56 289.587 219.703" stroke="#231F20" stroke-width="0.839286"/>
        <path d="M259.248 232.86H261.767C263.632 232.86 264.564 233.354 264.564 234.904V241.043H284.347V235.18C284.347 233.254 285.649 232.885 286.463 232.885H289.218L290.503 242.576H257.409L258.249 237.726L259.248 232.86Z" fill="#DBC082" stroke="#231F20" stroke-width="0.29375"/>
        <path d="M264.437 234.175L268.636 234.602L270.131 236.093H278.839L280.392 234.535L284.599 233.84L285.052 241.856L263.22 241.487L264.437 234.175Z" stroke="#231F20" stroke-width="0.29375"/>
        <path d="M265.696 237.316C270.541 239.509 278.41 239.509 283.255 237.316" stroke="#231F20" stroke-width="0.830893"/>
        <path d="M266.587 213.998C269.077 213.504 271.606 213.224 274.144 213.161C276.78 213.232 279.405 213.512 281.996 213.998L281.156 218.303H267.519L266.587 213.998Z" fill="#DBC082" stroke="#231F20" stroke-width="0.29375"/>
        <path d="M256.417 208.252H257.257C257.495 208.254 257.73 208.205 257.948 208.109C258.165 208.013 258.36 207.872 258.518 207.696C258.677 207.519 258.797 207.311 258.869 207.085C258.941 206.859 258.964 206.62 258.936 206.385L258.676 204.274C258.639 203.936 258.706 203.595 258.868 203.295C259.03 202.996 259.279 202.753 259.583 202.599C264.228 200.518 269.264 199.448 274.356 199.458C279.448 199.468 284.479 200.559 289.116 202.657C289.39 202.799 289.619 203.013 289.779 203.276C289.939 203.539 290.024 203.841 290.023 204.148V206.602C290.023 207.047 290.2 207.473 290.515 207.787C290.83 208.101 291.257 208.278 291.702 208.278C292.02 208.276 292.33 208.184 292.598 208.014C292.865 207.844 293.079 207.601 293.214 207.314L294.893 203.688L294.969 203.545L297.354 199.525C297.377 199.483 297.405 199.443 297.438 199.408L299.663 196.284L299.873 195.488L251.455 195.748C251.173 195.748 250.896 195.82 250.649 195.955C250.402 196.09 250.194 196.285 250.042 196.522C249.891 196.759 249.802 197.03 249.783 197.311C249.764 197.591 249.816 197.871 249.935 198.126L253.092 204.961C253.14 205.069 253.202 205.17 253.277 205.262L255.032 207.607C255.195 207.817 255.406 207.984 255.647 208.096C255.887 208.208 256.152 208.262 256.417 208.252Z" fill="#DBC082" stroke="#231F20" stroke-width="0.29375"/>
        <path d="M247.71 195.722C251.253 200.186 254.031 205.204 255.931 210.572" stroke="#231F20" stroke-width="1.84643"/>
        <path d="M261.699 201.661C261.699 201.661 262.127 197.406 274.052 197.406C285.976 197.406 286.899 201.661 286.899 201.661C286.899 201.661 286.95 202.197 286.437 201.987C285.925 201.778 281.894 199.475 274.295 199.475C266.696 199.475 262.539 201.987 262.539 201.987C261.775 202.23 261.699 201.661 261.699 201.661Z" fill="#DBC082" stroke="#231F20" stroke-width="0.29375"/>
        <path d="M268.652 209.283L265.696 198.503" stroke="#231F20" stroke-width="0.29375"/>
        <path d="M280.072 209.048L282.911 198.503" stroke="#231F20" stroke-width="0.29375"/>
        <path d="M274.295 208.654V197.406" stroke="#231F20" stroke-width="0.29375"/>
        <path d="M46.9494 225.598V197.808C46.9494 197.808 55.3466 195.295 77.087 195.295H138.756C138.756 195.295 136.9 199.399 135.498 202.473C134.096 205.547 132.76 210.438 132.181 212.013C131.602 213.588 130.502 222.734 130.502 222.734L131.089 223.571L131.98 237.023L132.164 239.963L106.368 240.742L72.3006 242.785L46.8906 240.524L46.9494 225.598Z" fill="#F0AE77"/>
        <path d="M56.8919 202.733H50.0229C49.6009 202.733 49.2588 203.074 49.2588 203.495V207.733C49.2588 208.154 49.6009 208.495 50.0229 208.495H56.8919C57.3139 208.495 57.656 208.154 57.656 207.733V203.495C57.656 203.074 57.3139 202.733 56.8919 202.733Z" fill="#D7915D" stroke="#231F20" stroke-width="0.226607"/>
        <path d="M49.3087 202.549C49.512 202.553 49.7054 202.637 49.8468 202.783C49.9883 202.929 50.0663 203.125 50.0641 203.328V207.867C50.0663 207.968 50.0485 208.069 50.0118 208.163C49.975 208.258 49.92 208.344 49.8498 208.417C49.7797 208.49 49.6958 208.549 49.603 208.589C49.5101 208.63 49.4101 208.652 49.3087 208.654C49.1032 208.65 48.9077 208.565 48.7647 208.417C48.6216 208.27 48.5427 208.072 48.545 207.867V203.328C48.5439 203.226 48.5627 203.126 48.6005 203.032C48.6383 202.938 48.6943 202.852 48.7652 202.78C48.8361 202.708 48.9206 202.65 49.0139 202.61C49.1071 202.571 49.2073 202.55 49.3087 202.549Z" fill="#D7915D" stroke="#231F20" stroke-width="0.226607"/>
        <path d="M56.8919 208.671H50.0229C49.6009 208.671 49.2588 209.012 49.2588 209.433V213.671C49.2588 214.092 49.6009 214.434 50.0229 214.434H56.8919C57.3139 214.434 57.656 214.092 57.656 213.671V209.433C57.656 209.012 57.3139 208.671 56.8919 208.671Z" fill="#D7915D" stroke="#231F20" stroke-width="0.226607"/>
        <path d="M49.3087 208.487C49.512 208.491 49.7054 208.576 49.8468 208.721C49.9883 208.867 50.0663 209.063 50.0641 209.266V213.789C50.0663 213.992 49.9883 214.187 49.8468 214.333C49.7054 214.479 49.512 214.563 49.3087 214.568C49.2073 214.567 49.1071 214.546 49.0139 214.506C48.9206 214.466 48.8361 214.408 48.7652 214.336C48.6943 214.264 48.6383 214.178 48.6005 214.084C48.5627 213.99 48.5439 213.89 48.545 213.789V209.266C48.5439 209.165 48.5627 209.064 48.6005 208.97C48.6383 208.876 48.6943 208.791 48.7652 208.718C48.8361 208.646 48.9206 208.588 49.0139 208.549C49.1071 208.509 49.2073 208.488 49.3087 208.487Z" fill="#D7915D" stroke="#231F20" stroke-width="0.226607"/>
        <path d="M118.653 225.515C122.738 224.619 126.716 223.291 130.519 221.553" stroke="#231F20" stroke-width="0.839286"/>
        <path d="M72.9473 212.013C79.01 212.013 85.0141 216.611 92.1601 220.606C95.5899 222.609 99.2571 224.176 103.076 225.272" stroke="#231F20" stroke-width="0.839286"/>
        <path d="M47.6963 218.462L54.3553 218.714C57.4555 216.284 60.9762 214.441 64.7426 213.278" stroke="#231F20" stroke-width="0.839286"/>
        <path d="M73.165 196.97V212.013" stroke="#231F20" stroke-width="0.839286"/>
        <path d="M85.7617 196.853V216.921" stroke="#231F20" stroke-width="0.839286"/>
        <path d="M73.5346 199.207L82.7715 199.022V204.802C82.2617 205.119 81.843 205.563 81.5561 206.09C81.2692 206.617 81.1238 207.209 81.134 207.808C81.1083 208.391 81.2176 208.971 81.4536 209.504C81.6895 210.037 82.0457 210.509 82.4944 210.882V215.07L85.3914 216.595V196.392L73.459 196.686L73.5346 199.207Z" fill="#D7915D" stroke="#231F20" stroke-width="0.226607"/>
        <path d="M79.0186 207.733C78.0445 207.733 76.6505 205.932 76.6505 204.492C76.6199 203.991 76.6903 203.489 76.8576 203.015C77.0249 202.542 77.2857 202.107 77.6246 201.736H80.4041C80.743 202.107 81.0038 202.542 81.1711 203.015C81.3384 203.489 81.4088 203.991 81.3782 204.492C81.3782 205.932 79.9926 207.733 79.0186 207.733Z" fill="#D7915D" stroke="#231F20" stroke-width="0.318929"/>
        <path d="M80.3535 200.597H77.6328V201.535H80.3535V200.597Z" fill="#D7915D" stroke="#231F20" stroke-width="0.318929"/>
        <path d="M46.9492 239.368V225.598H53.667C55.8083 225.598 58.7473 228.111 58.7473 231.017C58.7473 233.924 59.0664 240.926 59.0664 240.926L46.9492 239.368Z" fill="#D7915D" stroke="#231F20" stroke-width="0.226607"/>
        <path d="M58.4701 238.329L47.4697 227.357L47.6713 227.156L58.6716 238.128L58.4701 238.329Z" fill="#231F20"/>
        <path d="M47.9896 232.91L47.7881 232.718L53.0615 227.458L53.2631 227.659L47.9896 232.91Z" fill="#231F20"/>
        <path d="M48.6781 233.605L48.4766 233.404L53.75 228.145L53.9515 228.346L48.6781 233.605Z" fill="#231F20"/>
        <path d="M46.916 231.914L51.3078 225.908L51.5429 226.076L47.1427 232.081L46.916 231.914Z" fill="#231F20"/>
        <path d="M50.0146 235.013L54.4148 228.999L54.6415 229.166L50.2414 235.172L50.0146 235.013Z" fill="#231F20"/>
        <path d="M50.8037 235.582L55.2038 229.577L55.4306 229.736L51.0304 235.75L50.8037 235.582Z" fill="#231F20"/>
        <path d="M53.7256 238.706L58.1173 232.693L58.344 232.86L53.9523 238.874L53.7256 238.706Z" fill="#231F20"/>
        <path d="M51.6355 236.554L51.4424 236.353L56.7158 231.093L56.909 231.294L51.6355 236.554Z" fill="#231F20"/>
        <path d="M52.2986 237.215L52.1055 237.014L57.3789 231.755L57.572 231.956L52.2986 237.215Z" fill="#231F20"/>
        <path d="M96.0226 206.795C96.4256 206.052 96.9806 205.401 97.6516 204.885C98.2601 204.33 98.9307 203.847 99.6502 203.445C99.7343 203.381 99.8311 203.336 99.9342 203.313C100.037 203.289 100.144 203.288 100.248 203.31C100.351 203.331 100.449 203.375 100.534 203.437C100.619 203.499 100.69 203.579 100.742 203.671C100.985 204.106 101.892 205.648 102.018 205.89C102.086 206.034 102.101 206.197 102.059 206.351C102.018 206.504 101.923 206.638 101.791 206.728C100.784 207.347 99.8924 208.134 99.1547 209.056C99.0505 209.199 98.8942 209.294 98.7197 209.323C98.5452 209.351 98.3666 209.309 98.2226 209.207C97.8951 208.998 96.392 207.917 96.1401 207.708C96.0333 207.584 95.9652 207.431 95.9443 207.269C95.9235 207.107 95.9506 206.942 96.0226 206.795Z" stroke="#231F20" stroke-width="0.226607"/>
        <path d="M99.8344 205.48C100.275 205.48 100.632 205.124 100.632 204.684C100.632 204.245 100.275 203.889 99.8344 203.889C99.3941 203.889 99.0371 204.245 99.0371 204.684C99.0371 205.124 99.3941 205.48 99.8344 205.48Z" stroke="#231F20" stroke-width="0.226607"/>
        <path d="M101.001 206.368C101.247 206.368 101.446 206.169 101.446 205.924C101.446 205.679 101.247 205.48 101.001 205.48C100.756 205.48 100.557 205.679 100.557 205.924C100.557 206.169 100.756 206.368 101.001 206.368Z" stroke="#231F20" stroke-width="0.226607"/>
        <path d="M98.2063 208.353C98.8741 208.353 99.4155 207.813 99.4155 207.147C99.4155 206.481 98.8741 205.941 98.2063 205.941C97.5384 205.941 96.9971 206.481 96.9971 207.147C96.9971 207.813 97.5384 208.353 98.2063 208.353Z" stroke="#231F20" stroke-width="0.226607"/>
        <path d="M89.1875 215.673C89.1875 213.931 90.2708 213.914 91.7487 212.708C92.3028 212.321 92.7809 211.835 93.1594 211.276L96.7534 213.119L94.9732 219.861L90.2204 217.742C89.8983 217.502 89.6372 217.189 89.4578 216.83C89.2785 216.471 89.1859 216.075 89.1875 215.673Z" stroke="#231F20" stroke-width="0.226607"/>
        <path d="M86.1387 211.485H91.2693C93.1587 211.485 93.1839 208.336 96.5428 205.212C98.2634 203.489 100.337 202.157 102.622 201.309C103.063 201.207 103.45 200.944 103.706 200.572C103.962 200.2 104.07 199.746 104.008 199.299V195.756" stroke="#231F20" stroke-width="0.226607"/>
        <path d="M117.721 195.756V199.249C117.681 199.671 117.774 200.095 117.988 200.462C118.202 200.828 118.525 201.119 118.914 201.292C118.914 201.292 123.272 202.892 125.136 205.212C126.195 206.51 127.147 207.89 127.983 209.341C127.983 209.341 128.26 209.718 129.293 209.718C130.486 209.598 131.669 209.382 132.828 209.073" stroke="#231F20" stroke-width="0.226607"/>
        <path d="M127.982 209.341C127.982 209.341 129.384 210.321 129.057 211.485C128.26 215.2 127.668 218.955 127.285 222.734" stroke="#231F20" stroke-width="0.226607"/>
        <path d="M95.4688 222.005C95.4688 222.005 97.0558 215.531 97.8032 213.018C98.5505 210.505 102.002 205.865 106.99 205.865H114.732C119.586 205.865 123.037 209.819 124.162 213.931C125.287 218.044 126.429 223.236 126.429 223.236" stroke="#231F20" stroke-width="0.839286"/>
        <path d="M118.653 226.696C122.738 225.8 126.716 224.472 130.519 222.734" stroke="#231F20" stroke-width="0.419643"/>
        <path d="M92.1602 221.779C95.59 223.782 99.2571 225.349 103.077 226.444" stroke="#231F20" stroke-width="0.419643"/>
        <path d="M104 200.086H117.721" stroke="#231F20" stroke-width="0.226607"/>
        <path d="M58.6719 215.573V196.133" stroke="#231F20" stroke-width="0.29375"/>
        <path d="M83.0993 209.969C83.6929 209.969 84.1741 209.066 84.1741 207.951C84.1741 206.836 83.6929 205.932 83.0993 205.932C82.5056 205.932 82.0244 206.836 82.0244 207.951C82.0244 209.066 82.5056 209.969 83.0993 209.969Z" stroke="#231F20" stroke-width="0.29375"/>
        <path d="M130.519 223.538C130.506 213.551 133.689 203.821 139.604 195.764" stroke="#231F20" stroke-width="1.67857"/>
        <path d="M64.7432 213.278C67.3885 212.453 70.1423 212.027 72.9137 212.013" stroke="#231F20" stroke-width="0.226607"/>
        <path d="M72.3005 242.107C72.3005 242.107 71.9311 232.659 79.858 232.659C87.785 232.659 91.1775 239.753 108.719 239.753H152.192C152.192 239.753 152.637 239.552 152.939 237.919C153.241 236.286 164.779 236.57 165.19 238.12C165.602 239.669 165.913 239.912 167.189 239.912H172.32C174.369 239.912 176.611 238.304 177.173 237.994C177.736 237.684 179.222 237.617 179.692 238.363C180.147 239.144 180.554 239.953 180.91 240.783C181.055 241.435 181.128 242.101 181.128 242.768H72.3005V242.107Z" fill="#DBC082" stroke="#231F20" stroke-width="0.29375"/>
        <path d="M131.35 237.215L132.181 242.199" stroke="#231F20" stroke-width="1.67857"/>
        <path d="M153.914 239.41C153.751 239.379 153.597 239.316 153.46 239.225C153.323 239.133 153.205 239.015 153.114 238.878C153.023 238.741 152.961 238.586 152.931 238.425C152.901 238.263 152.904 238.096 152.939 237.936C153.177 237.007 153.315 236.055 153.351 235.096C153.191 233.196 152.925 231.305 152.553 229.434C152.518 229.236 152.532 229.032 152.595 228.84C152.658 228.648 152.767 228.475 152.914 228.335C153.06 228.196 153.239 228.095 153.434 228.041C153.629 227.988 153.834 227.983 154.031 228.027C155.601 228.39 157.206 228.578 158.817 228.589C160.585 228.567 162.346 228.37 164.074 228.002C164.276 227.959 164.486 227.968 164.684 228.028C164.882 228.088 165.061 228.198 165.205 228.346C165.348 228.494 165.452 228.677 165.505 228.876C165.559 229.075 165.56 229.285 165.51 229.485C165.092 231.083 164.861 232.725 164.821 234.376C164.81 235.585 164.925 236.792 165.166 237.978C165.204 238.136 165.21 238.301 165.183 238.462C165.156 238.622 165.097 238.776 165.009 238.914C164.921 239.051 164.807 239.17 164.672 239.262C164.537 239.355 164.385 239.419 164.225 239.452C162.629 239.767 161.007 239.926 159.38 239.929C157.546 239.912 155.718 239.738 153.914 239.41Z" fill="#DBC082" stroke="#231F20" stroke-width="0.29375"/>
        <path d="M73.291 239.686C73.291 239.686 74.2903 233.421 79.6393 233.421C84.9883 233.421 87.1044 239.686 87.1044 239.686H73.291Z" stroke="#231F20" stroke-width="0.29375"/>
        <path d="M85.5039 239.087L85.8779 238.714L83.9011 236.742L83.5271 237.115L85.5039 239.087Z" stroke="#231F20" stroke-width="0.29375"/>
        <path d="M289.586 219.702L291.904 210.572L301.418 197.682L331.153 197.121L347.821 197.624L359.451 197.121C359.451 197.121 388.186 200.564 388.371 200.614C388.556 200.664 393.72 202.121 393.72 202.289C393.72 202.456 395.652 217.499 395.652 217.692C395.652 217.884 396.265 235.616 396.265 235.616L382.653 237.81C382.653 237.81 350.802 240.984 350.365 240.842C349.929 240.7 290.376 241.839 290.376 241.839L288.948 229.166L289.36 221.109L289.586 219.702Z" fill="#C0CE8D"/>
        <path d="M319.438 195.722C317.584 198.051 315.938 200.537 314.518 203.152" stroke="#231F20" stroke-width="0.839286"/>
        <path d="M314.518 203.152L314.316 203.521" stroke="#231F20" stroke-width="0.839286"/>
        <path d="M313.922 204.282C312.673 206.707 311.623 209.227 310.781 211.82" stroke="#231F20" stroke-width="0.839286" stroke-dasharray="0.86 0.86"/>
        <path d="M310.647 212.264L310.521 212.659" stroke="#231F20" stroke-width="0.839286"/>
        <path d="M292.626 208.646C295.985 209.249 297.664 208.462 300.687 206.552C303.71 204.642 306.28 203.026 314.257 203.026C315.534 201.351 319.296 195.949 319.296 195.949L319.237 195.438L300.041 195.572L299.596 196.459L296.615 200.873L293.911 205.899L292.626 208.646Z" fill="#A2B669" stroke="#231F20" stroke-width="0.29375"/>
        <path d="M297.841 200.036H303.534V204.333C301.62 205.078 300.595 206.05 299.201 206.887C297.862 207.753 296.312 208.24 294.717 208.294L294.205 207.901L297.841 200.036Z" stroke="#231F20" stroke-width="0.226607"/>
        <path d="M298.178 201.652L300.327 205.606" stroke="#231F20" stroke-width="0.29375"/>
        <path d="M296.599 204.927L301.351 201.376" stroke="#231F20" stroke-width="0.29375"/>
        <path d="M296.749 205.388L301.913 202.289" stroke="#231F20" stroke-width="0.29375"/>
        <path d="M302.284 202.657L297.187 205.941" stroke="#231F20" stroke-width="0.29375"/>
        <path d="M314.652 202.9C318.851 202.9 324.368 203.369 327.198 204.894C330.028 206.418 336.997 206.569 340.633 204.709C344.269 202.85 349.585 197.942 355.807 197.942H362.802C364.952 197.942 366.161 198.193 368.126 200.329C370.091 202.465 371.543 202.44 374.466 202.691C377.388 202.942 405.535 205.078 405.535 205.078L401.337 201.895C388.023 197.997 374.336 195.499 360.501 194.441C337.291 192.766 331.388 192.824 319.355 195.421L319.086 195.873L316.046 200.597L314.652 202.9Z" fill="#A2B669" stroke="#231F20" stroke-width="0.29375"/>
        <path d="M297.438 206.493L302.661 203.78" stroke="#231F20" stroke-width="0.29375"/>
        <path d="M332.052 199.977L332.085 205.128" stroke="#231F20" stroke-width="0.29375"/>
        <path d="M329.112 202.775L334.982 201.87" stroke="#231F20" stroke-width="0.29375"/>
        <path d="M329.036 203.261L335.049 202.942" stroke="#231F20" stroke-width="0.29375"/>
        <path d="M335.209 203.436L329.154 203.947" stroke="#231F20" stroke-width="0.29375"/>
        <path d="M329.112 204.559L335.007 204.609" stroke="#231F20" stroke-width="0.29375"/>
        <path d="M338.962 200.103L338.995 203.939" stroke="#231F20" stroke-width="0.29375"/>
        <path d="M336.015 201.585L341.884 200.681" stroke="#231F20" stroke-width="0.29375"/>
        <path d="M335.939 202.072L341.952 201.753" stroke="#231F20" stroke-width="0.29375"/>
        <path d="M342.111 202.247L336.065 202.758" stroke="#231F20" stroke-width="0.29375"/>
        <path d="M336.023 203.369L341.91 203.42" stroke="#231F20" stroke-width="0.29375"/>
        <path d="M310.017 212.884C307.13 214.416 304.785 216.796 303.299 219.702H290.04L289.352 225.565V231.009L290.04 236.931L291.493 242.794H310.806L309.387 239.368L308.548 233.505L308.262 229.032V223.446L308.858 219.023L310.009 214.509L310.017 212.884Z" fill="#B2B0C8" stroke="#231F20" stroke-width="0.251786"/>
        <path d="M305.004 242.785C302.786 235.418 302.236 227.651 303.391 220.045H308.522L308.732 219.702L308.253 223.957V229.962L308.732 234.87L309.454 238.958L310.453 242.785H291.467L290.443 237.031L290.015 236.47C291.749 234.693 294.01 233.519 296.464 233.12C300.755 232.332 303.181 233.12 303.181 233.12" fill="#9797AF"/>
        <path d="M305.004 242.785C302.786 235.418 302.236 227.651 303.391 220.045H308.522L308.732 219.702L308.253 223.957V229.962L308.732 234.87L309.454 238.958L310.453 242.785H291.467L290.443 237.031L290.015 236.47C291.749 234.693 294.01 233.519 296.464 233.12C300.755 232.332 303.181 233.12 303.181 233.12" stroke="#231F20" stroke-width="0.29375"/>
        <path d="M291.4 242.417L304.089 239.343" stroke="#231F20" stroke-width="0.29375"/>
        <path d="M293.693 241.856L292.425 236.478L301.385 234.477L302.644 239.695" stroke="#231F20" stroke-width="0.29375"/>
        <path d="M305.373 230.708C306.482 230.708 307.38 229.185 307.38 227.307C307.38 225.429 306.482 223.906 305.373 223.906C304.265 223.906 303.366 225.429 303.366 227.307C303.366 229.185 304.265 230.708 305.373 230.708Z" fill="#9797AF" stroke="#231F20" stroke-width="0.29375"/>
        <path d="M289.587 219.702C288.358 227.415 288.889 235.305 291.14 242.785" stroke="#231F20" stroke-width="1.84643"/>
        <path d="M329.129 201.376L334.755 201.435" stroke="#231F20" stroke-width="0.29375"/>
        <path d="M329.154 200.79L334.814 200.446" stroke="#231F20" stroke-width="0.29375"/>
        <path d="M328.407 205.346V199.86H342.716V203.696" stroke="#231F20" stroke-width="0.29375"/>
        <path d="M319.053 203.152V199.86H326.299V204.584" stroke="#231F20" stroke-width="0.29375"/>
        <path d="M318.272 225.816L325.359 223.68L324.989 225.406V228.052L325.476 230.146L327.038 232.475L328.718 234.058L329.885 234.761L329.658 242.785L322.857 242.794L317.877 227.307L318.272 225.816Z" fill="#A0D2E9" stroke="#231F20" stroke-width="0.29375"/>
        <path d="M310.47 212.884H320.858C325.652 212.884 327.458 216.167 327.458 219.275C327.458 222.382 325.678 224.107 322.646 225.138C319.615 226.168 308.262 229.342 308.262 229.342L308.346 224.543L308.841 219.953L309.824 215.137L310.47 212.884Z" fill="#A0D2E9" stroke="#231F20" stroke-width="0.29375"/>
        <path d="M311.672 213.856H321.354C325.552 213.856 326.719 217.097 326.719 219.35C326.719 221.863 325.208 223.421 322.672 224.208C320.136 224.995 320.237 225.046 317.877 225.64C315.518 226.235 310.454 225.397 310.454 220.749C310.454 216.1 311.672 213.856 311.672 213.856Z" fill="#7DB7D8" stroke="#231F20" stroke-width="0.29375"/>
        <path d="M321.681 240.959H329.28V242.794H323.36L321.681 240.959Z" stroke="#231F20" stroke-width="0.29375"/>
        <path d="M308.464 229.292L318.801 226.294L323.361 242.794H310.807L309.69 240.884L309.068 236.989L308.523 232.383L308.464 229.292Z" fill="#A0D2E9" stroke="#231F20" stroke-width="0.29375"/>
        <path d="M314.14 240.959C310.437 233.421 310.647 228.563 310.647 228.563" stroke="#231F20" stroke-width="0.29375"/>
        <path d="M322.848 240.959H309.689" stroke="#231F20" stroke-width="0.29375"/>
        <path d="M310.454 242.785C307.494 232.948 307.517 222.457 310.521 212.633" stroke="#231F20" stroke-width="0.839286"/>
        <path d="M348.132 219.702L339.567 219.183V218.931C339.687 217.263 340.45 215.706 341.695 214.586C342.94 213.466 344.572 212.87 346.248 212.923C347.924 212.976 349.514 213.674 350.686 214.87C351.857 216.067 352.519 217.669 352.533 219.342L348.132 219.702Z" fill="#A2B669" stroke="#231F20" stroke-width="0.29375"/>
        <path d="M346.049 201.342V196.083" stroke="#231F20" stroke-width="0.29375"/>
        <path d="M371.09 202.289L371.711 196.602" stroke="#231F20" stroke-width="0.29375"/>
        <path d="M352.54 219.342C352.54 221.754 350.86 223.99 350.86 229.878C350.86 235.766 354.278 237.986 358.695 237.316C360.484 237.048 367.814 236.361 375.901 235.641C387.775 234.594 405.467 233.472 405.467 233.472L401.269 237.308C401.269 237.308 386.355 240.591 373.76 241.546C361.164 242.5 346.049 242.551 346.049 242.551V239.309L347.258 233.538L346.368 224.325L347.821 219.727L352.54 219.342Z" fill="#A2B669" stroke="#231F20" stroke-width="0.29375"/>
        <path d="M361.66 208.143L383.837 210.179C384.461 210.236 385.037 210.538 385.439 211.019C385.84 211.499 386.034 212.119 385.978 212.742C385.827 214.484 385.651 216.93 385.651 219.183C385.682 221.303 385.859 223.418 386.18 225.515C386.224 225.831 386.204 226.153 386.12 226.461C386.036 226.769 385.891 227.057 385.692 227.308C385.494 227.559 385.246 227.766 384.965 227.919C384.683 228.071 384.374 228.165 384.055 228.195L361.677 230.264C361.349 230.293 361.019 230.253 360.708 230.148C360.396 230.043 360.11 229.875 359.868 229.653C359.625 229.432 359.432 229.163 359.299 228.862C359.167 228.562 359.099 228.238 359.099 227.91V210.489C359.097 210.162 359.164 209.839 359.295 209.54C359.427 209.241 359.619 208.972 359.86 208.752C360.101 208.531 360.386 208.363 360.695 208.258C361.005 208.153 361.334 208.114 361.66 208.143Z" fill="#A2B669" stroke="#231F20" stroke-width="0.29375"/>
        <path d="M364.708 210.464H361.307C360.778 210.464 360.35 210.891 360.35 211.418V217.097C360.35 217.624 360.778 218.052 361.307 218.052H364.708C365.236 218.052 365.665 217.624 365.665 217.097V211.418C365.665 210.891 365.236 210.464 364.708 210.464Z" stroke="#231F20" stroke-width="0.29375"/>
        <path d="M364.708 220.422H361.307C360.778 220.422 360.35 220.85 360.35 221.377V227.056C360.35 227.583 360.778 228.011 361.307 228.011H364.708C365.236 228.011 365.665 227.583 365.665 227.056V221.377C365.665 220.85 365.236 220.422 364.708 220.422Z" stroke="#231F20" stroke-width="0.29375"/>
        <path d="M393.166 207.482C392.223 211.32 391.741 215.256 391.73 219.208C391.765 223.285 392.246 227.346 393.166 231.319C393.166 231.319 397.911 230.992 400.01 228.806C402.109 226.62 402.101 224.417 402.101 218.814C402.101 213.211 401.261 210.815 401.261 210.815L394.451 206.971L393.166 207.482Z" fill="#A2B669" stroke="#231F20" stroke-width="0.29375"/>
        <path d="M391.907 215.238H401.967" stroke="#231F20" stroke-width="0.29375"/>
        <path d="M391.907 223.178H402.043" stroke="#231F20" stroke-width="0.29375"/>
        <path d="M390.42 204.123C390.42 207.356 393.972 207.607 396.029 208.412C398.087 209.216 402.1 211.025 402.1 215.732V223.672C402.1 226.779 399.262 229.049 396.768 230.272C394.274 231.495 392.418 230.096 390.798 234.359C393.787 234.535 399.934 233.48 399.934 233.48C399.934 233.48 402.1 231.076 402.1 219.342C402.1 207.607 398.893 204.994 398.893 204.994L390.42 204.123Z" fill="#A2B669" stroke="#231F20" stroke-width="0.29375"/>
        <path d="M370.326 236.152L371.4 241.713" stroke="#231F20" stroke-width="0.29375"/>
        <path d="M375.91 235.649V237.852L386.566 236.755L386.121 234.761" stroke="#231F20" stroke-width="0.29375"/>
        <path d="M348.132 219.702L339.567 219.183C339.564 220.397 339.876 221.592 340.474 222.65L340.81 223.278C341.428 224.549 341.705 225.958 341.613 227.368C341.521 228.778 341.064 230.14 340.286 231.32C339.509 232.501 338.437 233.46 337.176 234.103C335.915 234.746 334.508 235.052 333.093 234.99C331.678 234.928 330.304 234.501 329.104 233.75C327.905 232.999 326.921 231.951 326.25 230.707C325.578 229.463 325.242 228.066 325.275 226.654C325.307 225.242 325.706 223.862 326.434 222.65L324.972 224.04C324.678 224.944 324.528 225.888 324.527 226.838C324.525 228.463 324.97 230.057 325.812 231.448C326.654 232.839 327.862 233.973 329.305 234.728V242.752L346.1 242.517C347.575 237.71 348.358 232.719 348.426 227.692C348.492 225.015 348.411 222.337 348.182 219.668" fill="#A0D2E9"/>
        <path d="M348.132 219.702L339.567 219.183C339.564 220.397 339.876 221.592 340.474 222.65L340.81 223.278C341.428 224.549 341.705 225.958 341.613 227.368C341.521 228.778 341.064 230.14 340.286 231.32C339.509 232.501 338.437 233.46 337.176 234.103C335.915 234.746 334.508 235.052 333.093 234.99C331.678 234.928 330.304 234.501 329.104 233.75C327.905 232.999 326.921 231.951 326.25 230.707C325.578 229.463 325.242 228.066 325.275 226.654C325.307 225.242 325.706 223.862 326.434 222.65L324.972 224.04C324.678 224.944 324.528 225.888 324.527 226.838C324.525 228.463 324.97 230.057 325.812 231.448C326.654 232.839 327.862 233.973 329.305 234.728V234.728V242.752L346.1 242.517C347.575 237.71 348.358 232.719 348.426 227.692C348.492 225.015 348.411 222.337 348.182 219.668" stroke="#231F20" stroke-width="0.29375"/>
        <path d="M338.223 233.471C337.981 233.847 337.825 234.272 337.767 234.715C337.709 235.159 337.75 235.609 337.887 236.034C338.349 237.492 338.895 238.388 340.154 238.606C341.414 238.824 342.909 238.606 345.193 235.582C347.477 232.559 347.779 229.418 347.779 225.23C347.848 223.367 347.741 221.503 347.46 219.66" stroke="#231F20" stroke-width="0.29375"/>
        <path d="M339.332 233.731C340.598 232.473 341.57 230.951 342.178 229.275C342.24 229.095 342.367 228.944 342.535 228.852C342.703 228.761 342.9 228.735 343.085 228.781L345.747 229.426C345.847 229.45 345.941 229.493 346.024 229.553C346.106 229.613 346.176 229.689 346.229 229.776C346.283 229.863 346.318 229.96 346.333 230.061C346.348 230.162 346.343 230.265 346.318 230.364C345.975 231.734 345.407 233.039 344.639 234.225C343.161 236.445 340.381 238.765 339.071 236.177C338.821 235.803 338.709 235.354 338.757 234.907C338.804 234.46 339.008 234.044 339.332 233.731Z" fill="#7DB7D8" stroke="#231F20" stroke-width="0.29375"/>
        <path d="M345.229 237.013L345.714 236.513L343.318 234.201L342.833 234.701L345.229 237.013Z" fill="#7DB7D8" stroke="#231F20" stroke-width="0.29375"/>
        <path d="M300.125 195.722C296.579 200.184 293.801 205.202 291.904 210.572" stroke="#231F20" stroke-width="0.839286"/>
        <path d="M402.31 234.25C392.883 237.075 383.217 239.038 373.432 240.113C356.419 242.006 331.967 242.308 331.79 242.316L125.824 242.065C106.561 242.065 91.8655 242.065 85.6096 242.065C58.0751 242.065 48.116 239.334 46.9824 238.991V218.889V198.788C48.1496 198.444 58.1087 195.714 85.6096 195.714H128.838L331.79 195.463C331.984 195.463 356.428 195.773 373.432 197.666C383.163 198.753 392.775 200.715 402.151 203.529L402.31 234.25Z" stroke="#231F20" stroke-width="0.29375"/>
        <path d="M111.55 217.27V224H110.29V218.56L108.79 219.47L108.23 218.61L110.42 217.27H111.55Z" fill="black"/>
        <path d="M184.33 217.15C184.783 217.15 185.173 217.233 185.5 217.4C185.833 217.567 186.087 217.793 186.26 218.08C186.433 218.367 186.52 218.687 186.52 219.04C186.52 219.42 186.437 219.787 186.27 220.14C186.11 220.487 185.84 220.873 185.46 221.3C185.08 221.727 184.523 222.29 183.79 222.99H186.67L186.53 224H182.34V223.06C183.193 222.193 183.803 221.553 184.17 221.14C184.543 220.72 184.807 220.363 184.96 220.07C185.12 219.77 185.2 219.46 185.2 219.14C185.2 218.833 185.11 218.593 184.93 218.42C184.757 218.247 184.523 218.16 184.23 218.16C183.97 218.16 183.74 218.217 183.54 218.33C183.347 218.437 183.143 218.617 182.93 218.87L182.15 218.25C182.717 217.517 183.443 217.15 184.33 217.15Z" fill="black"/>
        <path d="M376.39 218.22H373.87V219.89C374.203 219.723 374.543 219.64 374.89 219.64C375.263 219.64 375.597 219.727 375.89 219.9C376.183 220.073 376.41 220.323 376.57 220.65C376.737 220.977 376.82 221.363 376.82 221.81C376.82 222.27 376.717 222.677 376.51 223.03C376.303 223.383 376.01 223.66 375.63 223.86C375.25 224.053 374.81 224.15 374.31 224.15C373.863 224.15 373.467 224.07 373.12 223.91C372.78 223.743 372.47 223.507 372.19 223.2L372.92 222.52C373.307 222.947 373.76 223.16 374.28 223.16C374.66 223.16 374.957 223.043 375.17 222.81C375.39 222.577 375.5 222.243 375.5 221.81C375.5 220.977 375.14 220.56 374.42 220.56C374.267 220.56 374.123 220.58 373.99 220.62C373.857 220.653 373.71 220.71 373.55 220.79H372.64V217.27H376.54L376.39 218.22Z" fill="black"/>
        <path d="M321.25 219.48V220.46H320.44V222H319.19V220.46H316.33V219.58L318.29 215.14L319.38 215.55L317.66 219.48H319.2L319.33 217.79H320.44V219.48H321.25Z" fill="black"/>
        <path d="M296.32 223.15C296.767 223.15 297.15 223.227 297.47 223.38C297.797 223.533 298.04 223.74 298.2 224C298.367 224.26 298.45 224.547 298.45 224.86C298.45 225.267 298.333 225.607 298.1 225.88C297.867 226.147 297.547 226.333 297.14 226.44C297.587 226.48 297.953 226.64 298.24 226.92C298.527 227.2 298.67 227.587 298.67 228.08C298.67 228.467 298.57 228.817 298.37 229.13C298.177 229.443 297.897 229.693 297.53 229.88C297.163 230.06 296.73 230.15 296.23 230.15C295.31 230.15 294.583 229.827 294.05 229.18L294.76 228.5C294.987 228.727 295.21 228.893 295.43 229C295.65 229.1 295.893 229.15 296.16 229.15C296.52 229.15 296.807 229.05 297.02 228.85C297.24 228.643 297.35 228.367 297.35 228.02C297.35 227.633 297.247 227.357 297.04 227.19C296.84 227.023 296.54 226.94 296.14 226.94H295.61L295.76 226.03H296.12C296.447 226.03 296.707 225.94 296.9 225.76C297.1 225.58 297.2 225.33 297.2 225.01C297.2 224.737 297.11 224.523 296.93 224.37C296.75 224.21 296.51 224.13 296.21 224.13C295.95 224.13 295.713 224.18 295.5 224.28C295.287 224.373 295.073 224.52 294.86 224.72L294.21 224.01C294.817 223.437 295.52 223.15 296.32 223.15Z" fill="black"/>
    </g>
    <defs>
        <clipPath id="clip0_629_54585">
            <rect width="470" height="437" fill="white"/>
        </clipPath>
    </defs>
</svg>
