<svg width="20" height="20" viewBox="0 0 20 20" fill="none" xmlns="http://www.w3.org/2000/svg">
    <mask id="path-1-outside-1_636_75037" maskUnits="userSpaceOnUse" x="1" y="6.00027" width="19" height="12" fill="black">
        <rect fill="white" x="1" y="6.00027" width="19" height="12"/>
        <path fill-rule="evenodd" clip-rule="evenodd" d="M2.62902 10.8256L4.41736 13.3929C4.52339 13.5473 4.67013 13.6692 4.84125 13.7451C5.01237 13.8211 5.20119 13.8482 5.38677 13.8234C6.9513 13.6198 8.50252 13.3273 10.033 12.9476L8.84758 16.0355C8.83153 16.0802 8.82855 16.1287 8.83896 16.1751C8.84937 16.2215 8.87276 16.264 8.90639 16.2976C8.94003 16.3313 8.98253 16.3547 9.02894 16.3651C9.07536 16.3755 9.12377 16.3725 9.16855 16.3564L10.4439 15.89C10.6302 15.8221 10.7889 15.6947 10.8954 15.5275L13.1674 11.9652C15.5532 11.0358 18.0634 9.7082 17.6467 8.72883C17.2168 7.71692 15.0114 8.24938 15.0114 8.24938L5.99472 11.4316C5.8487 11.482 5.69212 11.4938 5.54021 11.4657C5.38829 11.4377 5.24621 11.3708 5.1278 11.2716L3.73793 10.1207C3.68576 10.077 3.62319 10.0475 3.55627 10.0351C3.48935 10.0226 3.42035 10.0277 3.35596 10.0497L2.8125 10.2402C2.75635 10.26 2.70557 10.2926 2.66422 10.3355C2.62286 10.3783 2.59205 10.4302 2.57424 10.487C2.55643 10.5438 2.55213 10.604 2.56163 10.6628C2.57114 10.7216 2.59421 10.7773 2.62902 10.8256ZM7.38937 8.62949L8.64728 9.30142C8.70181 9.33093 8.76188 9.34876 8.82369 9.35376C8.8855 9.35875 8.94767 9.3508 9.00624 9.33042L11.094 8.59249C11.1109 8.58617 11.1252 8.57464 11.135 8.55957C11.1448 8.5445 11.1495 8.52669 11.1485 8.50875C11.1474 8.4908 11.1406 8.47367 11.1291 8.45986C11.1176 8.44605 11.102 8.43629 11.0845 8.432L9.01474 7.86804C8.78148 7.80382 8.5341 7.81309 8.30629 7.89455L7.40887 8.21802C7.36805 8.23364 7.33267 8.2608 7.30705 8.29621C7.28143 8.33162 7.26668 8.37371 7.26462 8.41737C7.26255 8.46102 7.27324 8.50434 7.2954 8.54202C7.31755 8.57969 7.35021 8.61008 7.38937 8.62949Z"/>
    </mask>
    <path d="M4.41736 13.3929L5.65367 12.5434L5.64818 12.5356L4.41736 13.3929ZM2.62902 10.8256L3.85984 9.96828L3.85299 9.95844L3.84599 9.94872L2.62902 10.8256ZM4.84125 13.7451L4.2325 15.1161L4.2325 15.1161L4.84125 13.7451ZM5.38677 13.8234L5.19316 12.3359L5.18787 12.3366L5.38677 13.8234ZM10.033 12.9476L11.4333 13.4851L12.4646 10.7988L9.67173 11.4917L10.033 12.9476ZM8.84758 16.0355L7.44721 15.4979L7.4412 15.5136L7.43554 15.5293L8.84758 16.0355ZM8.83896 16.1751L7.37531 16.5033L7.37531 16.5033L8.83896 16.1751ZM9.02894 16.3651L8.70069 17.8287L8.70069 17.8287L9.02894 16.3651ZM9.16855 16.3564L9.67467 17.7685L9.68377 17.7652L9.16855 16.3564ZM10.4439 15.89L9.93019 14.4807L9.92873 14.4812L10.4439 15.89ZM10.8954 15.5275L9.63073 14.7209L9.63045 14.7214L10.8954 15.5275ZM13.1674 11.9652L12.6229 10.5675L12.1663 10.7454L11.9028 11.1586L13.1674 11.9652ZM17.6467 8.72883L16.2662 9.31543L16.2665 9.31609L17.6467 8.72883ZM15.0114 8.24938L14.6594 6.79128L14.5847 6.80931L14.5122 6.83489L15.0114 8.24938ZM5.99472 11.4316L6.48418 12.8495L6.49393 12.8461L5.99472 11.4316ZM5.54021 11.4657L5.26799 12.9408H5.26799L5.54021 11.4657ZM5.1278 11.2716L6.09112 10.1218L6.08448 10.1163L5.1278 11.2716ZM3.73793 10.1207L2.77439 11.2704L2.78125 11.276L3.73793 10.1207ZM3.35596 10.0497L2.86984 8.63064L2.85978 8.63416L3.35596 10.0497ZM2.8125 10.2402L2.31633 8.82465L2.31373 8.82556L2.8125 10.2402ZM2.66422 10.3355L1.58502 9.29366V9.29366L2.66422 10.3355ZM2.57424 10.487L4.00559 10.9356L4.00559 10.9356L2.57424 10.487ZM2.56163 10.6628L1.08087 10.9023L1.08087 10.9023L2.56163 10.6628ZM8.64728 9.30142L9.36124 7.98221L9.35402 7.97834L8.64728 9.30142ZM7.38937 8.62949L8.09611 7.30641L8.07589 7.29561L8.05535 7.28544L7.38937 8.62949ZM8.82369 9.35376L8.94447 7.85863L8.94446 7.85863L8.82369 9.35376ZM9.00624 9.33042L9.4992 10.7471L9.50611 10.7447L9.00624 9.33042ZM11.094 8.59249L11.5939 10.0067L11.6075 10.0019L11.6211 9.99685L11.094 8.59249ZM11.135 8.55957L9.87734 7.74213L9.87734 7.74214L11.135 8.55957ZM11.1485 8.50875L9.6511 8.59738L9.6511 8.59742L11.1485 8.50875ZM11.0845 8.432L10.6902 9.87924L10.7085 9.88422L10.7269 9.88874L11.0845 8.432ZM9.01474 7.86804L8.61659 9.31424L8.62041 9.31528L9.01474 7.86804ZM8.30629 7.89455L7.80122 6.48213L7.79766 6.48342L8.30629 7.89455ZM7.40887 8.21802L6.90023 6.80689L6.88654 6.81183L6.87296 6.81702L7.40887 8.21802ZM7.30705 8.29621L8.52226 9.17556L8.52226 9.17556L7.30705 8.29621ZM5.64818 12.5356L3.85984 9.96828L1.39821 11.683L3.18654 14.2503L5.64818 12.5356ZM5.45 12.3742C5.53214 12.4107 5.60265 12.4692 5.65364 12.5435L3.18107 14.2424C3.44414 14.6253 3.80812 14.9276 4.2325 15.1161L5.45 12.3742ZM5.18787 12.3366C5.27709 12.3247 5.36782 12.3377 5.45 12.3742L4.2325 15.1161C4.65692 15.3045 5.12529 15.3717 5.58567 15.3102L5.18787 12.3366ZM9.67173 11.4917C8.19651 11.8577 6.70124 12.1396 5.19316 12.3359L5.58039 15.3108C7.20135 15.0999 8.80853 14.7968 10.3942 14.4034L9.67173 11.4917ZM8.63259 12.41L7.44721 15.4979L10.2479 16.573L11.4333 13.4851L8.63259 12.41ZM7.43554 15.5293C7.32346 15.8421 7.30277 16.1798 7.37531 16.5033L10.3026 15.8468C10.3543 16.0775 10.3396 16.3184 10.2596 16.5416L7.43554 15.5293ZM7.37531 16.5033C7.44798 16.8273 7.61122 17.1238 7.84573 17.3583L9.96706 15.237C10.1343 15.4042 10.2508 15.6157 10.3026 15.8468L7.37531 16.5033ZM7.84573 17.3583C8.08025 17.5928 8.37669 17.756 8.70069 17.8287L9.3572 14.9014C9.58836 14.9533 9.79981 15.0697 9.96706 15.237L7.84573 17.3583ZM8.70069 17.8287C9.02452 17.9013 9.36228 17.8804 9.67466 17.7685L8.66244 14.9444C8.88525 14.8645 9.1262 14.8496 9.35719 14.9014L8.70069 17.8287ZM9.68377 17.7652L10.9592 17.2987L9.92873 14.4812L8.65333 14.9477L9.68377 17.7652ZM10.9577 17.2993C11.4539 17.1184 11.8766 16.779 12.1604 16.3337L9.63045 14.7214C9.70116 14.6104 9.8065 14.5258 9.93019 14.4807L10.9577 17.2993ZM12.1601 16.3341L14.4321 12.7718L11.9028 11.1586L9.63073 14.7209L12.1601 16.3341ZM16.2665 9.31609C16.0603 8.83161 16.3409 8.50966 16.2716 8.59929C16.2092 8.67999 16.0231 8.85824 15.6379 9.10978C14.8918 9.59697 13.7789 10.1172 12.6229 10.5675L13.7119 13.3629C14.9417 12.8838 16.2769 12.2755 17.2781 11.6217C17.7666 11.3027 18.279 10.9074 18.6446 10.4347C19.0033 9.97089 19.4415 9.11573 19.027 8.14157L16.2665 9.31609ZM15.0114 8.24938C15.3635 9.70748 15.3632 9.70756 15.3628 9.70764C15.3627 9.70766 15.3624 9.70774 15.3622 9.70779C15.3618 9.70788 15.3615 9.70797 15.3612 9.70804C15.3605 9.7082 15.36 9.70833 15.3596 9.70842C15.3588 9.70862 15.3584 9.70869 15.3586 9.70865C15.3589 9.70858 15.3611 9.70806 15.3652 9.70716C15.3732 9.70535 15.3883 9.70204 15.4094 9.69769C15.452 9.68892 15.5177 9.67626 15.5994 9.66321C15.7681 9.63625 15.9794 9.61179 16.1843 9.60955C16.4058 9.60712 16.5274 9.63224 16.5634 9.64468C16.5845 9.65196 16.3794 9.58182 16.2662 9.31543L19.0273 8.14224C18.6991 7.36988 18.0571 6.98684 17.5437 6.80935C17.0453 6.63703 16.535 6.60553 16.1514 6.60973C15.7513 6.61411 15.3843 6.65953 15.1261 6.70078C14.9943 6.72184 14.8844 6.74287 14.8047 6.75927C14.7647 6.7675 14.732 6.77464 14.7075 6.78014C14.6952 6.78289 14.685 6.78524 14.677 6.78711C14.6729 6.78805 14.6695 6.78888 14.6665 6.78957C14.6651 6.78992 14.6637 6.79024 14.6625 6.79052C14.6619 6.79066 14.6614 6.7908 14.6609 6.79093C14.6606 6.79099 14.6602 6.79108 14.6601 6.79111C14.6597 6.79119 14.6594 6.79128 15.0114 8.24938ZM6.49393 12.8461L15.5107 9.66387L14.5122 6.83489L5.49551 10.0171L6.49393 12.8461ZM5.26799 12.9408C5.67444 13.0158 6.09341 12.9844 6.48417 12.8495L5.50527 10.0137C5.60398 9.97963 5.70981 9.9717 5.81243 9.99064L5.26799 12.9408ZM4.1645 12.4214C4.48141 12.6869 4.86158 12.8658 5.26799 12.9408L5.81243 9.99064C5.91501 10.0096 6.01102 10.0547 6.0911 10.1218L4.1645 12.4214ZM2.78125 11.276L4.17112 12.4269L6.08448 10.1163L4.69461 8.9654L2.78125 11.276ZM3.28216 11.5098C3.09522 11.475 2.9203 11.3926 2.7744 11.2703L4.70146 8.9711C4.45123 8.76137 4.15115 8.61993 3.83037 8.56031L3.28216 11.5098ZM3.84206 11.4688C3.66201 11.5305 3.46914 11.5445 3.28216 11.5098L3.83037 8.56031C3.50955 8.50068 3.17869 8.52488 2.86985 8.63067L3.84206 11.4688ZM3.30868 11.6558L3.85213 11.4653L2.85978 8.63416L2.31633 8.82465L3.30868 11.6558ZM3.74341 11.3773C3.62285 11.5021 3.47488 11.5972 3.31127 11.6549L2.31373 8.82556C2.03781 8.92285 1.7883 9.0831 1.58502 9.29366L3.74341 11.3773ZM4.00559 10.9356C3.95368 11.1012 3.86389 11.2525 3.74341 11.3773L1.58502 9.29366C1.38182 9.50416 1.23042 9.75914 1.14289 10.0384L4.00559 10.9356ZM4.04239 10.4233C4.07006 10.5944 4.05755 10.7698 4.00559 10.9356L1.14289 10.0384C1.05532 10.3179 1.03419 10.6136 1.08087 10.9023L4.04239 10.4233ZM3.84599 9.94872C3.94742 10.0895 4.01468 10.252 4.04239 10.4233L1.08087 10.9023C1.1276 11.1912 1.241 11.4652 1.41206 11.7026L3.84599 9.94872ZM9.35402 7.97834L8.09611 7.30641L6.68263 9.95256L7.94054 10.6245L9.35402 7.97834ZM8.94446 7.85863C9.09072 7.87044 9.23264 7.91263 9.36123 7.98223L7.93332 10.6206C8.17098 10.7492 8.43305 10.8271 8.70292 10.8489L8.94446 7.85863ZM8.51329 7.91374C8.65157 7.86562 8.79841 7.84683 8.94447 7.85863L8.70291 10.8489C8.97259 10.8707 9.24378 10.836 9.49919 10.7471L8.51329 7.91374ZM10.5942 7.17823L8.50637 7.91616L9.50611 10.7447L11.5939 10.0067L10.5942 7.17823ZM9.87734 7.74214C10.0424 7.48825 10.2842 7.29426 10.567 7.18812L11.6211 9.99685C11.9376 9.87808 12.2081 9.66103 12.3927 9.377L9.87734 7.74214ZM9.6511 8.59742C9.63323 8.29559 9.71245 7.99583 9.87734 7.74213L12.3927 9.37701C12.5772 9.09316 12.6659 8.75779 12.6459 8.42008L9.6511 8.59742ZM9.97666 9.41997C9.78301 9.18752 9.66897 8.89923 9.6511 8.59738L12.6459 8.42011C12.6259 8.08238 12.4983 7.75982 12.2816 7.49975L9.97666 9.41997ZM10.7269 9.88874C10.433 9.81658 10.1701 9.65221 9.97666 9.41997L12.2816 7.49975C12.0651 7.2399 11.771 7.05599 11.4422 6.97526L10.7269 9.88874ZM8.62041 9.31528L10.6902 9.87924L11.4789 6.98476L9.40907 6.4208L8.62041 9.31528ZM8.81137 9.30696C8.74878 9.32934 8.68077 9.3319 8.61659 9.31423L9.41289 6.42185C8.8822 6.27574 8.31942 6.29684 7.80123 6.48214L8.81137 9.30696ZM7.9175 9.62915L8.81493 9.30568L7.79766 6.48342L6.90023 6.80689L7.9175 9.62915ZM8.52226 9.17556C8.37692 9.37641 8.17622 9.53049 7.94478 9.61902L6.87296 6.81702C6.55988 6.93678 6.28841 7.14519 6.09183 7.41686L8.52226 9.17556ZM8.76293 8.48837C8.7512 8.7359 8.66759 8.97472 8.52226 9.17556L6.09183 7.41686C5.89526 7.68852 5.78216 8.01153 5.7663 8.34637L8.76293 8.48837ZM8.58832 7.78152C8.71408 7.99533 8.77466 8.24098 8.76293 8.48837L5.7663 8.34637C5.75044 8.68107 5.8324 9.01336 6.00247 9.30251L8.58832 7.78152ZM8.05535 7.28544C8.27749 7.39551 8.46268 7.56792 8.58832 7.78152L6.00247 9.30251C6.17243 9.59145 6.42293 9.82466 6.72338 9.97353L8.05535 7.28544Z" fill="#BA935F" mask="url(#path-1-outside-1_636_75037)"/>
</svg>
