<svg width="250" height="57" viewBox="0 0 250 57" fill="none" xmlns="http://www.w3.org/2000/svg">
    <g clip-path="url(#clip0_629_54469)">
        <path fill-rule="evenodd" clip-rule="evenodd" d="M0 50.2433C0 49.0643 3.81471 46.2679 12.4886 42.3984C16.8591 40.3262 21.4222 38.6859 26.1126 37.501L33.6815 31.9839C36.3539 30.1294 39.4128 28.9046 42.6279 28.4016C47.033 28.0388 50.9537 28.2353 56.2519 28.2353C61.5501 28.2353 136.225 27.9481 142.704 27.9481H162.61C166.142 27.2037 169.749 26.874 173.358 26.9656C180.397 26.9656 187.274 26.1352 187.274 26.1352L192.174 25.7262L208.825 22.3706C210.733 21.9208 212.557 21.1707 214.229 20.1486C215.176 19.3412 215.979 18.3805 216.606 17.3069L224.175 5.83435C224.721 5.12865 225.154 4.34362 225.462 3.5066C225.992 2.10087 226.082 1.20905 228.716 0.921862C231.35 0.63467 235.982 0.226556 240.191 0.060287C244.399 -0.105982 249.273 0.166094 249.273 0.166094C249.273 0.166094 250.151 0.0300577 250.061 0.876518C249.97 1.72298 249.833 1.90436 249.137 2.13109C248.441 2.35783 244.732 3.44613 244.005 4.29259C243.49 5.04397 243.135 5.89277 242.961 6.78663L241.735 6.89243L234.242 33.1327C234.511 33.1983 234.749 33.3542 234.917 33.5742C235.086 33.7943 235.173 34.0653 235.165 34.3419C235.141 34.6619 235.034 34.97 234.853 35.2353C234.672 35.5006 234.425 35.7138 234.136 35.8534L234.045 40.1009L213.548 46.797L212.035 46.0714C207.444 47.7402 202.704 48.9701 197.881 49.7445C191.826 50.47 186.346 50.8025 184.045 51.0595C181.744 51.3165 171.48 54.0826 165.425 54.8988C159.37 55.715 138.026 56.9998 126.839 56.9998C120.92 56.9998 101.559 56.108 84.9834 55.0802C70.2695 54.1581 57.8111 53.1001 57.8111 53.1001C57.8111 53.1001 35.9673 53.5233 29.5338 53.5233C24.4475 53.5233 8.12897 53.1303 1.87708 51.513C0.136237 51.0746 0 50.4851 0 50.2433Z" fill="#BCBEC0"/>
        <path fill-rule="evenodd" clip-rule="evenodd" d="M27.3838 37.9093L35.2403 38.3929C35.2403 38.3929 35.7247 38.5895 36.421 37.5163C37.1174 36.4431 39.3123 33.5409 39.3123 33.5409C39.3123 33.5409 40.1298 32.7852 38.9793 32.7852H33.7416L29.2003 36.5489L27.3838 37.9093Z" fill="white"/>
        <path fill-rule="evenodd" clip-rule="evenodd" d="M41.659 33.3595C41.4266 33.332 41.191 33.3557 40.9687 33.4288C40.7465 33.5019 40.5429 33.6227 40.3723 33.7827L37.3448 37.6371C37.3448 37.6371 36.3154 38.7103 37.7081 38.8161C39.1007 38.9219 40.1452 38.8161 41.9466 39.0731C43.1556 39.2175 44.354 39.4396 45.5343 39.7381C45.5343 39.7381 46.6545 39.9346 46.5788 38.8463C46.5031 37.758 45.8673 34.3117 45.8673 34.3117C45.8673 34.3117 45.8673 33.692 44.8077 33.5559C43.748 33.4199 41.659 33.3595 41.659 33.3595Z" fill="white"/>
        <path fill-rule="evenodd" clip-rule="evenodd" d="M52.5123 30.4273H59.6119C59.6934 30.4232 59.7749 30.4352 59.8518 30.4627C59.9286 30.4901 59.9993 30.5324 60.0598 30.5872C60.1203 30.6419 60.1693 30.7081 60.2041 30.7818C60.239 30.8555 60.2589 30.9354 60.2628 31.0168V47.3263C60.2609 47.409 60.2424 47.4904 60.2084 47.5659C60.1744 47.6414 60.1257 47.7093 60.065 47.7656C60.0044 47.822 59.933 47.8656 59.8552 47.894C59.7773 47.9224 59.6946 47.9349 59.6119 47.9309H52.5123C52.3462 47.935 52.185 47.874 52.0634 47.761C51.9417 47.648 51.8692 47.492 51.8613 47.3263V31.0168C51.8652 30.9354 51.8851 30.8555 51.92 30.7818C51.9548 30.7081 52.0039 30.6419 52.0643 30.5872C52.1248 30.5324 52.1955 30.4901 52.2723 30.4627C52.3492 30.4352 52.4307 30.4232 52.5123 30.4273V30.4273Z" stroke="white" stroke-width="1.13533"/>
        <path fill-rule="evenodd" clip-rule="evenodd" d="M83.3941 35.0978H85.0744C85.2484 35.1017 85.4139 35.1735 85.5356 35.2978C85.6573 35.4221 85.7253 35.5891 85.7253 35.7629V38.1209C85.7253 38.2932 85.6567 38.4586 85.5346 38.5805C85.4126 38.7023 85.247 38.7708 85.0744 38.7708H83.3941C83.2214 38.7708 83.0559 38.7023 82.9338 38.5805C82.8117 38.4586 82.7432 38.2932 82.7432 38.1209V35.7629C82.7431 35.5891 82.8112 35.4221 82.9328 35.2978C83.0545 35.1735 83.2201 35.1017 83.3941 35.0978Z" fill="white"/>
        <path fill-rule="evenodd" clip-rule="evenodd" d="M90.2369 35.0978H91.9172C92.0938 35.0978 92.2632 35.1679 92.3881 35.2926C92.5131 35.4173 92.5832 35.5865 92.5832 35.7629V38.1209C92.5793 38.2946 92.5073 38.4599 92.3829 38.5814C92.2584 38.7029 92.0912 38.7709 91.9172 38.7708H90.2369C90.0642 38.7708 89.8987 38.7023 89.7766 38.5805C89.6545 38.4586 89.5859 38.2932 89.5859 38.1209V35.7629C89.5859 35.5891 89.654 35.4221 89.7756 35.2978C89.8973 35.1735 90.0629 35.1017 90.2369 35.0978Z" fill="white"/>
        <path fill-rule="evenodd" clip-rule="evenodd" d="M97.2149 35.0978H98.8952C99.0692 35.1017 99.2347 35.1735 99.3564 35.2978C99.478 35.4221 99.5461 35.5891 99.5461 35.7629V38.1209C99.5461 38.2932 99.4775 38.4586 99.3554 38.5805C99.2334 38.7023 99.0678 38.7708 98.8952 38.7708H97.2149C97.0408 38.7709 96.8737 38.7029 96.7492 38.5814C96.6247 38.4599 96.5528 38.2946 96.5488 38.1209V35.7629C96.5488 35.5865 96.619 35.4173 96.7439 35.2926C96.8688 35.1679 97.0382 35.0978 97.2149 35.0978Z" fill="white"/>
        <path fill-rule="evenodd" clip-rule="evenodd" d="M104.193 35.0978H105.859C106.035 35.0978 106.205 35.1679 106.33 35.2926C106.454 35.4173 106.525 35.5865 106.525 35.7629V38.1208C106.525 38.2075 106.507 38.2933 106.474 38.3731C106.44 38.453 106.391 38.5253 106.329 38.5859C106.267 38.6464 106.193 38.694 106.112 38.7257C106.032 38.7575 105.945 38.7728 105.859 38.7708H104.193C104.019 38.7709 103.852 38.7029 103.728 38.5814C103.603 38.4599 103.531 38.2946 103.527 38.1208V35.7629C103.527 35.5865 103.598 35.4173 103.722 35.2926C103.847 35.1679 104.017 35.0978 104.193 35.0978Z" fill="white"/>
        <path fill-rule="evenodd" clip-rule="evenodd" d="M112.156 35.0978H113.836C114.01 35.1017 114.176 35.1735 114.297 35.2978C114.419 35.4221 114.487 35.5891 114.487 35.7629V38.1209C114.487 38.2932 114.418 38.4586 114.296 38.5805C114.174 38.7023 114.009 38.7708 113.836 38.7708H112.156C111.983 38.7708 111.818 38.7023 111.696 38.5805C111.573 38.4586 111.505 38.2932 111.505 38.1209V35.7629C111.505 35.5891 111.573 35.4221 111.695 35.2978C111.816 35.1735 111.982 35.1017 112.156 35.0978Z" fill="white"/>
        <path fill-rule="evenodd" clip-rule="evenodd" d="M120.239 35.0978H121.92C122.094 35.1017 122.259 35.1735 122.381 35.2978C122.502 35.4221 122.571 35.5891 122.571 35.7629V38.1209C122.571 38.2932 122.502 38.4586 122.38 38.5805C122.258 38.7023 122.092 38.7708 121.92 38.7708H120.239C120.065 38.7709 119.898 38.7029 119.774 38.5814C119.649 38.4599 119.577 38.2946 119.573 38.1209V35.7629C119.573 35.5865 119.643 35.4173 119.768 35.2926C119.893 35.1679 120.063 35.0978 120.239 35.0978Z" fill="white"/>
        <path fill-rule="evenodd" clip-rule="evenodd" d="M128.202 35.0978H129.882C130.057 35.1017 130.222 35.1735 130.344 35.2978C130.465 35.4221 130.533 35.5891 130.533 35.7629V38.1209C130.533 38.2932 130.465 38.4586 130.343 38.5805C130.221 38.7023 130.055 38.7708 129.882 38.7708H128.202C128.028 38.7709 127.861 38.7029 127.736 38.5814C127.612 38.4599 127.54 38.2946 127.536 38.1209V35.7629C127.536 35.5865 127.606 35.4173 127.731 35.2926C127.856 35.1679 128.026 35.0978 128.202 35.0978Z" fill="white"/>
        <path fill-rule="evenodd" clip-rule="evenodd" d="M135.831 35.0978H137.496C137.673 35.0978 137.842 35.1679 137.967 35.2926C138.092 35.4173 138.162 35.5865 138.162 35.7629V38.1209C138.158 38.2946 138.086 38.4599 137.962 38.5814C137.837 38.7029 137.67 38.7709 137.496 38.7708H135.831C135.657 38.7709 135.49 38.7029 135.365 38.5814C135.241 38.4599 135.169 38.2946 135.165 38.1209V35.7629C135.165 35.5865 135.235 35.4173 135.36 35.2926C135.485 35.1679 135.654 35.0978 135.831 35.0978Z" fill="white"/>
        <path fill-rule="evenodd" clip-rule="evenodd" d="M144.58 35.0978H146.245C146.422 35.0978 146.591 35.1679 146.716 35.2926C146.841 35.4173 146.911 35.5865 146.911 35.7629V38.1208C146.907 38.2946 146.835 38.4599 146.711 38.5814C146.586 38.7029 146.419 38.7709 146.245 38.7708H144.58C144.493 38.7728 144.407 38.7575 144.326 38.7257C144.246 38.694 144.172 38.6464 144.11 38.5859C144.048 38.5253 143.999 38.453 143.965 38.3731C143.931 38.2933 143.914 38.2075 143.914 38.1208V35.7629C143.914 35.5865 143.984 35.4173 144.109 35.2926C144.234 35.1679 144.403 35.0978 144.58 35.0978Z" fill="white"/>
        <path fill-rule="evenodd" clip-rule="evenodd" d="M152.528 35.0978H154.208C154.385 35.0978 154.554 35.1679 154.679 35.2926C154.804 35.4173 154.874 35.5865 154.874 35.7629V38.1209C154.87 38.2946 154.798 38.4599 154.674 38.5814C154.549 38.7029 154.382 38.7709 154.208 38.7708H152.528C152.355 38.7708 152.19 38.7023 152.068 38.5805C151.946 38.4586 151.877 38.2932 151.877 38.1209V35.7629C151.877 35.5891 151.945 35.4221 152.067 35.2978C152.188 35.1735 152.354 35.1017 152.528 35.0978Z" fill="white"/>
        <path fill-rule="evenodd" clip-rule="evenodd" d="M160.036 35.0978H161.716C161.89 35.1017 162.056 35.1735 162.178 35.2978C162.299 35.4221 162.367 35.5891 162.367 35.7629V38.1209C162.367 38.2932 162.299 38.4586 162.177 38.5805C162.055 38.7023 161.889 38.7708 161.716 38.7708H160.036C159.862 38.7709 159.695 38.7029 159.57 38.5814C159.446 38.4599 159.374 38.2946 159.37 38.1209V35.7629C159.37 35.5865 159.44 35.4173 159.565 35.2926C159.69 35.1679 159.86 35.0978 160.036 35.0978Z" fill="white"/>
        <path d="M180.054 51.8185C180.36 51.7406 184.352 51.0823 184.556 50.841C184.759 50.5998 184.882 50.301 184.907 49.9865C185.059 48.8075 178.64 47.7192 173.357 46.4041C168.074 45.0891 160.127 44.3938 145.034 44.3938C129.942 44.3938 78.1104 44.7566 68.1801 47.2808C58.2497 49.8051 57.7617 53.1703 57.7617 53.1703" stroke="white" stroke-width="1.13533"/>
        <path fill-rule="evenodd" clip-rule="evenodd" d="M179.912 36.9268C179.906 37.6893 180.149 38.4332 180.605 39.0446C181.062 39.656 181.706 40.1013 182.44 40.3126C187.099 41.1879 191.841 41.5428 196.579 41.3707C201.983 41.0986 218.937 37.5616 219.77 36.5338C220.225 36.0861 220.579 35.5479 220.812 34.954C221.044 34.3602 221.148 33.7242 221.117 33.0875C221.117 31.319 220.451 29.4447 219.21 29.0214C211.849 26.7896 204.196 25.6687 196.503 25.696C184.393 25.696 179.973 26.7541 179.973 29.6714L179.912 36.9268Z" stroke="white" stroke-width="1.13533"/>
        <path d="M242.984 7.36121H236.437L227.052 31.2284" stroke="white" stroke-width="1.13533"/>
        <path d="M234.206 32.8936C234.206 32.8936 230.397 31.833 226.507 30.9412C222.616 30.0494 219.766 29.2888 219.766 29.2888" stroke="white" stroke-width="1.13533"/>
    </g>
    <defs>
        <clipPath id="clip0_629_54469">
            <rect width="250" height="57" fill="white"/>
        </clipPath>
    </defs>
</svg>
