<svg width="20" height="20" viewBox="0 0 20 20" fill="none" xmlns="http://www.w3.org/2000/svg">
    <path d="M7.5 1.66669C7.96024 1.66669 8.33333 2.03978 8.33333 2.50002V3.33335H11.6667V2.50002C11.6667 2.03978 12.0398 1.66669 12.5 1.66669C12.9602 1.66669 13.3333 2.03978 13.3333 2.50002V3.33335H15.8333C16.7538 3.33335 17.5 4.07955 17.5 5.00002V15.8334C17.5 16.7538 16.7538 17.5 15.8333 17.5H4.16667C3.24619 17.5 2.5 16.7538 2.5 15.8334V5.00002C2.5 4.07955 3.24619 3.33335 4.16667 3.33335H6.66667V2.50002C6.66667 2.03978 7.03976 1.66669 7.5 1.66669ZM6.66667 5.00002H4.16667V7.50002H15.8333V5.00002H13.3333V5.83335C13.3333 6.29359 12.9602 6.66669 12.5 6.66669C12.0398 6.66669 11.6667 6.29359 11.6667 5.83335V5.00002H8.33333V5.83335C8.33333 6.29359 7.96024 6.66669 7.5 6.66669C7.03976 6.66669 6.66667 6.29359 6.66667 5.83335V5.00002ZM15.8333 9.16669H4.16667V15.8334H15.8333V9.16669Z" fill="#BA935F"/>
</svg>
