<svg width="20" height="20" viewBox="0 0 20 20" fill="none" xmlns="http://www.w3.org/2000/svg">
    <path d="M9.99967 1.66674C6.33301 1.66674 3.33301 4.66674 3.33301 8.33341C3.33301 12.8334 9.16634 17.9167 9.41634 18.1667C9.58301 18.2501 9.83301 18.3334 9.99967 18.3334C10.1663 18.3334 10.4163 18.2501 10.583 18.1667C10.833 17.9167 16.6663 12.8334 16.6663 8.33341C16.6663 4.66674 13.6663 1.66674 9.99967 1.66674ZM9.99967 16.4167C8.24967 14.7501 4.99967 11.1667 4.99967 8.33341C4.99967 5.58341 7.24967 3.33341 9.99967 3.33341C12.7497 3.33341 14.9997 5.58341 14.9997 8.33341C14.9997 11.0834 11.7497 14.7501 9.99967 16.4167ZM9.99967 5.00007C8.16634 5.00007 6.66634 6.50007 6.66634 8.33341C6.66634 10.1667 8.16634 11.6667 9.99967 11.6667C11.833 11.6667 13.333 10.1667 13.333 8.33341C13.333 6.50007 11.833 5.00007 9.99967 5.00007ZM9.99967 10.0001C9.08301 10.0001 8.33301 9.25007 8.33301 8.33341C8.33301 7.41674 9.08301 6.66674 9.99967 6.66674C10.9163 6.66674 11.6663 7.41674 11.6663 8.33341C11.6663 9.25007 10.9163 10.0001 9.99967 10.0001Z" fill="#BA935F"/>
</svg>
