<svg width="108" height="48" viewBox="0 0 108 48" fill="none" xmlns="http://www.w3.org/2000/svg">
    <path d="M99.8001 46.4112H99.2411V40.3943H99.8001V46.4112ZM97.5554 44.2665C97.5554 43.7725 97.3936 43.3554 97.0699 43.0182C96.7463 42.681 96.3433 42.5123 95.852 42.5123C95.193 42.5123 94.7017 42.8022 94.3781 43.382C94.2221 43.6572 94.1456 43.9471 94.1456 44.2547C94.1456 44.5624 94.2221 44.8523 94.3781 45.1274C94.534 45.4025 94.7399 45.6184 95.0047 45.7722C95.2665 45.9261 95.546 46.003 95.8461 46.003C96.1491 46.003 96.4345 45.9261 96.7081 45.7722C96.9788 45.6184 97.1876 45.4113 97.3318 45.151C97.4818 44.8907 97.5554 44.5949 97.5554 44.2665ZM98.0761 46.4112H97.523V45.6598C97.0552 46.2308 96.4786 46.5177 95.7902 46.5177C95.1665 46.5177 94.6399 46.2899 94.2133 45.8403C93.7926 45.3966 93.5808 44.8611 93.5808 44.2281C93.5808 43.6039 93.7956 43.0714 94.228 42.6277C94.6605 42.184 95.1871 41.9621 95.8079 41.9621C96.5169 41.9621 97.0905 42.2639 97.523 42.8703V42.0686H98.0761V46.4112ZM92.9541 42.5508H92.0745V46.4112H91.5067V42.5508H90.7506V42.0686H91.5067V40.4505H92.0745V42.0686H92.9541V42.5508ZM90.5476 42.1012L90.2564 42.5863C90.1387 42.536 90.0416 42.5094 89.9622 42.5094C89.5179 42.5094 89.209 42.823 89.0325 43.4501C88.9649 43.6956 88.9296 44.1955 88.9296 44.9469V46.4112H88.3617V42.0686H88.9296V42.7135C89.2649 42.2136 89.6415 41.9621 90.0563 41.9621C90.2093 41.9621 90.3711 42.0095 90.5476 42.1012ZM86.9702 44.2665C86.9702 43.7903 86.8084 43.382 86.4848 43.0359C86.1612 42.6898 85.764 42.5183 85.2903 42.5183C84.8167 42.5183 84.4195 42.6898 84.0959 43.0359C83.7723 43.382 83.6105 43.7903 83.6105 44.2665C83.6105 44.5712 83.684 44.8582 83.8282 45.1244C83.9782 45.3995 84.1842 45.6095 84.4431 45.7575C84.702 45.9054 84.9844 45.9793 85.2903 45.9793C85.9435 45.9793 86.4289 45.6983 86.7437 45.1362C86.8937 44.867 86.9702 44.5771 86.9702 44.2665ZM87.538 44.2517C87.538 44.8878 87.3232 45.4261 86.8908 45.861C86.4583 46.2988 85.9258 46.5177 85.2903 46.5177C84.6549 46.5177 84.1194 46.2988 83.687 45.8639C83.2545 45.4261 83.0368 44.8907 83.0368 44.2517C83.0368 43.6512 83.2339 43.1306 83.6311 42.6928C84.0665 42.2077 84.6196 41.9651 85.2874 41.9651C85.9523 41.9651 86.5024 42.2077 86.9378 42.6898C87.3409 43.1276 87.538 43.6512 87.538 44.2517ZM81.6335 44.2517C81.6335 43.9441 81.557 43.6542 81.404 43.3791C81.251 43.104 81.0451 42.891 80.7833 42.7372C80.5214 42.5863 80.2361 42.5094 79.9301 42.5094C79.4388 42.5094 79.0357 42.678 78.7121 43.0152C78.3885 43.3525 78.2296 43.7696 78.2296 44.2636C78.2296 44.9499 78.5121 45.4528 79.0769 45.7693C79.3476 45.9231 79.6359 46 79.9389 46C80.2449 46 80.5302 45.9202 80.7921 45.7634C81.048 45.6066 81.251 45.3906 81.404 45.1185C81.557 44.8463 81.6335 44.5564 81.6335 44.2517ZM82.2013 44.2281C82.2013 44.8611 81.9895 45.3966 81.5688 45.8403C81.1392 46.2899 80.6156 46.5177 79.9919 46.5177C79.3064 46.5177 78.7327 46.2308 78.2649 45.6598V47.9997H77.703V42.0686H78.2649V42.8703C78.7033 42.2639 79.274 41.9621 79.9772 41.9621C80.5979 41.9621 81.1245 42.184 81.554 42.6277C81.9865 43.0714 82.2013 43.6069 82.2013 44.2281ZM73.799 46.4112H73.2371V44.3464C73.2371 43.8583 73.2136 43.524 73.1724 43.3465C73.0341 42.7727 72.6723 42.4828 72.0868 42.4828C71.7514 42.4828 71.4514 42.5922 71.1866 42.8141C70.9218 43.0359 70.7482 43.3111 70.6629 43.6424C70.61 43.8524 70.5835 44.2458 70.5835 44.8197V46.4053H70.0216V42.0686H70.5835V42.8525C71.0248 42.2579 71.5661 41.9621 72.2045 41.9621C72.5193 41.9621 72.8047 42.042 73.0577 42.2047C73.3107 42.3644 73.496 42.5893 73.6166 42.8703C73.7373 43.1543 73.7961 43.5891 73.7961 44.1808V46.4112H73.799ZM68.4241 44.2665C68.4241 43.7903 68.2623 43.382 67.9387 43.0359C67.615 42.6898 67.2179 42.5183 66.7442 42.5183C66.2706 42.5183 65.8734 42.6898 65.5498 43.0359C65.2262 43.382 65.0644 43.7903 65.0644 44.2665C65.0644 44.5712 65.1379 44.8582 65.2821 45.1244C65.4321 45.3995 65.638 45.6095 65.8969 45.7575C66.1558 45.9054 66.4383 45.9793 66.7442 45.9793C67.4003 45.9793 67.8828 45.6983 68.1975 45.1362C68.3476 44.867 68.4241 44.5771 68.4241 44.2665ZM68.9919 44.2517C68.9919 44.8878 68.7771 45.4261 68.3446 45.861C67.9122 46.2988 67.3797 46.5177 66.7442 46.5177C66.1088 46.5177 65.5733 46.2988 65.1408 45.8639C64.7084 45.4261 64.4907 44.8907 64.4907 44.2517C64.4907 43.6512 64.6878 43.1306 65.0849 42.6928C65.5204 42.2077 66.0734 41.9651 66.7413 41.9651C67.4062 41.9651 67.9563 42.2077 68.3917 42.6898C68.7948 43.1276 68.9919 43.6512 68.9919 44.2517ZM63.5492 46.4112H62.9785V42.0686H63.5492V46.4112ZM63.7199 40.7463C63.7199 40.8735 63.6757 40.983 63.5845 41.0717C63.4963 41.1605 63.3874 41.2048 63.2609 41.2048C63.1344 41.2048 63.0315 41.1605 62.9403 41.0688C62.852 40.98 62.8049 40.8735 62.8049 40.7463C62.8049 40.6191 62.8491 40.5126 62.9373 40.4209C63.0256 40.3322 63.1344 40.2849 63.2609 40.2849C63.3874 40.2849 63.4933 40.3292 63.5845 40.4209C63.6757 40.5126 63.7199 40.6191 63.7199 40.7463ZM62.2489 42.5508H61.3693V46.4112H60.8015V42.5508H60.0454V42.0686H60.8015V40.4505H61.3693V42.0686H62.2489V42.5508ZM58.5391 44.2665C58.5391 43.7725 58.3773 43.3554 58.0537 43.0182C57.73 42.681 57.3241 42.5123 56.8357 42.5123C56.1767 42.5123 55.6854 42.8022 55.3618 43.382C55.2058 43.6572 55.1294 43.9471 55.1294 44.2547C55.1294 44.5624 55.2058 44.8523 55.3618 45.1274C55.5177 45.4025 55.7266 45.6184 55.9884 45.7722C56.2502 45.9261 56.5297 46.003 56.8327 46.003C57.1358 46.003 57.4211 45.9261 57.6918 45.7722C57.9625 45.6184 58.1713 45.4113 58.3155 45.151C58.4655 44.8907 58.5391 44.5949 58.5391 44.2665ZM59.0598 46.4112H58.5067V45.6598C58.039 46.2308 57.4623 46.5177 56.7739 46.5177C56.1502 46.5177 55.6236 46.2899 55.197 45.8403C54.7734 45.3966 54.5616 44.8611 54.5616 44.2281C54.5616 43.6039 54.7763 43.0714 55.2088 42.6277C55.6413 42.184 56.1679 41.9621 56.7886 41.9621C57.4976 41.9621 58.0713 42.2639 58.5038 42.8703V42.0686H59.0569V46.4112H59.0598ZM53.6084 46.4112H53.0376V42.0686H53.6084V46.4112ZM53.7819 40.7463C53.7819 40.8735 53.7378 40.983 53.6466 41.0717C53.5583 41.1605 53.4495 41.2048 53.323 41.2048C53.1994 41.2048 53.0935 41.1605 53.0023 41.0688C52.9111 40.98 52.867 40.8735 52.867 40.7463C52.867 40.6191 52.9111 40.5126 52.9994 40.4209C53.0876 40.3322 53.1935 40.2849 53.323 40.2849C53.4495 40.2849 53.5554 40.3292 53.6466 40.4209C53.7349 40.5126 53.7819 40.6191 53.7819 40.7463ZM52.2815 42.0686L50.3045 46.4112H50.2075L48.2157 42.0686H48.8071L50.2545 45.225L51.6873 42.0686H52.2815ZM46.8477 44.2665C46.8477 43.7725 46.6859 43.3554 46.3652 43.0182C46.0416 42.681 45.6356 42.5123 45.1473 42.5123C44.4883 42.5123 43.997 42.8022 43.6734 43.382C43.5174 43.6572 43.4409 43.9471 43.4409 44.2547C43.4409 44.5624 43.5174 44.8523 43.6734 45.1274C43.8263 45.4025 44.0352 45.6184 44.3 45.7722C44.5618 45.9261 44.8413 46.003 45.1414 46.003C45.4444 46.003 45.7298 45.9261 46.0034 45.7722C46.274 45.6184 46.4829 45.4113 46.6271 45.151C46.7742 44.8907 46.8477 44.5949 46.8477 44.2665ZM47.3685 46.4112H46.8154V45.6598C46.3476 46.2308 45.771 46.5177 45.0826 46.5177C44.4589 46.5177 43.9322 46.2899 43.5057 45.8403C43.082 45.3966 42.8702 44.8611 42.8702 44.2281C42.8702 43.6039 43.085 43.0714 43.5174 42.6277C43.9499 42.184 44.4765 41.9621 45.0973 41.9621C45.8063 41.9621 46.38 42.2639 46.8124 42.8703V42.0686H47.3655V46.4112H47.3685ZM39.3752 45.2457C39.3752 45.6125 39.2486 45.9172 38.9986 46.1568C38.7485 46.3994 38.4367 46.5207 38.0689 46.5207C37.5394 46.5207 37.1128 46.3165 36.7951 45.9083L37.1451 45.506C37.4276 45.8225 37.7247 45.9793 38.0395 45.9793C38.2484 45.9793 38.4337 45.9113 38.5926 45.7752C38.7544 45.6391 38.8368 45.4676 38.8368 45.2634C38.8368 45.0564 38.7397 44.873 38.5485 44.7132C38.4514 44.6334 38.266 44.5239 37.9865 44.3819C37.6659 44.2162 37.4335 44.0536 37.2834 43.8909C37.0834 43.6719 36.9833 43.4116 36.9833 43.1099C36.9833 42.7727 37.0981 42.4976 37.3246 42.2816C37.5511 42.0686 37.8336 41.9592 38.1719 41.9592C38.5691 41.9592 38.9721 42.1515 39.3752 42.539L39.0192 42.9147C38.7191 42.6307 38.4308 42.4887 38.1484 42.4887C37.9748 42.4887 37.8218 42.5449 37.6894 42.6603C37.557 42.7727 37.4894 42.9147 37.4894 43.0833C37.4894 43.3673 37.763 43.6542 38.316 43.9382C38.6544 44.1157 38.9015 44.2813 39.0545 44.4411C39.2692 44.6688 39.3752 44.9321 39.3752 45.2457ZM36.2184 45.2457C36.2184 45.6125 36.0919 45.9172 35.8419 46.1568C35.5918 46.3994 35.2799 46.5207 34.9122 46.5207C34.3797 46.5207 33.9561 46.3165 33.6383 45.9083L33.9884 45.506C34.2708 45.8225 34.568 45.9793 34.8828 45.9793C35.0917 45.9793 35.277 45.9113 35.4359 45.7752C35.5977 45.6391 35.68 45.4676 35.68 45.2634C35.68 45.0564 35.583 44.873 35.3917 44.7132C35.2946 44.6334 35.1093 44.5239 34.8298 44.3819C34.5091 44.2162 34.2767 44.0536 34.1267 43.8909C33.9266 43.6719 33.8266 43.4116 33.8266 43.1099C33.8266 42.7727 33.9413 42.4976 34.1679 42.2816C34.3944 42.0686 34.6768 41.9592 35.0152 41.9592C35.4153 41.9592 35.8154 42.1515 36.2184 42.539L35.8595 42.9147C35.5624 42.6307 35.2711 42.4887 34.9887 42.4887C34.8151 42.4887 34.6621 42.5449 34.5297 42.6603C34.3974 42.7727 34.3297 42.9147 34.3297 43.0833C34.3297 43.3673 34.6062 43.6542 35.1564 43.9382C35.4947 44.1157 35.7418 44.2813 35.8948 44.4411C36.1125 44.6688 36.2184 44.9321 36.2184 45.2457ZM32.3998 43.7962C32.2615 43.2519 31.9673 42.8762 31.5172 42.6662C31.2848 42.5597 31.0376 42.5064 30.7817 42.5064C30.358 42.5064 29.9962 42.6425 29.6932 42.9117C29.4696 43.1069 29.3019 43.4028 29.1901 43.7962H32.3998ZM33.0087 44.2872H29.1283C29.1401 44.7724 29.2901 45.1747 29.5814 45.4971C29.8873 45.8344 30.2786 46.003 30.7552 46.003C31.2171 46.003 31.6054 45.8639 31.9261 45.5829C32.0703 45.4557 32.2291 45.2546 32.3968 44.9706L32.8675 45.2161C32.5763 45.787 32.1703 46.1686 31.6554 46.3668C31.4024 46.4645 31.1171 46.5147 30.8023 46.5147C30.1521 46.5147 29.6137 46.2988 29.1901 45.8699C28.7635 45.438 28.5517 44.8996 28.5517 44.2488C28.5517 43.6986 28.7194 43.2105 29.0547 42.7786C29.4813 42.2313 30.0521 41.9592 30.767 41.9592C31.5025 41.9592 32.0909 42.2402 32.5292 42.7993C32.844 43.2016 33.0029 43.6956 33.0087 44.2872ZM27.5691 46.4112H27.0071V44.3464C27.0071 43.8583 26.9866 43.524 26.9424 43.3465C26.8041 42.7727 26.4423 42.4828 25.8568 42.4828C25.5215 42.4828 25.2214 42.5922 24.9566 42.8141C24.6918 43.0359 24.5182 43.3111 24.4329 43.6424C24.38 43.8524 24.3535 44.2458 24.3535 44.8197V46.4053H23.7916V42.0686H24.3535V42.8525C24.7948 42.2579 25.3361 41.9621 25.9745 41.9621C26.2893 41.9621 26.5747 42.042 26.8277 42.2047C27.0807 42.3644 27.266 42.5893 27.3867 42.8703C27.5073 43.1543 27.5661 43.5891 27.5661 44.1808V46.4112H27.5691ZM22.6472 46.4112H22.0764V42.0686H22.6472V46.4112ZM22.8178 40.7463C22.8178 40.8735 22.7737 40.983 22.6825 41.0717C22.5942 41.1605 22.4854 41.2048 22.3588 41.2048C22.2353 41.2048 22.1294 41.1605 22.0382 41.0688C21.9499 40.98 21.9028 40.8735 21.9028 40.7463C21.9028 40.6191 21.947 40.5126 22.0352 40.4209C22.1235 40.3322 22.2294 40.2849 22.3588 40.2849C22.4854 40.2849 22.5913 40.3292 22.6825 40.4209C22.7737 40.5126 22.8178 40.6191 22.8178 40.7463ZM21.1879 45.2457C21.1879 45.6125 21.0614 45.9172 20.8114 46.1568C20.5613 46.3994 20.2495 46.5207 19.8847 46.5207C19.3522 46.5207 18.9285 46.3165 18.6108 45.9083L18.9609 45.506C19.2433 45.8225 19.5404 45.9793 19.8552 45.9793C20.0641 45.9793 20.2495 45.9113 20.4083 45.7752C20.5701 45.6391 20.6496 45.4676 20.6496 45.2634C20.6496 45.0564 20.5525 44.873 20.3613 44.7132C20.2642 44.6334 20.0788 44.5239 19.7993 44.3819C19.4787 44.2162 19.2463 44.0536 19.0962 43.8909C18.8962 43.6719 18.7961 43.4116 18.7961 43.1099C18.7961 42.7727 18.9109 42.4976 19.1374 42.2816C19.3639 42.0686 19.6464 41.9592 19.9847 41.9592C20.3818 41.9592 20.7849 42.1515 21.1879 42.539L20.829 42.9147C20.5319 42.6307 20.2406 42.4887 19.9582 42.4887C19.7846 42.4887 19.6316 42.5449 19.4993 42.6603C19.3669 42.7727 19.2992 42.9147 19.2992 43.0833C19.2992 43.3673 19.5758 43.6542 20.1259 43.9382C20.4642 44.1157 20.7084 44.2813 20.8643 44.4411C21.082 44.6688 21.1879 44.9321 21.1879 45.2457ZM17.7753 44.1985C17.7753 44.6866 17.7282 45.0741 17.637 45.3611C17.5105 45.7515 17.2781 46.0503 16.9427 46.2574C16.6603 46.429 16.3102 46.5177 15.8895 46.5177C15.0598 46.5177 14.4979 46.1923 14.2037 45.5415C14.0625 45.2368 13.9948 44.7753 13.9948 44.16V42.0716H14.5656V44.095C14.5656 44.5949 14.5921 44.9321 14.645 45.1126C14.7274 45.3877 14.8863 45.6036 15.1216 45.7575C15.3423 45.8994 15.6012 45.9734 15.8954 45.9734C16.1837 45.9734 16.4367 45.9054 16.6514 45.7693C16.8809 45.6243 17.0398 45.4202 17.128 45.1569C17.1839 44.9913 17.2104 44.6363 17.2104 44.095V42.0716H17.7812V44.1985H17.7753ZM12.4856 44.234C12.4856 43.9263 12.4091 43.6364 12.2532 43.3584C12.1002 43.0833 11.8913 42.8644 11.6266 42.7105C11.3647 42.5567 11.0853 42.4798 10.7881 42.4798C10.4851 42.4798 10.1997 42.5567 9.92612 42.7105C9.65252 42.8644 9.44364 43.0744 9.29948 43.3347C9.15238 43.598 9.07883 43.8909 9.07883 44.2192C9.07883 44.7132 9.24064 45.1274 9.56131 45.4676C9.88493 45.8048 10.288 45.9734 10.7793 45.9734C11.4383 45.9734 11.9296 45.6835 12.2562 45.1067C12.4121 44.8286 12.4856 44.5387 12.4856 44.234ZM13.0564 44.2488C13.0564 44.8759 12.8416 45.4113 12.4091 45.8521C11.9767 46.2958 11.453 46.5177 10.8322 46.5177C10.1291 46.5177 9.55837 46.216 9.12002 45.6095V46.4112H8.55811V40.3943H9.12002V42.823C9.58191 42.2491 10.1556 41.9651 10.847 41.9651C11.4677 41.9651 11.9943 42.1899 12.4209 42.6366C12.8416 43.0803 13.0564 43.6187 13.0564 44.2488Z" fill="#BA935F"/>
    <path d="M6.66604 34.1679C9.28011 34.1679 12.0631 33.2477 14.0108 31.2043C15.6722 29.4914 16.7516 27.0281 16.7516 23.5643V5.49066C16.7516 5.40572 16.6671 5.3255 16.5873 5.3255H16.2541C16.1696 5.3255 16.0898 5.41044 16.0898 5.49066V23.6068C16.0898 26.7355 15.1324 29.0761 13.6823 30.6617C11.8144 32.705 9.20033 33.5827 6.66604 33.5827C4.38049 33.5827 2.34836 32.705 0.438257 31.0345C0.273998 30.9071 0.18952 30.992 0.147282 31.1194L0.0252616 31.327C-0.0169766 31.4922 -0.0169764 31.5347 0.109738 31.6621C1.68663 33.0023 4.13644 34.1679 6.66604 34.1679Z" fill="white"/>
    <path d="M31.5725 33.6673C28.6253 33.6673 26.2177 32.4546 24.6408 30.4112C23.4393 28.8257 22.7307 26.7399 22.7307 24.2766H39.2927C39.4992 24.2766 39.5837 24.2341 39.5837 24.0265C39.5837 21.2281 38.7953 19.0999 37.3826 17.5143C35.9278 15.9287 33.7689 14.8009 31.1126 14.8009C28.1231 14.8009 25.8845 15.9287 24.3874 17.6794C22.8949 19.3924 22.144 21.7283 22.144 24.2341C22.144 26.905 22.9325 29.1607 24.2606 30.8312C25.9643 32.9595 28.5361 34.1723 31.5678 34.1723C34.5574 34.1723 37.087 33.0869 38.6263 32.1289C38.753 32.044 38.8328 32.0015 38.753 31.8788L38.6685 31.6712C38.5841 31.5863 38.5418 31.5485 38.3353 31.6712C36.7631 32.6669 34.3978 33.6673 31.5725 33.6673ZM22.7307 23.7339C22.8152 21.6906 23.5191 19.6001 24.683 18.1844C26.0957 16.4336 28.2123 15.3058 31.1173 15.3058C33.6094 15.3058 35.6415 16.3912 36.9274 17.854C38.1288 19.1895 38.9595 21.2328 39.0018 23.7386H22.7307V23.7339Z" fill="white"/>
    <path d="M45.8956 11.63C45.8956 11.545 45.8111 11.4648 45.7314 11.4648H45.4826C45.3981 11.4648 45.3184 11.5498 45.3184 11.63V27.9907C45.3184 29.7839 45.6093 31.2892 46.3555 32.3746C47.1862 33.5024 48.5566 34.1678 50.7155 34.1678C52.2923 34.1678 53.7895 33.7525 55.1974 32.7898C55.3241 32.7049 55.4039 32.6624 55.3241 32.5397L55.2396 32.3321C55.1552 32.2472 55.1176 32.2094 54.9064 32.3321C53.4515 33.3325 52.2079 33.6251 50.753 33.6251C48.7631 33.6251 47.5147 33.04 46.8108 31.9546C46.1443 30.9966 45.9003 29.6187 45.9003 27.9482V11.63H45.8956Z" fill="white"/>
    <path d="M62.8753 33.6674C60.5522 33.6674 58.3934 32.8746 57.145 32.0818C56.976 31.9969 56.8963 31.9969 56.854 32.1667L56.7695 32.3319C56.6851 32.4593 56.7273 32.5395 56.854 32.6245C57.8912 33.2096 60.0078 34.1676 62.8753 34.1676C64.6587 34.1676 66.1136 33.8325 67.1507 33.1672C68.4367 32.3744 69.1406 31.0389 69.1406 29.2032C69.1406 26.5748 67.2728 25.5696 65.2406 24.6966C64.0767 24.1539 61.7536 23.4838 60.1767 22.776C58.6421 22.1106 57.5204 21.1479 57.5204 19.2698C57.5204 18.057 57.9757 17.0991 58.8908 16.3912C59.8482 15.7258 61.2562 15.3058 63.2085 15.3058C65.0341 15.3058 66.8175 15.8061 68.0237 16.5564C68.1879 16.6413 68.2724 16.6413 68.3569 16.4714L68.4413 16.3063C68.4836 16.1836 68.4836 16.0986 68.3146 16.0137C67.2774 15.4285 65.4096 14.8056 63.2085 14.8056C61.0497 14.8056 59.3883 15.3058 58.3089 16.1836C57.3937 16.9339 56.9385 17.9768 56.9385 19.2698C56.9385 21.4405 58.3934 22.5683 59.9703 23.2762C61.5471 23.984 63.8702 24.6541 65.0341 25.1968C67.0663 26.117 68.5634 26.99 68.5634 29.2457C68.5634 30.7888 67.9814 31.9591 66.9442 32.7094C65.9868 33.3323 64.6164 33.6674 62.8753 33.6674Z" fill="white"/>
    <path d="M73.623 34.1255C73.9141 34.1255 74.1206 33.9179 74.1206 33.5828C74.1206 33.2903 73.9141 33.0826 73.623 33.0826C73.2896 33.0826 73.083 33.2903 73.083 33.5828C73.083 33.9179 73.2943 34.1255 73.623 34.1255Z" fill="white"/>
    <path d="M85.5388 15.386C87.1157 15.386 88.4439 15.8862 89.4388 16.7215C89.5655 16.8064 89.6876 16.8064 89.7298 16.7215L89.8941 16.4714C89.9363 16.3864 89.9363 16.3062 89.8096 16.2213C88.7724 15.386 87.402 14.8009 85.5341 14.8009C83.8728 14.8009 82.4601 15.4662 81.3807 16.5563C80.6345 17.3066 80.0526 18.3071 79.7194 19.3924H79.5926V15.3436C79.5926 15.2586 79.5082 15.1784 79.4284 15.1784H79.2219C79.1374 15.1784 79.0576 15.2633 79.0576 15.3436V33.5824C79.0576 33.6673 79.1421 33.7475 79.2219 33.7475H79.4706C79.5551 33.7475 79.6349 33.6626 79.6349 33.5824V23.8141C79.6349 21.6859 79.8836 19.5151 81.1695 17.637C82.0518 16.4289 83.5443 15.3436 85.5388 15.386Z" fill="white"/>
    <path d="M92.3062 26.0698C92.3062 28.4057 92.5971 29.6609 93.3856 31.0766C94.4227 32.9548 96.7881 34.1675 100.153 34.1675C103.513 34.1675 105.883 32.9548 106.921 31.0766C107.709 29.6562 108 28.4057 108 26.0698V15.3435C108 15.2586 107.915 15.1784 107.836 15.1784H107.587C107.502 15.1784 107.423 15.2633 107.423 15.3435V26.0273C107.423 28.3254 107.132 29.5335 106.386 30.784C105.47 32.4545 103.396 33.6201 100.158 33.6201C96.9195 33.6201 94.8451 32.4498 93.8877 30.784C93.1838 29.5335 92.8928 28.3207 92.8928 26.0273V15.3435C92.8928 15.2586 92.8083 15.1784 92.7285 15.1784H92.4798C92.3953 15.1784 92.3155 15.2633 92.3155 15.3435V26.0698H92.3062Z" fill="white"/>
    <path d="M24.1526 8.83629C24.0212 8.97314 23.8523 9.26572 23.7913 9.41673C23.7302 9.56773 23.7631 9.57245 26.227 10.3416C28.6909 11.1108 33.5764 12.6398 39.5461 13.4703C45.5157 14.3009 52.5648 14.4283 58.7738 13.56C64.9828 12.6917 70.3471 10.823 73.7355 9.54414C77.1193 8.27002 78.5272 7.58105 79.1749 7.246C79.8225 6.90623 79.7099 6.91567 79.2124 7.10443C78.7149 7.29791 77.8326 7.67542 76.1853 8.33136C74.5381 8.99202 72.1305 9.92638 69.6384 10.7239C67.1464 11.5214 64.5745 12.1773 62.7114 12.5737C60.8482 12.9748 59.6984 13.1164 58.3937 13.2674C57.0937 13.4184 55.6388 13.5789 53.2078 13.6874C50.7767 13.8007 47.3602 13.8667 43.9717 13.593C40.5833 13.3193 37.2277 12.7059 34.0974 11.9178C30.9671 11.1344 28.0714 10.1765 26.5086 9.61492C24.9458 9.05337 24.7205 8.89292 24.5562 8.79854C24.3873 8.71832 24.284 8.69472 24.1526 8.83629Z" fill="white"/>
    <path d="M85.7826 8.85548C85.8014 8.90738 85.8296 8.94514 85.8765 8.96401C85.9234 8.98289 85.9657 8.97817 86.0126 8.94986L86.6321 8.55346C86.7447 8.47796 86.8057 8.36942 86.8104 8.22313L86.6603 3.7637C86.6509 3.62213 86.7119 3.5136 86.8386 3.43338L88.9834 2.05072C89.1007 1.97521 89.1946 1.88555 89.2649 1.7723C89.5043 1.43725 89.57 1.14467 89.4574 0.894569C89.448 0.852098 89.4292 0.814346 89.4104 0.781313C89.387 0.74828 89.3588 0.710529 89.3166 0.672777C89.3072 0.663339 89.2978 0.649182 89.279 0.635025C89.2603 0.620868 89.2415 0.606711 89.2133 0.592554C89.1382 0.526489 89.0397 0.484018 88.9177 0.465142C88.7909 0.446266 88.6877 0.441547 88.5938 0.450985L88.439 0.47458C88.3169 0.507613 88.1949 0.559521 88.0823 0.635025L85.9328 2.01768C85.8061 2.09791 85.6841 2.10734 85.5574 2.04128L81.5917 0.0404345C81.4556 -0.0209122 81.3335 -0.0114742 81.2162 0.0593104L80.5967 0.455704C80.5498 0.484018 80.5263 0.526489 80.5263 0.573678C80.5263 0.620868 80.5451 0.668058 80.5873 0.70581L83.652 3.2399C83.7036 3.27293 83.727 3.3154 83.7224 3.36731C83.7177 3.41922 83.6895 3.46169 83.6426 3.49L81.9765 4.56121C81.8498 4.64143 81.7231 4.66031 81.5964 4.61312L81.0144 4.38189C80.8877 4.3347 80.761 4.34886 80.6343 4.42908L80.2213 4.69334C80.1743 4.72166 80.1509 4.76413 80.1509 4.81132C80.1509 4.85851 80.1696 4.9057 80.2119 4.94345L81.2021 5.81646C81.3101 5.91084 81.3852 6.02409 81.4227 6.16094L81.7935 7.43035C81.8122 7.48225 81.8404 7.52001 81.8873 7.53888C81.9343 7.55776 81.9765 7.55304 82.0234 7.52473L82.4364 7.26046C82.5631 7.18024 82.6289 7.0717 82.6382 6.93485L82.6711 6.30251C82.6805 6.16566 82.7509 6.05713 82.8729 5.9769L84.539 4.9057C84.5953 4.86794 84.6469 4.85851 84.6938 4.8821C84.7408 4.90098 84.7642 4.94345 84.7689 5.00479L85.7826 8.85548Z" fill="#BA935F"/>
</svg>
