<svg xmlns="http://www.w3.org/2000/svg" display="none">

    <symbol id="fb" viewBox="0 0 10 18">
        <path fill-rule="evenodd" clip-rule="evenodd"
              d="M6.35201 17.2051H2.71439V9.456H0.896484V6.46983H2.71439V4.67849C2.71439 2.24414 3.74071 0.79483 6.65682 0.79483H9.08433V3.781H7.56759C6.43208 3.781 6.35656 4.19782 6.35656 4.97675L6.35201 6.46983H9.10161L8.77952 9.456H6.35201V17.2051Z"/>
    </symbol>

    <symbol id="twitter" viewBox="0 0 18 14">
        <path fill-rule="evenodd" clip-rule="evenodd"
              d="M17.2057 1.91152C16.6023 2.17916 15.9525 2.36012 15.2719 2.44203C15.967 2.02486 16.5009 1.36577 16.7519 0.579997C16.1012 0.965739 15.381 1.24576 14.6135 1.39625C13.9995 0.741914 13.1248 0.333313 12.1565 0.333313C10.2971 0.333313 8.78911 1.84009 8.78911 3.69927C8.78911 3.96405 8.82 4.22026 8.87696 4.46694C6.07917 4.32693 3.599 2.98588 1.93847 0.949547C1.64788 1.44673 1.48279 2.02486 1.48279 2.64205C1.48279 3.80975 2.07749 4.8403 2.98016 5.4432C2.42794 5.42606 1.90854 5.27462 1.45576 5.02222C1.45576 5.03651 1.45576 5.05079 1.45576 5.06508C1.45576 6.69567 2.61523 8.05577 4.15605 8.36531C3.87318 8.44246 3.57679 8.48342 3.26882 8.48342C3.05257 8.48342 2.84114 8.46246 2.63551 8.42246C3.06415 9.7597 4.30762 10.7331 5.78085 10.7607C4.62814 11.6627 3.17614 12.2008 1.59864 12.2008C1.32736 12.2008 1.05897 12.1856 0.79541 12.1542C2.28506 13.1095 4.05468 13.6666 5.95656 13.6666C12.1488 13.6666 15.5355 8.53771 15.5355 4.08977C15.5355 3.94309 15.5316 3.79927 15.5258 3.6545C16.1833 3.18018 16.7548 2.58681 17.2057 1.91247V1.91152Z"/>
    </symbol>

    <symbol id="vk" viewBox="0 0 19 12">
        <path d="M16.1461 7.71939C16.7585 8.3357 17.4049 8.91555 17.9541 9.59401C18.1967 9.8955 18.4264 10.2066 18.6022 10.5565C18.8512 11.0539 18.6256 11.6012 18.193 11.6309L15.5034 11.6297C14.8098 11.689 14.2564 11.4012 13.7911 10.9123C13.4187 10.5213 13.0739 10.1052 12.7158 9.70105C12.569 9.53586 12.4154 9.38042 12.2319 9.25756C11.8647 9.0119 11.546 9.08712 11.3362 9.48184C11.1225 9.88331 11.074 10.3279 11.0531 10.7753C11.0242 11.4281 10.8328 11.5997 10.1966 11.6296C8.83707 11.6957 7.54678 11.4837 6.34813 10.7767C5.29137 10.1535 4.4719 9.27363 3.75863 8.27755C2.36989 6.33798 1.30639 4.2067 0.350561 2.01571C0.135411 1.52208 0.292755 1.2571 0.821138 1.24772C1.69854 1.23015 2.57582 1.23141 3.45425 1.24647C3.81086 1.25185 4.04693 1.46268 4.18462 1.80995C4.65933 3.01311 5.24018 4.15781 5.96927 5.21885C6.16343 5.50133 6.36142 5.78382 6.64335 5.98265C6.95525 6.2028 7.19272 6.12983 7.33945 5.77169C7.43256 5.5446 7.47332 5.30001 7.49431 5.05678C7.56382 4.22002 7.57298 3.38469 7.45106 2.55086C7.37621 2.03047 7.09185 1.69359 6.58809 1.59511C6.33103 1.5449 6.3693 1.4463 6.49377 1.29506C6.70995 1.0342 6.91328 0.871826 7.31859 0.871826H10.3582C10.8367 0.969177 10.943 1.19076 11.0085 1.68708L11.0111 5.16739C11.0059 5.35953 11.1042 5.92969 11.4399 6.05687C11.7086 6.1474 11.8857 5.92581 12.047 5.75018C12.7747 4.95399 13.2941 4.01306 13.7582 3.03874C13.9641 2.61032 14.1412 2.1654 14.3128 1.72085C14.4399 1.39097 14.6394 1.22865 14.9999 1.23584L17.9253 1.23853C18.012 1.23853 18.0998 1.23985 18.1838 1.25466C18.6768 1.34126 18.8119 1.55985 18.6596 2.05604C18.4197 2.83454 17.953 3.48329 17.4966 4.13505C17.0087 4.83088 16.4869 5.5029 16.0031 6.20286C15.5586 6.84205 15.5939 7.16424 16.1461 7.71939Z"/>
    </symbol>

    <symbol id="telegram" viewBox="0 0 19 18">
        <path fill-rule="evenodd" clip-rule="evenodd"
              d="M5.02297 10.3495L0.944007 8.74391C0.529732 8.58014 0.526136 7.9633 0.939236 7.79526L17.6794 0.984346C18.0343 0.839579 18.4005 1.16751 18.3232 1.56057L15.3191 16.8011C15.2483 17.161 14.8482 17.3242 14.5659 17.1077L10.465 13.9676C10.2159 13.7769 9.87641 13.7871 9.63809 13.9919L7.36441 15.9468C7.10047 16.1744 6.70282 16.0476 6.60179 15.7046L5.02297 10.3495ZM14.318 4.31644L6.34622 9.49473C6.04068 9.69365 5.89681 10.0828 5.99553 10.4471L6.85744 13.6413C6.91864 13.8677 7.23016 13.8445 7.25982 13.6106L7.48394 11.8589C7.52619 11.5291 7.67538 11.2253 7.90661 10.9983L14.4857 4.54832C14.6087 4.42795 14.4613 4.22363 14.318 4.31644Z"
              fill="#BA935F"/>
        <path d="M6.34638 9.49473L14.3182 4.31644C14.4615 4.22363 14.6089 4.42795 14.4858 4.54832L7.90678 10.9983C7.67554 11.2253 7.52635 11.5291 7.4841 11.8589L7.25999 13.6106C7.23032 13.8445 6.9188 13.8677 6.8576 13.6413L5.99569 10.4471C5.89698 10.0828 6.04084 9.69365 6.34638 9.49473Z"
              fill="#AE762C"/>
    </symbol>


    <symbol id="chevron-left" viewBox="0 0 24 24">
        <path d="M14.7071 5.29289C15.0976 5.68342 15.0976 6.31658 14.7071 6.70711L9.41421 12L14.7071 17.2929C15.0976 17.6834 15.0976 18.3166 14.7071 18.7071C14.3166 19.0976 13.6834 19.0976 13.2929 18.7071L7.29289 12.7071C6.90237 12.3166 6.90237 11.6834 7.29289 11.2929L13.2929 5.29289C13.6834 4.90237 14.3166 4.90237 14.7071 5.29289Z"/>
    </symbol>

    <symbol id="chevron-right" viewBox="0 0 25 24">
        <path d="M9.82219 5.29289C9.43167 5.68342 9.43167 6.31658 9.82219 6.70711L15.1151 12L9.82219 17.2929C9.43167 17.6834 9.43167 18.3166 9.82219 18.7071C10.2127 19.0976 10.8459 19.0976 11.2364 18.7071L17.2364 12.7071C17.6269 12.3166 17.6269 11.6834 17.2364 11.2929L11.2364 5.29289C10.8459 4.90237 10.2127 4.90237 9.82219 5.29289Z"
              fill="black"/>
    </symbol>

    <symbol id="search" viewBox="0 0 16 16">
        <path d="M6.66683 2.66659C4.45769 2.66659 2.66683 4.45745 2.66683 6.66659C2.66683 8.87572 4.45769 10.6666 6.66683 10.6666C8.87597 10.6666 10.6668 8.87572 10.6668 6.66659C10.6668 4.45745 8.87597 2.66659 6.66683 2.66659ZM1.3335 6.66659C1.3335 3.72107 3.72131 1.33325 6.66683 1.33325C9.61235 1.33325 12.0002 3.72107 12.0002 6.66659C12.0002 7.89906 11.5821 9.03389 10.8801 9.93701L14.4716 13.5285C14.7319 13.7889 14.7319 14.211 14.4716 14.4713C14.2112 14.7317 13.7891 14.7317 13.5288 14.4713L9.93726 10.8798C9.03414 11.5819 7.8993 11.9999 6.66683 11.9999C3.72131 11.9999 1.3335 9.6121 1.3335 6.66659Z"/>
    </symbol>

    <symbol id="calendar" viewBox="0 0 24 24">
        <path d="M9 2C9.55228 2 10 2.44772 10 3V4H14V3C14 2.44772 14.4477 2 15 2C15.5523 2 16 2.44772 16 3V4H19C20.1046 4 21 4.89543 21 6V19C21 20.1046 20.1046 21 19 21H5C3.89543 21 3 20.1046 3 19V6C3 4.89543 3.89543 4 5 4H8V3C8 2.44772 8.44772 2 9 2ZM8 6H5V9H19V6H16V7C16 7.55228 15.5523 8 15 8C14.4477 8 14 7.55228 14 7V6H10V7C10 7.55228 9.55228 8 9 8C8.44772 8 8 7.55228 8 7V6ZM19 11H5V19H19V11Z"/>
    </symbol>

    <symbol id="heart" viewBox="0 0 22 22">
        <path d="M10.9992 4.35791C8.90517 2.48168 5.6848 2.54975 3.67245 4.5621C1.58965 6.64489 1.58965 10.0218 3.67245 12.1046L9.74216 18.1743C10.4364 18.8686 11.5621 18.8685 12.2563 18.1743L18.326 12.1046C20.4088 10.0218 20.4088 6.64489 18.326 4.5621C16.3137 2.54975 13.0933 2.48168 10.9992 4.35791ZM9.95784 5.81918L10.3707 6.23203C10.7178 6.57917 11.2806 6.57917 11.6278 6.23203L12.0406 5.81918C13.4292 4.43065 15.6804 4.43065 17.069 5.81918C18.4575 7.20771 18.4575 9.45896 17.069 10.8475L10.9992 16.9172L4.92953 10.8475C3.541 9.45896 3.541 7.20771 4.92953 5.81918C6.31806 4.43065 8.56931 4.43065 9.95784 5.81918Z"/>
    </symbol>

    <symbol id="comparison" viewBox="0 0 24 24">
        <path d="M12 4C12.5523 4 13 4.44772 13 5V19C13 19.5523 12.5523 20 12 20C11.4477 20 11 19.5523 11 19V5C11 4.44772 11.4477 4 12 4ZM17 8C17.5523 8 18 8.44772 18 9V19C18 19.5523 17.5523 20 17 20C16.4477 20 16 19.5523 16 19V9C16 8.44772 16.4477 8 17 8ZM7 12C7.55228 12 8 12.4477 8 13V19C8 19.5523 7.55228 20 7 20C6.44772 20 6 19.5523 6 19V13C6 12.4477 6.44772 12 7 12Z"/>
    </symbol>

    <symbol id="chat" viewBox="0 0 24 24">
        <path d="M2 6C2 4.89543 2.89543 4 4 4H20C21.1046 4 22 4.89543 22 6V17C22 18.1046 21.1046 19 20 19H15.4142L12.7071 21.7071C12.3166 22.0976 11.6834 22.0976 11.2929 21.7071L8.58579 19H4C2.89543 19 2 18.1046 2 17V6ZM20 6H4V17H9C9.26522 17 9.51957 17.1054 9.70711 17.2929L12 19.5858L14.2929 17.2929C14.4804 17.1054 14.7348 17 15 17H20V6Z"/>
        <path d="M13.5 11.5C13.5 12.3284 12.8284 13 12 13C11.1716 13 10.5 12.3284 10.5 11.5C10.5 10.6716 11.1716 10 12 10C12.8284 10 13.5 10.6716 13.5 11.5Z"/>
        <path d="M17.5 11.5C17.5 12.3284 16.8284 13 16 13C15.1716 13 14.5 12.3284 14.5 11.5C14.5 10.6716 15.1716 10 16 10C16.8284 10 17.5 10.6716 17.5 11.5Z"/>
        <path d="M9.5 11.5C9.5 12.3284 8.82843 13 8 13C7.17157 13 6.5 12.3284 6.5 11.5C6.5 10.6716 7.17157 10 8 10C8.82843 10 9.5 10.6716 9.5 11.5Z"/>
    </symbol>

</svg>