<svg xmlns="http://www.w3.org/2000/svg" display="none">

    <symbol id="fb" viewBox="0 0 10 18">
        <path fill-rule="evenodd" clip-rule="evenodd"
              d="M6.35201 17.2051H2.71439V9.456H0.896484V6.46983H2.71439V4.67849C2.71439 2.24414 3.74071 0.79483 6.65682 0.79483H9.08433V3.781H7.56759C6.43208 3.781 6.35656 4.19782 6.35656 4.97675L6.35201 6.46983H9.10161L8.77952 9.456H6.35201V17.2051Z"/>
    </symbol>

    <symbol id="facebook" viewBox="0 0 24 24">
        <path d="M24 12C24 5.37258 18.6274 0 12 0C5.37258 0 0 5.37258 0 12C0 17.9895 4.3882 22.954 10.125 23.8542V15.4688H7.07812V12H10.125V9.35625C10.125 6.34875 11.9166 4.6875 14.6576 4.6875C15.9701 4.6875 17.3438 4.92188 17.3438 4.92188V7.875H15.8306C14.34 7.875 13.875 8.80008 13.875 9.75V12H17.2031L16.6711 15.4688H13.875V23.8542C19.6118 22.954 24 17.9895 24 12Z"
              fill="#BCBCBC"/>
        <path d="M16.6711 15.4688L17.2031 12H13.875V9.75C13.875 8.80102 14.34 7.875 15.8306 7.875H17.3438V4.92188C17.3438 4.92188 15.9705 4.6875 14.6576 4.6875C11.9166 4.6875 10.125 6.34875 10.125 9.35625V12H7.07812V15.4688H10.125V23.8542C11.3674 24.0486 12.6326 24.0486 13.875 23.8542V15.4688H16.6711Z"
              fill="white"/>
    </symbol>

    <symbol id="instagram" viewBox="0 0 24 24">
        <path d="M12 2.16094C15.2063 2.16094 15.5859 2.175 16.8469 2.23125C18.0188 2.28281 18.6516 2.47969 19.0734 2.64375C19.6313 2.85938 20.0344 3.12188 20.4516 3.53906C20.8734 3.96094 21.1313 4.35938 21.3469 4.91719C21.5109 5.33906 21.7078 5.97656 21.7594 7.14375C21.8156 8.40937 21.8297 8.78906 21.8297 11.9906C21.8297 15.1969 21.8156 15.5766 21.7594 16.8375C21.7078 18.0094 21.5109 18.6422 21.3469 19.0641C21.1313 19.6219 20.8687 20.025 20.4516 20.4422C20.0297 20.8641 19.6313 21.1219 19.0734 21.3375C18.6516 21.5016 18.0141 21.6984 16.8469 21.75C15.5813 21.8062 15.2016 21.8203 12 21.8203C8.79375 21.8203 8.41406 21.8062 7.15313 21.75C5.98125 21.6984 5.34844 21.5016 4.92656 21.3375C4.36875 21.1219 3.96563 20.8594 3.54844 20.4422C3.12656 20.0203 2.86875 19.6219 2.65313 19.0641C2.48906 18.6422 2.29219 18.0047 2.24063 16.8375C2.18438 15.5719 2.17031 15.1922 2.17031 11.9906C2.17031 8.78438 2.18438 8.40469 2.24063 7.14375C2.29219 5.97187 2.48906 5.33906 2.65313 4.91719C2.86875 4.35938 3.13125 3.95625 3.54844 3.53906C3.97031 3.11719 4.36875 2.85938 4.92656 2.64375C5.34844 2.47969 5.98594 2.28281 7.15313 2.23125C8.41406 2.175 8.79375 2.16094 12 2.16094ZM12 0C8.74219 0 8.33438 0.0140625 7.05469 0.0703125C5.77969 0.126563 4.90313 0.332812 4.14375 0.628125C3.35156 0.9375 2.68125 1.34531 2.01563 2.01562C1.34531 2.68125 0.9375 3.35156 0.628125 4.13906C0.332812 4.90313 0.126563 5.775 0.0703125 7.05C0.0140625 8.33437 0 8.74219 0 12C0 15.2578 0.0140625 15.6656 0.0703125 16.9453C0.126563 18.2203 0.332812 19.0969 0.628125 19.8563C0.9375 20.6484 1.34531 21.3188 2.01563 21.9844C2.68125 22.65 3.35156 23.0625 4.13906 23.3672C4.90313 23.6625 5.775 23.8687 7.05 23.925C8.32969 23.9812 8.7375 23.9953 11.9953 23.9953C15.2531 23.9953 15.6609 23.9812 16.9406 23.925C18.2156 23.8687 19.0922 23.6625 19.8516 23.3672C20.6391 23.0625 21.3094 22.65 21.975 21.9844C22.6406 21.3188 23.0531 20.6484 23.3578 19.8609C23.6531 19.0969 23.8594 18.225 23.9156 16.95C23.9719 15.6703 23.9859 15.2625 23.9859 12.0047C23.9859 8.74688 23.9719 8.33906 23.9156 7.05938C23.8594 5.78438 23.6531 4.90781 23.3578 4.14844C23.0625 3.35156 22.6547 2.68125 21.9844 2.01562C21.3188 1.35 20.6484 0.9375 19.8609 0.632812C19.0969 0.3375 18.225 0.13125 16.95 0.075C15.6656 0.0140625 15.2578 0 12 0Z"/>
        <path d="M12 5.83594C8.59688 5.83594 5.83594 8.59688 5.83594 12C5.83594 15.4031 8.59688 18.1641 12 18.1641C15.4031 18.1641 18.1641 15.4031 18.1641 12C18.1641 8.59688 15.4031 5.83594 12 5.83594ZM12 15.9984C9.79219 15.9984 8.00156 14.2078 8.00156 12C8.00156 9.79219 9.79219 8.00156 12 8.00156C14.2078 8.00156 15.9984 9.79219 15.9984 12C15.9984 14.2078 14.2078 15.9984 12 15.9984Z"/>
        <path d="M19.8469 5.59214C19.8469 6.38902 19.2 7.03121 18.4078 7.03121C17.6109 7.03121 16.9688 6.38433 16.9688 5.59214C16.9688 4.79526 17.6156 4.15308 18.4078 4.15308C19.2 4.15308 19.8469 4.79995 19.8469 5.59214Z"/>
    </symbol>

    <symbol id="telegram-icon" viewBox="0 0 24 24">
        <path d="M12 24C18.6274 24 24 18.6274 24 12C24 5.37258 18.6274 0 12 0C5.37258 0 0 5.37258 0 12C0 18.6274 5.37258 24 12 24Z"
              fill="#BCBCBC"/>
        <path fill-rule="evenodd" clip-rule="evenodd"
              d="M5.43201 11.8734C8.93026 10.3493 11.263 9.34452 12.4301 8.85905C15.7627 7.47294 16.4551 7.23216 16.9065 7.22421C17.0058 7.22246 17.2277 7.24706 17.3715 7.36372C17.4929 7.46223 17.5263 7.5953 17.5423 7.6887C17.5583 7.78209 17.5782 7.99485 17.5623 8.1611C17.3817 10.0586 16.6003 14.6633 16.2028 16.7885C16.0346 17.6877 15.7034 17.9892 15.3827 18.0188C14.6858 18.0829 14.1567 17.5582 13.4817 17.1158C12.4256 16.4235 11.8289 15.9925 10.8037 15.3169C9.61896 14.5362 10.387 14.107 11.0622 13.4058C11.2389 13.2222 14.3093 10.4295 14.3687 10.1761C14.3762 10.1444 14.3831 10.0263 14.3129 9.96397C14.2427 9.9016 14.1392 9.92293 14.0644 9.93989C13.9585 9.96393 12.2713 11.0791 9.00276 13.2855C8.52385 13.6143 8.09007 13.7745 7.70141 13.7662C7.27295 13.7569 6.44876 13.5239 5.83606 13.3247C5.08456 13.0804 4.48728 12.9513 4.53929 12.5364C4.56638 12.3203 4.86395 12.0993 5.43201 11.8734Z"
              fill="white"/>
    </symbol>

    <symbol id="vk-icon" viewBox="0 0 24 24">
        <path d="M0 11.5C0 6.0792 0 3.368 1.684 1.684C3.368 0 6.08 0 11.5 0H12.5C17.9208 0 20.632 0 22.316 1.684C24 3.368 24 6.08 24 11.5V12.5C24 17.9208 24 20.632 22.316 22.316C20.632 24 17.92 24 12.5 24H11.5C6.0792 24 3.368 24 1.684 22.316C0 20.632 0 17.92 0 12.5V11.5Z"
              fill="#BCBCBC"/>
        <path fill-rule="evenodd" clip-rule="evenodd"
              d="M6.49999 7.5H4.75039C4.25039 7.5 4.15039 7.7352 4.15039 7.9952C4.15039 8.4584 4.74319 10.7576 6.91279 13.7976C8.35839 15.8744 10.396 17 12.2496 17C13.3624 17 13.5 16.7496 13.5 16.32V14.7504C13.5 14.2504 13.6056 14.1504 13.9576 14.1504C14.2176 14.1504 14.6616 14.28 15.7008 15.2808C16.8872 16.468 17.0824 17 17.7496 17H19.5C20 17 20.2504 16.7496 20.1056 16.256C19.948 15.7648 19.3816 15.0512 18.6296 14.2056C18.2216 13.724 17.6104 13.2048 17.4248 12.9448C17.1648 12.6112 17.2392 12.4632 17.4248 12.1664C17.4248 12.1664 19.5568 9.1632 19.7792 8.1432C19.8912 7.7728 19.7792 7.5 19.2496 7.5H17.5C17.0552 7.5 16.8496 7.7352 16.7384 7.9952C16.7384 7.9952 15.8488 10.164 14.588 11.5728C14.18 11.9808 13.9944 12.1112 13.772 12.1112C13.6608 12.1112 13.5 11.9808 13.5 11.6104V8.1432C13.5 7.6984 13.3712 7.5 13 7.5H10.2496C9.97199 7.5 9.80479 7.7064 9.80479 7.9024C9.80479 8.324 10.4352 8.4216 10.5 9.608V12.1848C10.5 12.7504 10.3984 12.8528 10.1752 12.8528C9.58239 12.8528 8.13919 10.6736 7.28319 8.1808C7.11519 7.696 6.94719 7.5 6.49999 7.5Z"
              fill="white"/>
    </symbol>


    <symbol id="twitter" viewBox="0 0 18 14">
        <path fill-rule="evenodd" clip-rule="evenodd"
              d="M17.2057 1.91152C16.6023 2.17916 15.9525 2.36012 15.2719 2.44203C15.967 2.02486 16.5009 1.36577 16.7519 0.579997C16.1012 0.965739 15.381 1.24576 14.6135 1.39625C13.9995 0.741914 13.1248 0.333313 12.1565 0.333313C10.2971 0.333313 8.78911 1.84009 8.78911 3.69927C8.78911 3.96405 8.82 4.22026 8.87696 4.46694C6.07917 4.32693 3.599 2.98588 1.93847 0.949547C1.64788 1.44673 1.48279 2.02486 1.48279 2.64205C1.48279 3.80975 2.07749 4.8403 2.98016 5.4432C2.42794 5.42606 1.90854 5.27462 1.45576 5.02222C1.45576 5.03651 1.45576 5.05079 1.45576 5.06508C1.45576 6.69567 2.61523 8.05577 4.15605 8.36531C3.87318 8.44246 3.57679 8.48342 3.26882 8.48342C3.05257 8.48342 2.84114 8.46246 2.63551 8.42246C3.06415 9.7597 4.30762 10.7331 5.78085 10.7607C4.62814 11.6627 3.17614 12.2008 1.59864 12.2008C1.32736 12.2008 1.05897 12.1856 0.79541 12.1542C2.28506 13.1095 4.05468 13.6666 5.95656 13.6666C12.1488 13.6666 15.5355 8.53771 15.5355 4.08977C15.5355 3.94309 15.5316 3.79927 15.5258 3.6545C16.1833 3.18018 16.7548 2.58681 17.2057 1.91247V1.91152Z"/>
    </symbol>

    <symbol id="vk" viewBox="0 0 19 12">
        <path d="M16.1461 7.71939C16.7585 8.3357 17.4049 8.91555 17.9541 9.59401C18.1967 9.8955 18.4264 10.2066 18.6022 10.5565C18.8512 11.0539 18.6256 11.6012 18.193 11.6309L15.5034 11.6297C14.8098 11.689 14.2564 11.4012 13.7911 10.9123C13.4187 10.5213 13.0739 10.1052 12.7158 9.70105C12.569 9.53586 12.4154 9.38042 12.2319 9.25756C11.8647 9.0119 11.546 9.08712 11.3362 9.48184C11.1225 9.88331 11.074 10.3279 11.0531 10.7753C11.0242 11.4281 10.8328 11.5997 10.1966 11.6296C8.83707 11.6957 7.54678 11.4837 6.34813 10.7767C5.29137 10.1535 4.4719 9.27363 3.75863 8.27755C2.36989 6.33798 1.30639 4.2067 0.350561 2.01571C0.135411 1.52208 0.292755 1.2571 0.821138 1.24772C1.69854 1.23015 2.57582 1.23141 3.45425 1.24647C3.81086 1.25185 4.04693 1.46268 4.18462 1.80995C4.65933 3.01311 5.24018 4.15781 5.96927 5.21885C6.16343 5.50133 6.36142 5.78382 6.64335 5.98265C6.95525 6.2028 7.19272 6.12983 7.33945 5.77169C7.43256 5.5446 7.47332 5.30001 7.49431 5.05678C7.56382 4.22002 7.57298 3.38469 7.45106 2.55086C7.37621 2.03047 7.09185 1.69359 6.58809 1.59511C6.33103 1.5449 6.3693 1.4463 6.49377 1.29506C6.70995 1.0342 6.91328 0.871826 7.31859 0.871826H10.3582C10.8367 0.969177 10.943 1.19076 11.0085 1.68708L11.0111 5.16739C11.0059 5.35953 11.1042 5.92969 11.4399 6.05687C11.7086 6.1474 11.8857 5.92581 12.047 5.75018C12.7747 4.95399 13.2941 4.01306 13.7582 3.03874C13.9641 2.61032 14.1412 2.1654 14.3128 1.72085C14.4399 1.39097 14.6394 1.22865 14.9999 1.23584L17.9253 1.23853C18.012 1.23853 18.0998 1.23985 18.1838 1.25466C18.6768 1.34126 18.8119 1.55985 18.6596 2.05604C18.4197 2.83454 17.953 3.48329 17.4966 4.13505C17.0087 4.83088 16.4869 5.5029 16.0031 6.20286C15.5586 6.84205 15.5939 7.16424 16.1461 7.71939Z"/>
    </symbol>

    <symbol id="telegram" viewBox="0 0 19 18">
        <path fill-rule="evenodd" clip-rule="evenodd"
              d="M5.02297 10.3495L0.944007 8.74391C0.529732 8.58014 0.526136 7.9633 0.939236 7.79526L17.6794 0.984346C18.0343 0.839579 18.4005 1.16751 18.3232 1.56057L15.3191 16.8011C15.2483 17.161 14.8482 17.3242 14.5659 17.1077L10.465 13.9676C10.2159 13.7769 9.87641 13.7871 9.63809 13.9919L7.36441 15.9468C7.10047 16.1744 6.70282 16.0476 6.60179 15.7046L5.02297 10.3495ZM14.318 4.31644L6.34622 9.49473C6.04068 9.69365 5.89681 10.0828 5.99553 10.4471L6.85744 13.6413C6.91864 13.8677 7.23016 13.8445 7.25982 13.6106L7.48394 11.8589C7.52619 11.5291 7.67538 11.2253 7.90661 10.9983L14.4857 4.54832C14.6087 4.42795 14.4613 4.22363 14.318 4.31644Z"
              fill="#BA935F"/>
        <path d="M6.34638 9.49473L14.3182 4.31644C14.4615 4.22363 14.6089 4.42795 14.4858 4.54832L7.90678 10.9983C7.67554 11.2253 7.52635 11.5291 7.4841 11.8589L7.25999 13.6106C7.23032 13.8445 6.9188 13.8677 6.8576 13.6413L5.99569 10.4471C5.89698 10.0828 6.04084 9.69365 6.34638 9.49473Z"
              fill="#AE762C"/>
    </symbol>


    <symbol id="chevron-left" viewBox="0 0 24 24">
        <path d="M14.7071 5.29289C15.0976 5.68342 15.0976 6.31658 14.7071 6.70711L9.41421 12L14.7071 17.2929C15.0976 17.6834 15.0976 18.3166 14.7071 18.7071C14.3166 19.0976 13.6834 19.0976 13.2929 18.7071L7.29289 12.7071C6.90237 12.3166 6.90237 11.6834 7.29289 11.2929L13.2929 5.29289C13.6834 4.90237 14.3166 4.90237 14.7071 5.29289Z"/>
    </symbol>

    <symbol id="chevron-right" viewBox="0 0 25 24">
        <path d="M9.82219 5.29289C9.43167 5.68342 9.43167 6.31658 9.82219 6.70711L15.1151 12L9.82219 17.2929C9.43167 17.6834 9.43167 18.3166 9.82219 18.7071C10.2127 19.0976 10.8459 19.0976 11.2364 18.7071L17.2364 12.7071C17.6269 12.3166 17.6269 11.6834 17.2364 11.2929L11.2364 5.29289C10.8459 4.90237 10.2127 4.90237 9.82219 5.29289Z"/>
    </symbol>

    <symbol id="search" viewBox="0 0 16 16">
        <path d="M6.66683 2.66659C4.45769 2.66659 2.66683 4.45745 2.66683 6.66659C2.66683 8.87572 4.45769 10.6666 6.66683 10.6666C8.87597 10.6666 10.6668 8.87572 10.6668 6.66659C10.6668 4.45745 8.87597 2.66659 6.66683 2.66659ZM1.3335 6.66659C1.3335 3.72107 3.72131 1.33325 6.66683 1.33325C9.61235 1.33325 12.0002 3.72107 12.0002 6.66659C12.0002 7.89906 11.5821 9.03389 10.8801 9.93701L14.4716 13.5285C14.7319 13.7889 14.7319 14.211 14.4716 14.4713C14.2112 14.7317 13.7891 14.7317 13.5288 14.4713L9.93726 10.8798C9.03414 11.5819 7.8993 11.9999 6.66683 11.9999C3.72131 11.9999 1.3335 9.6121 1.3335 6.66659Z"/>
    </symbol>

    <symbol id="calendar" viewBox="0 0 24 24">
        <path d="M9 2C9.55228 2 10 2.44772 10 3V4H14V3C14 2.44772 14.4477 2 15 2C15.5523 2 16 2.44772 16 3V4H19C20.1046 4 21 4.89543 21 6V19C21 20.1046 20.1046 21 19 21H5C3.89543 21 3 20.1046 3 19V6C3 4.89543 3.89543 4 5 4H8V3C8 2.44772 8.44772 2 9 2ZM8 6H5V9H19V6H16V7C16 7.55228 15.5523 8 15 8C14.4477 8 14 7.55228 14 7V6H10V7C10 7.55228 9.55228 8 9 8C8.44772 8 8 7.55228 8 7V6ZM19 11H5V19H19V11Z"/>
    </symbol>

    <symbol id="heart" viewBox="0 0 22 22">
        <path d="M10.9992 4.35791C8.90517 2.48168 5.6848 2.54975 3.67245 4.5621C1.58965 6.64489 1.58965 10.0218 3.67245 12.1046L9.74216 18.1743C10.4364 18.8686 11.5621 18.8685 12.2563 18.1743L18.326 12.1046C20.4088 10.0218 20.4088 6.64489 18.326 4.5621C16.3137 2.54975 13.0933 2.48168 10.9992 4.35791ZM9.95784 5.81918L10.3707 6.23203C10.7178 6.57917 11.2806 6.57917 11.6278 6.23203L12.0406 5.81918C13.4292 4.43065 15.6804 4.43065 17.069 5.81918C18.4575 7.20771 18.4575 9.45896 17.069 10.8475L10.9992 16.9172L4.92953 10.8475C3.541 9.45896 3.541 7.20771 4.92953 5.81918C6.31806 4.43065 8.56931 4.43065 9.95784 5.81918Z"/>
    </symbol>

    <symbol id="comparison" viewBox="0 0 24 24">
        <path d="M12 4C12.5523 4 13 4.44772 13 5V19C13 19.5523 12.5523 20 12 20C11.4477 20 11 19.5523 11 19V5C11 4.44772 11.4477 4 12 4ZM17 8C17.5523 8 18 8.44772 18 9V19C18 19.5523 17.5523 20 17 20C16.4477 20 16 19.5523 16 19V9C16 8.44772 16.4477 8 17 8ZM7 12C7.55228 12 8 12.4477 8 13V19C8 19.5523 7.55228 20 7 20C6.44772 20 6 19.5523 6 19V13C6 12.4477 6.44772 12 7 12Z"/>
    </symbol>

    <symbol id="chat" viewBox="0 0 24 24">
        <path d="M2 6C2 4.89543 2.89543 4 4 4H20C21.1046 4 22 4.89543 22 6V17C22 18.1046 21.1046 19 20 19H15.4142L12.7071 21.7071C12.3166 22.0976 11.6834 22.0976 11.2929 21.7071L8.58579 19H4C2.89543 19 2 18.1046 2 17V6ZM20 6H4V17H9C9.26522 17 9.51957 17.1054 9.70711 17.2929L12 19.5858L14.2929 17.2929C14.4804 17.1054 14.7348 17 15 17H20V6Z"/>
        <path d="M13.5 11.5C13.5 12.3284 12.8284 13 12 13C11.1716 13 10.5 12.3284 10.5 11.5C10.5 10.6716 11.1716 10 12 10C12.8284 10 13.5 10.6716 13.5 11.5Z"/>
        <path d="M17.5 11.5C17.5 12.3284 16.8284 13 16 13C15.1716 13 14.5 12.3284 14.5 11.5C14.5 10.6716 15.1716 10 16 10C16.8284 10 17.5 10.6716 17.5 11.5Z"/>
        <path d="M9.5 11.5C9.5 12.3284 8.82843 13 8 13C7.17157 13 6.5 12.3284 6.5 11.5C6.5 10.6716 7.17157 10 8 10C8.82843 10 9.5 10.6716 9.5 11.5Z"/>
    </symbol>

    <symbol id="share" viewBox="0 0 20 15">
        <path d="M12.0741 3.91111V0L19.3334 6.84444L12.0741 13.6889V9.68C6.88893 9.68 3.2593 11.2444 0.666706 14.6667C1.70374 9.77778 4.81485 4.88889 12.0741 3.91111Z"/>
    </symbol>

    <symbol id="link" viewBox="0 0 20 20">
        <path d="M6.66663 6.66667C4.79353 6.66667 3.33329 8.1269 3.33329 10C3.33329 11.8731 4.79353 13.3333 6.66663 13.3333H8.33329C8.79353 13.3333 9.16663 13.7064 9.16663 14.1667C9.16663 14.6269 8.79353 15 8.33329 15H6.66663C3.87306 15 1.66663 12.7936 1.66663 10C1.66663 7.20643 3.87306 5 6.66663 5H8.33329C8.79353 5 9.16663 5.3731 9.16663 5.83333C9.16663 6.29357 8.79353 6.66667 8.33329 6.66667H6.66663ZM10.8333 5.83333C10.8333 5.3731 11.2064 5 11.6666 5H13.3333C16.1269 5 18.3333 7.20643 18.3333 10C18.3333 12.7936 16.1269 15 13.3333 15H11.6666C11.2064 15 10.8333 14.6269 10.8333 14.1667C10.8333 13.7064 11.2064 13.3333 11.6666 13.3333H13.3333C15.2064 13.3333 16.6666 11.8731 16.6666 10C16.6666 8.1269 15.2064 6.66667 13.3333 6.66667H11.6666C11.2064 6.66667 10.8333 6.29357 10.8333 5.83333ZM5.83329 10C5.83329 9.53976 6.20639 9.16667 6.66663 9.16667H13.3333C13.7935 9.16667 14.1666 9.53976 14.1666 10C14.1666 10.4602 13.7935 10.8333 13.3333 10.8333H6.66663C6.20639 10.8333 5.83329 10.4602 5.83329 10Z"/>
    </symbol>

    <symbol id="arrow-right" viewBox="0 0 81 16">
        <path d="M80.7071 8.70711C81.0976 8.31658 81.0976 7.68342 80.7071 7.29289L74.3431 0.928932C73.9526 0.538408 73.3195 0.538408 72.9289 0.928932C72.5384 1.31946 72.5384 1.95262 72.9289 2.34315L78.5858 8L72.9289 13.6569C72.5384 14.0474 72.5384 14.6805 72.9289 15.0711C73.3195 15.4616 73.9526 15.4616 74.3431 15.0711L80.7071 8.70711ZM0 9H80V7H0V9Z"/>
    </symbol>

    <symbol id="close" viewBox="0 0 48 48">
        <path fill-rule="evenodd" clip-rule="evenodd"
              d="M14.9142 12.0858C14.1332 11.3047 12.8668 11.3047 12.0858 12.0858C11.3047 12.8668 11.3047 14.1332 12.0858 14.9142L21.1715 24L12.0858 33.0857C11.3047 33.8668 11.3047 35.1331 12.0858 35.9142C12.8668 36.6952 14.1332 36.6952 14.9142 35.9142L24 26.8284L33.0857 35.9142C33.8668 36.6952 35.1331 36.6952 35.9142 35.9142C36.6952 35.1331 36.6952 33.8668 35.9142 33.0857L26.8284 24L35.9142 14.9142C36.6952 14.1332 36.6952 12.8668 35.9142 12.0858C35.1331 11.3047 33.8668 11.3047 33.0857 12.0858L24 21.1715L14.9142 12.0858Z"/>
    </symbol>

    <symbol id="print" viewBox="0 0 24 24">
        <path d="M7 2C6.44772 2 6 2.44772 6 3V7H4C2.89543 7 2 7.89543 2 9V17C2 18.1046 2.89543 19 4 19H6V21C6 21.5523 6.44772 22 7 22H17C17.5523 22 18 21.5523 18 21V19H20C21.1046 19 22 18.1046 22 17V9C22 7.89543 21.1046 7 20 7H18V3C18 2.44772 17.5523 2 17 2H7ZM17 14H7C6.44772 14 6 14.4477 6 15V17H4V9H7H17H20V17H18V15C18 14.4477 17.5523 14 17 14ZM16 7H8V4H16V7ZM5 10V12H8V10H5ZM16 16V20H8V16H16Z"
        />
    </symbol>

    <symbol id="share2" viewBox="0 0 24 24">
        <path d="M11.2929 2.29289C11.6834 1.90237 12.3166 1.90237 12.7071 2.29289L15.7071 5.29289C16.0976 5.68342 16.0976 6.31658 15.7071 6.70711C15.3166 7.09763 14.6834 7.09763 14.2929 6.70711L13 5.41421V15C13 15.5523 12.5523 16 12 16C11.4477 16 11 15.5523 11 15V5.41421L9.70711 6.70711C9.31658 7.09763 8.68342 7.09763 8.29289 6.70711C7.90237 6.31658 7.90237 5.68342 8.29289 5.29289L11.2929 2.29289ZM4 11C4 9.89543 4.89543 9 6 9H8C8.55228 9 9 9.44772 9 10C9 10.5523 8.55228 11 8 11H6V20H18V11H16C15.4477 11 15 10.5523 15 10C15 9.44772 15.4477 9 16 9H18C19.1046 9 20 9.89543 20 11V20C20 21.1046 19.1046 22 18 22H6C4.89543 22 4 21.1046 4 20V11Z"
        />
    </symbol>


    <symbol id="plus" viewBox="0 0 24 24">
        <path d="M12 6L12 18" stroke-width="2" stroke-linecap="round" stroke-linejoin="round"/>
        <path d="M18 12L6 12" stroke-width="2" stroke-linecap="round" stroke-linejoin="round"/>
    </symbol>

    <symbol id="arrow-collapse" viewBox="0 0 10 6">
        <path d="M8.93248 0C9.3564 0 9.58798 0.494429 9.31659 0.820092L5.38411 5.53907C5.18421 5.77894 4.81579 5.77894 4.61589 5.53907L0.68341 0.820091C0.412023 0.494428 0.643602 0 1.06752 0H8.93248Z"/>
    </symbol>


    <symbol id="filter" viewBox="0 0 24 24">
        <path d="M9 5C8.44772 5 8 5.44772 8 6C8 6.55228 8.44772 7 9 7C9.55228 7 10 6.55228 10 6C10 5.44772 9.55228 5 9 5ZM6.17071 5C6.58254 3.83481 7.69378 3 9 3C10.3062 3 11.4175 3.83481 11.8293 5H19C19.5523 5 20 5.44772 20 6C20 6.55228 19.5523 7 19 7H11.8293C11.4175 8.16519 10.3062 9 9 9C7.69378 9 6.58254 8.16519 6.17071 7H5C4.44772 7 4 6.55228 4 6C4 5.44772 4.44772 5 5 5H6.17071ZM15 11C14.4477 11 14 11.4477 14 12C14 12.5523 14.4477 13 15 13C15.5523 13 16 12.5523 16 12C16 11.4477 15.5523 11 15 11ZM12.1707 11C12.5825 9.83481 13.6938 9 15 9C16.3062 9 17.4175 9.83481 17.8293 11H19C19.5523 11 20 11.4477 20 12C20 12.5523 19.5523 13 19 13H17.8293C17.4175 14.1652 16.3062 15 15 15C13.6938 15 12.5825 14.1652 12.1707 13H5C4.44772 13 4 12.5523 4 12C4 11.4477 4.44772 11 5 11H12.1707ZM9 17C8.44772 17 8 17.4477 8 18C8 18.5523 8.44772 19 9 19C9.55228 19 10 18.5523 10 18C10 17.4477 9.55228 17 9 17ZM6.17071 17C6.58254 15.8348 7.69378 15 9 15C10.3062 15 11.4175 15.8348 11.8293 17H19C19.5523 17 20 17.4477 20 18C20 18.5523 19.5523 19 19 19H11.8293C11.4175 20.1652 10.3062 21 9 21C7.69378 21 6.58254 20.1652 6.17071 19H5C4.44772 19 4 18.5523 4 18C4 17.4477 4.44772 17 5 17H6.17071Z"
        />
    </symbol>

</svg>