<svg width="20" height="20" viewBox="0 0 20 20" fill="none" xmlns="http://www.w3.org/2000/svg">
    <path d="M1.66699 2.50002C1.66699 2.03978 2.04009 1.66669 2.50033 1.66669H9.16699C9.38801 1.66669 9.59997 1.75448 9.75625 1.91076L18.0896 10.2441C18.415 10.5695 18.415 11.0972 18.0896 11.4226L11.4229 18.0893C11.0975 18.4147 10.5698 18.4147 10.2444 18.0893L1.91107 9.75594C1.75479 9.59966 1.66699 9.3877 1.66699 9.16669V2.50002ZM3.33366 3.33335V8.82151L10.8337 16.3215L16.3218 10.8334L8.82181 3.33335H3.33366Z" fill="#BA935F"/>
    <path d="M7.50033 6.25002C7.50033 6.94038 6.94068 7.50002 6.25033 7.50002C5.55997 7.50002 5.00033 6.94038 5.00033 6.25002C5.00033 5.55966 5.55997 5.00002 6.25033 5.00002C6.94068 5.00002 7.50033 5.55966 7.50033 6.25002Z" fill="#BA935F"/>
</svg>
